<svg width="30" height="28" viewBox="0 0 30 28" fill="none" xmlns="http://www.w3.org/2000/svg">
<path d="M29.229 8.23995H23.972L17.8738 1.36344C16.2617 -0.454481 13.6682 -0.454481 12.0561 1.36344L5.95794 8.23995H0.700935C0.280374 8.23995 0 8.55611 0 9.03035V11.7968C0 12.271 0.280374 12.5872 0.700935 12.5872H0.911214L5.11682 27.4467C5.18692 27.7629 5.46729 28 5.81776 28H24.1822C24.4626 28 24.743 27.7629 24.8832 27.4467L29.0888 12.5872H29.2991C29.7196 12.5872 30 12.271 30 11.7968V9.03035C29.9299 8.63515 29.5794 8.23995 29.229 8.23995ZM12.9673 2.47001C14.0187 1.2844 15.771 1.2844 16.8224 2.47001L21.9393 8.23995H7.85047L12.9673 2.47001ZM1.33178 9.82075H28.4579V11.0064H1.33178V9.82075ZM23.6215 26.4192H6.23832L2.31308 12.5872H27.5467L23.6215 26.4192Z" fill="black"/>
</svg>
