<svg width="33" height="19" viewBox="0 0 33 19" fill="none" xmlns="http://www.w3.org/2000/svg">
<path d="M32.9917 15.8823L31.0274 4.80974C30.9816 4.55217 30.7608 4.36532 30.5033 4.36532H22.4916V0.540082C22.4916 0.241939 22.2532 0 21.9595 0H3.64493C3.35117 0 3.11279 0.241939 3.11279 0.540082V2.84966C3.11279 3.14781 3.35117 3.38975 3.64493 3.38975C3.93869 3.38975 4.17707 3.14781 4.17707 2.84966V1.08016H21.427V15.439H12.6216C12.37 14.0298 11.1546 12.9571 9.69464 12.9571C8.23502 12.9571 7.01965 14.0298 6.76807 15.439H4.17707V13.8117C4.17707 13.5136 3.93869 13.2716 3.64493 13.2716C3.35117 13.2716 3.11279 13.5136 3.11279 13.8117V15.9791C3.11279 16.2773 3.35117 16.5192 3.64493 16.5192H6.76844C7.02075 17.928 8.23575 19 9.695 19C11.1546 19 12.3696 17.9277 12.6219 16.5192H21.4713C21.7236 17.928 22.9386 19 24.3983 19C25.8579 19 27.0732 17.9273 27.3248 16.5181H32.4676C32.6253 16.5181 32.7749 16.447 32.8758 16.3242C32.977 16.2017 33.0195 16.0402 32.9917 15.8823ZM9.69464 17.9198C8.64027 17.9198 7.7821 17.0489 7.7821 15.9784C7.7821 14.9083 8.64027 14.0373 9.69464 14.0373C10.7494 14.0373 11.6075 14.9083 11.6075 15.9784C11.6075 17.0489 10.7497 17.9198 9.69464 17.9198ZM24.3979 17.9198C23.3542 17.9198 22.5066 17.0667 22.4883 16.0119C22.489 16.0007 22.4916 15.9903 22.4916 15.9791V15.9125C22.5268 14.8736 23.3655 14.0377 24.3979 14.0377C25.4523 14.0377 26.3104 14.9086 26.3104 15.9787C26.3104 17.0489 25.4523 17.9198 24.3979 17.9198ZM27.3245 15.4379C27.0725 14.0295 25.8571 12.9571 24.3979 12.9571C23.6732 12.9571 23.0083 13.2218 22.4916 13.6602V5.44585H30.0585L31.8309 15.4379H27.3245Z" fill="#9C9C9C"/>
<path d="M6.13919 6.16801C6.13919 5.86987 5.90081 5.62793 5.60705 5.62793H0.532137C0.23838 5.62793 0 5.86987 0 6.16801C0 6.46615 0.23838 6.70809 0.532137 6.70809H5.60705C5.90081 6.70809 6.13919 6.46615 6.13919 6.16801Z" fill="#9C9C9C"/>
<path d="M6.13984 10.3477C6.13984 10.0496 5.90146 9.80762 5.6077 9.80762H1.86807C1.57432 9.80762 1.33594 10.0496 1.33594 10.3477C1.33594 10.6458 1.57432 10.8878 1.86807 10.8878H5.60733C5.90146 10.8878 6.13984 10.6458 6.13984 10.3477Z" fill="#9C9C9C"/>
</svg>
