<svg width="22" height="25" viewBox="0 0 22 25" fill="none" xmlns="http://www.w3.org/2000/svg">
<path d="M4.0718 11.6361V21.725C4.0718 21.8768 4.19491 22 4.34675 22H17.6571C17.809 22 17.9321 21.8768 17.9321 21.725V11.6318L21.9287 7.22177C21.98 7.16523 22.0055 7.08989 21.999 7.01388C21.4123 0.0702395 15.185 0 15.1026 0C15.0235 0.00604356 14.9596 0.0292776 14.908 0.0812522C14.8566 0.132958 14.8279 0.203063 14.8282 0.275989C14.8359 2.55521 13.2276 4.2795 11.0888 4.28676C8.88478 4.27924 7.16419 2.51747 7.17171 0.275989C7.17224 0.124094 7.04954 0.000537225 6.8977 0C6.89783 0 6.89756 0 6.8977 0C6.81446 0 0.587533 0.0706425 0.000981173 7.01388C-0.00546298 7.08989 0.0200451 7.16523 0.0713298 7.22177L4.0718 11.6361ZM6.62919 0.561513C6.76277 2.97302 8.66984 4.82866 11.0888 4.83685C12.2945 4.83269 13.395 4.35364 14.1875 3.48767C14.8984 2.71087 15.3132 1.68158 15.3711 0.564065C15.8591 0.603952 16.948 0.758533 18.0701 1.3555C20.0548 2.41138 21.1883 4.29052 21.4404 6.94149L17.9321 10.8127V7.46822C17.9321 7.31632 17.809 7.19317 17.6571 7.19317C17.5053 7.19317 17.3822 7.31632 17.3822 7.46822V21.4499H4.6217V7.46822C4.6217 7.31632 4.49859 7.19317 4.34675 7.19317C4.19491 7.19317 4.0718 7.31632 4.0718 7.46822V10.817L0.559608 6.94149C1.09353 1.33254 5.48012 0.645183 6.62919 0.561513Z" fill="#9C9C9C"/>
<path d="M15 24.9004L1 24.9004L1 24.2004L15 24.2004V24.9004Z" fill="#9C9C9C"/>
<path d="M15 24.9004H13.9231V24.0004H15V24.9004Z" fill="#9C9C9C"/>
<path d="M12.8462 24.9004H11.7692V24.0004H12.8462V24.9004Z" fill="#9C9C9C"/>
<path d="M10.6923 24.9004H9.61539V24.0004H10.6923V24.9004Z" fill="#9C9C9C"/>
<path d="M8.53846 24.9004H7.46154V24.0004H8.53846V24.9004Z" fill="#9C9C9C"/>
<path d="M6.38462 24.9004H5.30769V24.0004H6.38462V24.9004Z" fill="#9C9C9C"/>
<path d="M4.23077 24.9004H3.15385V24.0004H4.23077V24.9004Z" fill="#9C9C9C"/>
<path d="M2.07692 24.9004L1 24.9004L1 24.0004H2.07692V24.9004Z" fill="#9C9C9C"/>
<path d="M1 25L1 11H1.7L1.7 25H1Z" fill="#9C9C9C"/>
<path d="M1 25V23.9231H1.9V25H1Z" fill="#9C9C9C"/>
<path d="M1 22.8462V21.7692L1.9 21.7692V22.8462H1Z" fill="#9C9C9C"/>
<path d="M1 20.6923V19.6154H1.9V20.6923H1Z" fill="#9C9C9C"/>
<path d="M1 18.5385V17.4615H1.9V18.5385H1Z" fill="#9C9C9C"/>
<path d="M1 16.3846V15.3077H1.9V16.3846H1Z" fill="#9C9C9C"/>
<path d="M1 14.2308V13.1538H1.9V14.2308H1Z" fill="#9C9C9C"/>
<path d="M1 12.0769L1 11H1.9V12.0769H1Z" fill="#9C9C9C"/>
</svg>
