<svg width="31" height="32" viewBox="0 0 31 32" fill="none" xmlns="http://www.w3.org/2000/svg">
<path fill-rule="evenodd" clip-rule="evenodd" d="M15.4648 31.1179L14.9286 30.6189C3.18157 19.6867 0 15.8384 0 9.58732C0 4.44788 3.65931 0.266602 8.15718 0.266602C11.9161 0.266602 14.0408 2.70585 15.4648 4.54077C16.8889 2.70585 19.0136 0.266602 22.7725 0.266602C27.2704 0.266602 30.9297 4.44788 30.9297 9.58732C30.9297 15.8384 27.7481 19.6867 16.001 30.6189L15.4648 31.1179ZM8.15718 2.20798C4.59652 2.20798 1.69903 5.51877 1.69903 9.58732C1.69903 14.9428 4.64859 18.5229 15.4648 28.6129C26.2811 18.5229 29.2307 14.9428 29.2307 9.58732C29.2307 5.51877 26.3332 2.20798 22.7725 2.20798C19.5115 2.20798 17.8097 4.42596 16.4432 6.20869L15.4648 7.46432L14.4865 6.20869C13.12 4.42596 11.4182 2.20798 8.15718 2.20798Z" fill="black"/>
</svg>
