<svg width="19" height="22" viewBox="0 0 19 22" fill="none" xmlns="http://www.w3.org/2000/svg">
<path d="M17.3612 4.24284H14.8005V2.29921C14.8005 1.55606 14.4933 0.927243 13.9811 0.527085C13.469 0.126927 12.8032 0.0125958 12.1887 0.298423L2.45822 4.3C1.07547 4.35717 0 5.61481 0 7.21544V18.9344C0 20.535 1.1779 21.8498 2.61186 21.8498H17.4636C18.283 21.8498 19 21.1066 19 20.1348V15.2186V10.9312V6.01497C18.8976 4.98599 18.2318 4.24284 17.3612 4.24284ZM12.5472 1.27024C12.8544 1.1559 13.1617 1.21307 13.4178 1.38457C13.6739 1.55606 13.8275 1.89906 13.8275 2.24205V4.18567H5.42857L12.5472 1.27024ZM17.3612 20.5921H2.50943C1.63881 20.5921 0.921833 19.7918 0.921833 18.82V7.15827C0.921833 6.18646 1.63881 5.38615 2.50943 5.38615H14.2884H17.3612C17.6173 5.38615 17.8733 5.61481 17.8733 5.9578V10.3024H14.3908C13.469 10.3024 12.7008 11.1599 12.7008 12.1888V13.9038C12.7008 14.9328 13.469 15.7903 14.3908 15.7903H17.8733V20.1348C17.8733 20.3635 17.6685 20.5921 17.3612 20.5921ZM17.8733 14.5898H14.3908C14.0323 14.5898 13.7251 14.2468 13.7251 13.8466V12.1317C13.7251 11.7315 14.0323 11.3885 14.3908 11.3885H17.8733V14.5898Z" fill="#9C9C9C"/>
<path d="M15.6709 13.9612C16.1318 13.9612 16.5415 13.561 16.5415 12.9894C16.5415 12.4177 16.183 12.0176 15.6709 12.0176C15.1588 12.0176 14.8003 12.4177 14.8003 12.9894C14.8003 13.561 15.21 13.9612 15.6709 13.9612ZM15.6709 12.8179C15.7733 12.8179 15.8245 12.9322 15.8245 12.9894C15.8245 13.0466 15.7221 13.1609 15.6709 13.1609C15.6197 13.1609 15.5173 13.0466 15.5173 12.9894C15.5173 12.9322 15.5685 12.8179 15.6709 12.8179Z" fill="#9C9C9C"/>
</svg>
