<svg width="17" height="20" viewBox="0 0 17 20" fill="none" xmlns="http://www.w3.org/2000/svg">
<path d="M16.5818 12.8337H12.7799C12.7341 12.8337 12.6425 12.8337 12.5967 12.886C12.5509 12.9384 12.5051 12.9384 12.4593 12.9908L11.589 13.9856C9.34447 12.6242 7.42061 10.6346 5.95481 8.22617C5.63416 7.70258 5.35933 7.179 5.08449 6.65542L5.95481 5.66062C6.00061 5.60826 6.04642 5.5559 6.04642 5.50354C6.09223 5.45118 6.09223 5.34647 6.09223 5.29411V0.948385C6.09223 0.634236 5.909 0.424805 5.63416 0.424805H0.458063C0.183226 0.424805 0 0.634236 0 0.948385C0 11.3677 7.42061 19.8497 16.536 19.8497C16.8109 19.8497 16.9941 19.6402 16.9941 19.3261V13.3573C17.0399 13.0431 16.8109 12.8337 16.5818 12.8337ZM12.9173 13.8808H16.078V18.7501C13.9251 18.6978 11.9096 18.1219 10.0774 17.127L12.9173 13.8808ZM0.961931 1.36725H5.22191V4.97996L2.38192 8.22617C1.5116 6.1842 1.00774 3.82808 0.961931 1.36725ZM2.79418 9.27333L4.4432 7.38844C4.67223 7.85966 4.94707 8.33088 5.22191 8.8021C6.68771 11.2106 8.65737 13.2525 10.9019 14.7186L9.25285 16.6035C6.50448 14.9804 4.21417 12.3625 2.79418 9.27333Z" fill="#B3B3B3"/>
</svg>
