<svg width="40" height="28" viewBox="0 0 40 28" fill="none" xmlns="http://www.w3.org/2000/svg">
<path d="M6 1L6 10.1L1 10.1L1 6C1 3.23858 3.23858 1 6 1Z" fill="#FFF3E8"/>
<rect x="6" y="9.44922" width="9.10001" height="5" transform="rotate(90 6 9.44922)" fill="#0E8BFF"/>
<path d="M6 17.9004L6 27.0004C3.23858 27.0004 1 24.7618 1 22.0004L1 17.9004L6 17.9004Z" fill="#EE2121"/>
<rect x="0.7" y="0.7" width="38.6" height="26.6" rx="4.3" stroke="black" stroke-width="1.4"/>
<path d="M18.1694 14.5659V18H16.5635V8.75781H20.0991C21.1317 8.75781 21.9505 9.02653 22.5557 9.56396C23.165 10.1014 23.4697 10.8123 23.4697 11.6968C23.4697 12.6024 23.1714 13.307 22.5747 13.8105C21.9823 14.3141 21.1507 14.5659 20.0801 14.5659H18.1694ZM18.1694 13.2773H20.0991C20.6704 13.2773 21.1063 13.144 21.4067 12.8774C21.7072 12.6066 21.8574 12.2173 21.8574 11.7095C21.8574 11.2101 21.7051 10.8123 21.4004 10.5161C21.0957 10.2157 20.6768 10.0612 20.1436 10.0527H18.1694V13.2773ZM27.2339 15.791L28.6304 11.1318H30.2744L27.5449 19.041C27.126 20.1963 26.415 20.7739 25.4121 20.7739C25.1878 20.7739 24.9403 20.7358 24.6694 20.6597V19.4663L24.9614 19.4854C25.3507 19.4854 25.6427 19.4134 25.8374 19.2695C26.0363 19.1299 26.1929 18.8929 26.3071 18.5586L26.5293 17.9683L24.1172 11.1318H25.7803L27.2339 15.791Z" fill="black"/>
</svg>
