<svg width="30" height="30" viewBox="0 0 30 30" fill="none" xmlns="http://www.w3.org/2000/svg">
<path d="M6.55917 5.57171C6.27243 5.28599 5.84232 5.28599 5.55559 5.57171C2.32978 8.78599 2.32978 14.0717 5.55559 17.286C5.69895 17.4288 5.91401 17.5003 6.05738 17.5003C6.20075 17.5003 6.4158 17.4288 6.55917 17.286C6.84591 17.0003 6.84591 16.5717 6.55917 16.286C3.90684 13.6431 3.90684 9.28599 6.55917 6.57171C6.84591 6.28599 6.84591 5.85742 6.55917 5.57171Z" fill="black"/>
<path d="M29.5699 27.5L23.5484 21.5C23.19 21.1429 23.3333 22.2143 22.1864 21.1429L20.0358 19C21.8996 16.9286 22.9032 14.2857 22.9032 11.4286C22.9032 8.35714 21.6846 5.5 19.5341 3.35714C17.3835 1.21429 14.4444 0 11.4337 0C8.42294 0 5.48387 1.21429 3.33333 3.35714C-1.11111 7.85714 -1.11111 15.0714 3.33333 19.5714C5.55556 21.7857 8.49463 22.9286 11.4337 22.9286C14.1577 22.9286 16.8817 21.9286 19.0323 20.0714L21.1828 22.2143C22.1864 23.25 21.1828 23.2143 21.5412 23.5714L27.5627 29.5714C27.8495 29.8571 28.2079 30 28.5663 30C28.9247 30 29.2832 29.8571 29.5699 29.5714C30.1434 29 30.1434 28.0714 29.5699 27.5ZM4.33692 18.5C0.394266 14.5714 0.394266 8.21429 4.33692 4.35714C6.2724 2.5 8.78136 1.42857 11.4337 1.42857C14.086 1.42857 16.6667 2.5 18.5305 4.35714C20.466 6.28572 21.4695 8.78571 21.4695 11.4286C21.4695 14.0714 20.3943 16.6429 18.5305 18.5C14.6595 22.4286 8.27957 22.4286 4.33692 18.5Z" fill="black"/>
</svg>
