<svg width="26" height="28" viewBox="0 0 26 28" fill="none" xmlns="http://www.w3.org/2000/svg">
<path d="M14.0068 25.4283H5.02312C3.38095 25.4283 2.02857 24.095 2.02857 22.476V20.9522C2.02857 17.0475 5.31291 13.8094 9.27345 13.8094H14.0068C16.7115 13.8094 19.1265 15.238 20.3823 17.6189C20.6721 18.0951 21.2517 18.2856 21.7346 17.9998C22.2176 17.7141 22.4108 17.1427 22.121 16.6665C20.8653 14.2856 18.6435 12.6666 16.1319 12.0951C17.6775 10.857 18.5469 8.9523 18.5469 6.85708C18.5469 3.04759 15.4558 0 11.5918 0C7.72788 0 4.63672 3.04759 4.63672 6.85708C4.63672 8.9523 5.60271 10.857 7.05169 12.0951C2.99455 13.0475 0 16.6665 0 20.857V22.3808C0 25.0474 2.22176 27.2379 4.92652 27.2379H13.9102C14.4898 27.2379 14.8762 26.8569 14.8762 26.2855C14.8762 25.7141 14.5864 25.4283 14.0068 25.4283ZM6.56869 6.95232C6.56869 4.19044 8.79046 1.99998 11.5918 1.99998C14.3932 1.99998 16.6149 4.19044 16.6149 6.95232C16.6149 9.7142 14.3932 11.9047 11.5918 11.9047C8.79046 11.9047 6.56869 9.7142 6.56869 6.95232Z" fill="black"/>
<path d="M24.4394 22.9529H22.1211V20.6672C22.1211 20.0958 21.7347 19.7148 21.1551 19.7148C20.5755 19.7148 20.1891 20.0958 20.1891 20.6672V22.9529H17.8708C17.2912 22.9529 16.9048 23.3339 16.9048 23.9053C16.9048 24.4767 17.2912 24.8577 17.8708 24.8577H20.1891V27.0481C20.1891 27.6195 20.5755 28.0005 21.1551 28.0005C21.7347 28.0005 22.1211 27.6195 22.1211 27.0481V24.7624H24.4394C25.019 24.7624 25.4054 24.3815 25.4054 23.81C25.4054 23.2386 25.019 22.9529 24.4394 22.9529Z" fill="#3AC87B"/>
</svg>
