<svg width="48" height="48" viewBox="0 0 48 48" fill="none" xmlns="http://www.w3.org/2000/svg">
<rect width="48" height="48" transform="matrix(1 0 0 -1 0 48)" fill="#F0F0F0"/>
<rect width="48" height="48" transform="matrix(1 0 0 -1 0 48)" fill="#3D3737"/>
<path d="M10.7277 29.2539C10.4807 29.2525 10.2353 29.2147 9.9991 29.1416C9.74012 29.0613 9.4898 28.9548 9.25193 28.8238C8.92665 28.6548 8.6159 28.4586 8.32292 28.2373C8.05923 28.0286 7.81 27.8018 7.57699 27.5586C7.26137 27.2396 6.96696 26.9133 6.72486 26.6136C6.45709 26.2947 6.22588 25.9461 6.03565 25.5745L6.01957 25.5406V25.5395L6.01586 25.5317V25.5299V25.5281L5.99713 25.4876L5.99589 25.4849L5.99466 25.4822L5.97698 25.4431L5.97469 25.4381V25.4367L5.96161 25.4074L5.95754 25.3983L5.95454 25.3913L5.95207 25.3858V25.3847L5.93846 25.3534L5.93704 25.3499L5.93333 25.3465L5.91725 25.3086L5.9146 25.3024L5.89887 25.264L5.89781 25.2615L5.89675 25.259L5.88191 25.2215L5.88014 25.217L5.86583 25.18V25.1788L5.86388 25.1738L5.85028 25.138L5.84904 25.1345L5.84745 25.1304C5.84321 25.1189 5.83914 25.1075 5.8349 25.0957V25.0934L5.83243 25.0864C5.82766 25.0732 5.82394 25.0623 5.82059 25.0527V25.0505L5.81794 25.0425L5.80415 25.0071L5.80079 24.9968L5.79001 24.9639L5.78825 24.9587L5.78683 24.9536C5.78295 24.9414 5.77977 24.9309 5.77676 24.9212L5.77376 24.911L5.7651 24.8821L5.76351 24.8766V24.8755L5.76174 24.8693L5.7529 24.8407L5.75149 24.8359L5.75008 24.8285C5.74707 24.8173 5.74442 24.8075 5.74195 24.7982L5.74018 24.7928L5.73859 24.7869C5.73629 24.7778 5.73364 24.768 5.73099 24.7569L5.72834 24.7462V24.7437C5.7264 24.7357 5.72375 24.7258 5.72127 24.7144L5.71756 24.7003C5.71544 24.6915 5.71332 24.6824 5.71102 24.6714L5.70961 24.6646L5.70802 24.6574C5.7059 24.6478 5.70395 24.6381 5.70201 24.6287L5.69989 24.6155C5.69847 24.6087 5.69724 24.6019 5.69582 24.5951V24.5915V24.5885V24.5874L5.69317 24.5731V24.5713L5.68946 24.5505C5.68822 24.5438 5.68716 24.5372 5.6861 24.5306L5.68257 24.5088C5.68151 24.5026 5.68063 24.4963 5.67957 24.491C5.67851 24.4856 5.67727 24.4754 5.67603 24.4676L5.67497 24.4599L5.67391 24.4522C5.67267 24.4431 5.67144 24.4344 5.67038 24.4253L5.66631 24.4113V24.4088C5.66454 24.3985 5.66454 24.3899 5.66278 24.382C5.66278 24.3772 5.66172 24.3724 5.66119 24.3676V24.3658C5.6603 24.3572 5.65942 24.3479 5.65854 24.3393C5.65854 24.3343 5.65765 24.3292 5.65712 24.3242V24.3231C5.65642 24.3157 5.65577 24.3083 5.65518 24.3009C5.65518 24.2943 5.65412 24.2879 5.65376 24.2813C5.65341 24.2747 5.65288 24.2683 5.65235 24.2618C5.65235 24.2545 5.65147 24.2472 5.65111 24.2397C5.65076 24.2322 5.65111 24.2274 5.65005 24.2218C5.64899 24.2163 5.65005 24.207 5.64917 24.1997V24.1986C5.64917 24.1924 5.64917 24.1861 5.64917 24.1799C5.64917 24.1736 5.64917 24.17 5.64917 24.1652V24.1581C5.64917 24.1513 5.64917 24.1443 5.64917 24.1375C5.64917 24.1307 5.64917 24.1265 5.64917 24.1209V24.0793C5.64917 24.0707 5.64917 24.0622 5.64917 24.0536C5.64917 24.0475 5.64917 24.0414 5.64917 24.0357C5.64917 24.03 5.64917 24.0205 5.64917 24.0129C5.64917 24.0086 5.64917 24.0045 5.64917 24.0002V23.9939C5.64917 23.9843 5.64917 23.9761 5.65041 23.9679C5.65041 23.963 5.65041 23.958 5.65041 23.9532C5.65041 23.9454 5.65129 23.937 5.652 23.927C5.652 23.9223 5.652 23.9175 5.65306 23.9128C5.65306 23.9039 5.65447 23.895 5.65518 23.8861V23.8773V23.8711C5.656 23.8621 5.65689 23.8532 5.65783 23.8443L5.65924 23.8302V23.8273C5.65924 23.8193 5.66101 23.8105 5.66242 23.8001C5.66242 23.7969 5.66242 23.7937 5.66366 23.7905V23.7859V23.7841C5.66472 23.7751 5.66596 23.7662 5.6672 23.7573L5.66896 23.7446C5.67038 23.735 5.67179 23.7253 5.6732 23.7158L5.67497 23.7051V23.7035C5.67638 23.6946 5.67798 23.6848 5.67992 23.6735L5.68204 23.661C5.68381 23.6507 5.68575 23.6401 5.68769 23.6296L5.68929 23.6214V23.6169C5.69123 23.6065 5.69335 23.5958 5.69547 23.5855L5.69724 23.5765V23.5749C5.69936 23.5646 5.70166 23.5539 5.70395 23.5433V23.5399L5.70537 23.5333C5.70749 23.5235 5.70996 23.5131 5.71279 23.501L5.71509 23.4915C5.71756 23.4813 5.72021 23.4703 5.72357 23.4567L5.72481 23.4519L5.72587 23.4479C5.72887 23.436 5.73205 23.4238 5.73559 23.4106L5.73647 23.4072L5.73753 23.4035C5.74106 23.3904 5.74424 23.3788 5.74725 23.3678L5.74955 23.3595C5.75255 23.349 5.75626 23.3365 5.75997 23.3238V23.3224L5.76192 23.316C5.7658 23.3031 5.76969 23.2906 5.77323 23.2792L5.77517 23.2729C5.77906 23.2606 5.7833 23.2474 5.78825 23.2324L5.78931 23.229V23.2277C5.79373 23.2142 5.7985 23.2004 5.80274 23.1877L5.80486 23.1818C5.80928 23.1688 5.81405 23.1556 5.81847 23.1433L5.81953 23.1404L5.82059 23.1375C5.82607 23.1225 5.83066 23.1102 5.8349 23.0984L5.83667 23.0936C5.84179 23.0802 5.84709 23.0663 5.85257 23.0522L5.85363 23.0495C5.85894 23.0357 5.86477 23.0213 5.87131 23.0052L5.87254 23.0022C5.87855 22.9873 5.88421 22.9734 5.89021 22.9598L5.89216 22.9552C5.89728 22.9429 5.90294 22.9296 5.90983 22.9138L5.91195 22.9089C5.91725 22.8968 5.92308 22.8832 5.93068 22.8664L5.93227 22.8629C5.94023 22.845 5.94694 22.8303 5.95313 22.8169C6.32141 22.0168 6.87206 21.4596 7.40558 20.9209L7.41618 20.9102C7.7265 20.5966 8.01614 20.3289 8.30154 20.0919C8.62796 19.8179 8.97575 19.571 9.34153 19.3537C9.54487 19.2314 9.76306 19.1363 9.99062 19.0708C10.1856 19.0163 10.387 18.9886 10.5893 18.9883C10.8614 18.9903 11.1314 19.0367 11.3888 19.1258C11.6351 19.2109 11.8735 19.3178 12.1012 19.4453C12.4648 19.6427 12.8136 19.8666 13.1449 20.1154C13.4567 20.3501 13.7513 20.6073 14.0263 20.885C14.3135 21.1786 14.5763 21.4955 14.8122 21.8325C15.0326 22.1334 15.2146 22.4612 15.3537 22.8082C15.4444 23.0509 15.5214 23.2985 15.5845 23.5499C15.6395 23.7685 15.6704 23.9925 15.6767 24.2179C15.6811 24.4388 15.6546 24.6592 15.5981 24.8726C15.5315 25.1169 15.4369 25.3524 15.3162 25.5744C15.1443 25.9002 14.9432 26.2093 14.7154 26.4979C14.4885 26.7812 14.2456 27.051 13.988 27.3061C13.7097 27.5873 13.4165 27.8531 13.1097 28.1023C12.7886 28.3636 12.4519 28.6045 12.1013 28.8238C11.6931 29.0959 11.2167 29.2451 10.7277 29.2539V29.2539ZM11.4797 28.1162C11.2757 28.2375 11.0555 28.3282 10.8258 28.3855C11.0555 28.3283 11.2758 28.2375 11.4797 28.1162V28.1162ZM8.47967 27.7065C8.50106 27.7212 8.52315 27.736 8.54524 27.7504C8.52085 27.7344 8.49947 27.7199 8.47967 27.7065ZM7.73357 27.0773L7.77121 27.1143L7.73357 27.0773ZM8.09354 23.4812L8.08188 23.5067V23.5087L8.07145 23.5322L8.07039 23.5349L8.0605 23.558V23.5592V23.5605L8.05078 23.584V23.5856L8.04106 23.6101V23.6112L8.03222 23.6342V23.6358V23.6373L8.02427 23.6589L8.02321 23.6616L8.01561 23.683V23.6848V23.6862C8.01314 23.693 8.01084 23.7003 8.00819 23.7083V23.7101C8.00518 23.7192 8.00289 23.726 8.00094 23.7326L7.99988 23.736L7.9937 23.7566L7.99246 23.7609C7.99046 23.7674 7.98851 23.774 7.98663 23.7805V23.7828V23.7851L7.98115 23.8048L7.97214 23.8105L7.97108 23.8148L7.96684 23.8309L7.9656 23.8357C7.96401 23.8421 7.96242 23.8485 7.96083 23.855L7.95959 23.8602L7.95553 23.878L7.95447 23.883L7.95305 23.8898L7.95075 23.9007V23.9036V23.9066L7.94775 23.9214V23.9243L7.94422 23.9336L7.9421 23.945L7.94104 23.9511V23.9537V23.9575C7.94015 23.963 7.93927 23.9684 7.93838 23.9739L7.93732 23.9807L7.93503 23.9968L7.93397 24.0036C7.93397 24.0089 7.93255 24.0141 7.93185 24.0195V24.0236V24.0277C7.93185 24.0327 7.93061 24.0377 7.93008 24.0427V24.0477V24.0522V24.057C7.93008 24.0604 7.93008 24.0638 7.92919 24.067V24.0754V24.0798C7.92919 24.0832 7.92919 24.0868 7.92919 24.0902C7.92919 24.0936 7.92919 24.0954 7.92919 24.0981C7.92919 24.1007 7.92919 24.1073 7.92831 24.112C7.92831 24.1138 7.92831 24.1156 7.92831 24.1175V24.1207C7.92831 24.1254 7.92831 24.13 7.92831 24.1348C7.92831 24.1397 7.92831 24.1416 7.92831 24.145C7.92831 24.149 7.92831 24.1531 7.92831 24.157V24.1682C7.92831 24.1727 7.92831 24.1772 7.92831 24.1816V24.214C7.92831 24.2177 7.92831 24.2216 7.92831 24.2254C7.92831 24.2291 7.92831 24.2334 7.92831 24.2375V24.2479C7.92831 24.2522 7.92831 24.2565 7.92831 24.2608V24.2659V24.2711C7.92831 24.274 7.92831 24.2767 7.92831 24.2795V24.2838V24.2893V24.2947C7.92831 24.2983 7.92831 24.302 7.92831 24.3056V24.3117V24.3183V24.3265C7.92831 24.3313 7.92919 24.3361 7.92973 24.341C7.92973 24.3429 7.92973 24.3447 7.92973 24.3467V24.3499C7.92973 24.3549 7.93079 24.3597 7.93149 24.3645V24.3683V24.3733L7.93255 24.3808L7.93344 24.3876L7.93467 24.3961V24.4004L7.93591 24.4086V24.4129V24.4181L7.93697 24.4242V24.4294V24.4345L7.93803 24.4404L7.94033 24.4526V24.456L7.94157 24.4628V24.4662L7.94333 24.4754L7.94475 24.4822C7.94581 24.4876 7.94693 24.4929 7.9481 24.4981L7.94969 24.5058L7.95217 24.5167L7.95323 24.5217V24.5254V24.5288L7.95694 24.5446L7.95871 24.5519C7.9603 24.5583 7.96171 24.5637 7.96295 24.5685L7.96472 24.5753L7.96913 24.5915L7.97002 24.5947L7.9709 24.598C7.97231 24.6033 7.9739 24.6085 7.97532 24.6139L7.97726 24.6208L7.98203 24.6371L7.98292 24.6401V24.6428L7.9884 24.6606V24.6633V24.6662L7.99122 24.6748L7.99423 24.6839L7.99546 24.6874V24.6896L8.00006 24.7033L8.00147 24.7074L8.00342 24.713V24.7155L8.00889 24.7312L8.01066 24.7364L8.01773 24.7557L8.01879 24.7583V24.7601L8.02639 24.7803L8.0278 24.7839L8.03576 24.8044L8.03682 24.8069L8.04389 24.8248L8.04512 24.8278V24.8291V24.8307C8.04795 24.8376 8.05095 24.8448 8.05396 24.8519L8.05502 24.8546L8.06385 24.8757L8.06509 24.8787L8.07198 24.8946L8.07393 24.8991L8.07569 24.903L8.08506 24.9243V24.9255L8.08612 24.9278L8.09602 24.9496V24.9514V24.9527L8.09884 24.9587L8.10644 24.9753V24.9764L8.11015 24.9841L8.11758 25C8.34832 25.4075 8.63651 25.7789 8.97307 26.1025C9.24012 26.3899 9.55505 26.6278 9.9035 26.8051C10.1527 26.9527 10.4346 27.0348 10.7233 27.0439C10.9949 27.039 11.2596 26.9562 11.4864 26.8051C11.8664 26.5655 12.218 26.2827 12.5343 25.9621C12.8282 25.6822 13.0772 25.3576 13.2723 25.0002C13.5621 24.4522 13.5066 24.0536 13.2931 23.4642C13.1201 23.0712 12.8763 22.7142 12.5742 22.4112C12.2583 22.0933 11.898 21.8239 11.5049 21.6114C11.2502 21.458 10.9619 21.3708 10.6657 21.3576C10.4223 21.3602 10.1842 21.4293 9.97648 21.5575C9.58396 21.7969 9.22437 22.0876 8.90698 22.4221L8.90132 22.4278C8.57103 22.7264 8.29752 23.0835 8.09425 23.4815L8.09354 23.4812ZM7.61958 26.9639L7.68515 27.0296L7.61958 26.9639ZM13.3746 26.5727C13.3232 26.6263 13.2686 26.6824 13.2104 26.7413C13.1424 26.8101 13.0726 26.8785 13.0017 26.9458C13.0724 26.8785 13.1431 26.8101 13.2104 26.7413C13.2689 26.6821 13.3234 26.626 13.3746 26.5724V26.5727ZM14.4073 25.1568C14.395 25.1813 14.3823 25.2061 14.3692 25.2309C14.2838 25.3928 14.19 25.5501 14.0882 25.7021C14.19 25.5501 14.2838 25.3928 14.3692 25.2309C14.3824 25.2057 14.3944 25.1809 14.4075 25.1563L14.4073 25.1568ZM14.5243 23.1795C14.5883 23.3784 14.6352 23.5826 14.6645 23.7896C14.6356 23.5823 14.5887 23.378 14.5243 23.179V23.1795ZM12.9735 20.8815C13.0664 20.9658 13.1566 21.0521 13.244 21.1406C13.4946 21.3967 13.7239 21.6731 13.9297 21.9672C14.0191 22.095 14.0999 22.2202 14.1697 22.3395C13.9101 21.9036 13.5993 21.5011 13.244 21.1406C13.1568 21.0519 13.0666 20.9655 12.9735 20.8815ZM11.3623 19.7791C11.4268 19.8106 11.4931 19.8449 11.5647 19.8838C11.7631 19.9909 11.9584 20.1095 12.1448 20.234C11.9587 20.109 11.7635 19.9918 11.5648 19.8838C11.4931 19.8456 11.427 19.8098 11.3623 19.7791ZM8.2123 24.7003C8.17897 24.6219 8.15087 24.5414 8.12818 24.4592C8.09974 24.3572 8.08354 24.2522 8.07994 24.1463C8.08976 24.3375 8.1347 24.5253 8.21247 24.6999L8.2123 24.7003Z" fill="white"/>
<path d="M21.487 26.4437C21.7156 26.4437 21.9261 26.4391 22.1186 26.43C22.3111 26.4208 22.5097 26.401 22.7143 26.3707C22.7322 26.3664 22.7508 26.3667 22.7685 26.3715C22.7862 26.3762 22.8024 26.3853 22.8158 26.398C22.8292 26.4106 22.8394 26.4264 22.8453 26.4439C22.8512 26.4614 22.8528 26.4801 22.8498 26.4984V27.1824C22.8498 27.2614 22.8018 27.3162 22.7054 27.3466C22.4698 27.4202 22.2281 27.4721 21.9833 27.5016C21.7231 27.5369 21.4608 27.5551 21.1982 27.5562C20.7763 27.5679 20.3562 27.4966 19.9612 27.3464C19.6405 27.2185 19.3578 27.0093 19.1401 26.7391C18.919 26.4527 18.7619 26.1213 18.6797 25.7677C18.5786 25.3408 18.5302 24.9029 18.5356 24.4639V24.0444C18.5303 23.6057 18.5773 23.168 18.6755 22.7406C18.7546 22.3876 18.9085 22.0561 19.1268 21.7692C19.3422 21.4984 19.6237 21.2891 19.9436 21.162C20.3386 21.0117 20.7587 20.9404 21.1806 20.9521C21.6712 20.9557 22.1582 21.0357 22.6246 21.1893C22.666 21.1997 22.7036 21.2219 22.733 21.2532C22.7525 21.2828 22.762 21.3181 22.7601 21.3536V22.0103C22.763 22.0286 22.7613 22.0473 22.7554 22.0648C22.7495 22.0823 22.7393 22.0981 22.7259 22.1107C22.7125 22.1234 22.6963 22.1324 22.6786 22.1372C22.6609 22.142 22.6423 22.1422 22.6244 22.138C22.4558 22.1142 22.2723 22.0959 22.0739 22.0832C21.8755 22.0704 21.6739 22.0645 21.4692 22.0653C21.2218 22.0583 20.9754 22.0986 20.7428 22.1839C20.5522 22.2592 20.3874 22.3892 20.2689 22.5579C20.1391 22.7514 20.0515 22.9706 20.0118 23.2009C19.9566 23.5032 19.9309 23.8102 19.935 24.1176V24.4004C19.9309 24.7079 19.958 25.015 20.0161 25.3169C20.0583 25.5467 20.1491 25.7645 20.2824 25.9554C20.4054 26.1223 20.5729 26.2504 20.7652 26.3248C20.9965 26.4094 21.2413 26.4496 21.4871 26.4434L21.487 26.4437ZM23.8968 21.2082C23.8968 21.1109 23.9416 21.0623 24.0321 21.0623H25.1511C25.1707 21.0595 25.1908 21.0613 25.2096 21.0676C25.2284 21.074 25.2455 21.0846 25.2595 21.0988C25.2735 21.1129 25.2839 21.1302 25.2902 21.1492C25.2965 21.1682 25.2984 21.1884 25.2956 21.2082V25.9233C25.2856 26.0605 25.317 26.1975 25.3858 26.3162C25.4333 26.3653 25.4915 26.4024 25.5558 26.4246C25.6201 26.4468 25.6886 26.4534 25.7558 26.4439H27.8942C27.9138 26.4411 27.9338 26.4429 27.9526 26.4492C27.9714 26.4555 27.9884 26.4662 28.0024 26.4804C28.0164 26.4945 28.0271 26.5118 28.0333 26.5308C28.0396 26.5498 28.0413 26.57 28.0385 26.5898V27.2648C28.0385 27.3803 27.9875 27.441 27.8853 27.4471C27.5544 27.4775 27.1753 27.5033 26.748 27.5246C26.3207 27.5459 25.8784 27.5566 25.4212 27.5566C25.18 27.561 24.939 27.5365 24.7035 27.4835C24.5294 27.4457 24.367 27.366 24.2297 27.2514C24.1067 27.1406 24.0174 26.9967 23.9724 26.8365C23.9169 26.6315 23.8912 26.4195 23.896 26.2071L23.8968 21.2082ZM30.2772 27.2919C30.2802 27.313 30.2783 27.3344 30.2716 27.3546C30.265 27.3748 30.2537 27.3932 30.2389 27.4082C30.224 27.4232 30.2058 27.4346 30.1859 27.4413C30.1659 27.448 30.1448 27.45 30.1239 27.4469H29.0317C29.0108 27.45 28.9897 27.448 28.9697 27.4413C28.9498 27.4346 28.9316 27.4232 28.9167 27.4082C28.9019 27.3932 28.8906 27.3748 28.884 27.3546C28.8773 27.3344 28.8753 27.313 28.8783 27.2919V21.2264C28.8783 21.117 28.9294 21.0623 29.0317 21.0623H30.1239C30.2263 21.0623 30.2773 21.117 30.2772 21.2264V27.2919ZM34.5008 26.4435C34.7296 26.4435 34.9403 26.439 35.1328 26.4298C35.3253 26.4206 35.5238 26.4009 35.7284 26.3705C35.7462 26.3663 35.7647 26.3666 35.7824 26.3713C35.8001 26.3761 35.8164 26.3852 35.8298 26.3978C35.8432 26.4104 35.8534 26.4262 35.8593 26.4437C35.8653 26.4612 35.8667 26.4799 35.8638 26.4982V27.1822C35.8638 27.2613 35.8157 27.316 35.7194 27.3464C35.4839 27.42 35.2421 27.4719 34.9973 27.5014C34.737 27.5367 34.4749 27.555 34.2123 27.5561C33.7904 27.5677 33.3702 27.4964 32.9752 27.3462C32.6545 27.2183 32.3717 27.0092 32.1539 26.739C31.9332 26.4525 31.7765 26.1211 31.6945 25.7675C31.5934 25.3406 31.5448 24.9027 31.5501 24.4638V24.0442C31.5449 23.6055 31.5918 23.1678 31.6901 22.7404C31.7692 22.3874 31.9233 22.056 32.1415 21.769C32.3569 21.4983 32.6384 21.289 32.9583 21.1618C33.3533 21.0115 33.7735 20.9402 34.1954 20.9519C34.6859 20.9555 35.173 21.0355 35.6395 21.1891C35.6808 21.1996 35.7182 21.2218 35.7475 21.253C35.767 21.2827 35.7766 21.3179 35.7746 21.3534V22.0101C35.7776 22.0284 35.776 22.0471 35.7701 22.0646C35.7642 22.0822 35.7542 22.0979 35.7408 22.1106C35.7274 22.1232 35.711 22.1323 35.6933 22.137C35.6756 22.1418 35.6571 22.1421 35.6393 22.1378C35.4707 22.114 35.2871 22.0957 35.0886 22.083C34.8901 22.0703 34.6886 22.0643 34.4841 22.0651C34.2366 22.0581 33.99 22.0984 33.7574 22.1837C33.5667 22.259 33.4021 22.389 33.2836 22.5577C33.154 22.7513 33.0663 22.9704 33.0265 23.2007C32.9715 23.503 32.9457 23.8101 32.9497 24.1174V24.4002C32.9455 24.7077 32.9726 25.0148 33.0306 25.3168C33.0728 25.5466 33.1638 25.7644 33.2973 25.9553C33.4202 26.1222 33.5876 26.2503 33.78 26.3246C34.0111 26.4092 34.2559 26.4495 34.5017 26.4432L34.5008 26.4435ZM41.4412 21.0621C41.4612 21.0602 41.4813 21.0643 41.499 21.0741C41.5167 21.0838 41.5311 21.0987 41.5404 21.1168C41.5491 21.1362 41.552 21.1577 41.5489 21.1787C41.5457 21.1997 41.5367 21.2194 41.5228 21.2354L39.5913 24.1358L41.7754 27.2826C41.7871 27.2971 41.7945 27.3146 41.7968 27.3331C41.7992 27.3516 41.7965 27.3705 41.7889 27.3875C41.7804 27.4075 41.7657 27.4241 41.747 27.4348C41.7282 27.4455 41.7065 27.4497 41.6852 27.4467H40.4128C40.3603 27.4494 40.3078 27.44 40.2594 27.4194C40.2177 27.3959 40.1835 27.3611 40.1603 27.319L38.3099 24.4732V27.2916C38.3129 27.3126 38.3111 27.334 38.3044 27.3542C38.2977 27.3744 38.2865 27.3927 38.2716 27.4078C38.2567 27.4228 38.2386 27.4341 38.2186 27.4409C38.1987 27.4476 38.1775 27.4495 38.1567 27.4466H37.0643C37.0434 27.4496 37.0223 27.4476 37.0023 27.4409C36.9824 27.4341 36.9642 27.4228 36.9493 27.4078C36.9345 27.3927 36.9234 27.3744 36.9167 27.3542C36.9101 27.334 36.908 27.3126 36.911 27.2916V21.2261C36.911 21.1167 36.9621 21.062 37.0643 21.062H38.1567C38.2588 21.062 38.3098 21.1167 38.3099 21.2261V23.7979L40.0336 21.1711C40.0567 21.137 40.0879 21.1092 40.1241 21.0901C40.1603 21.0711 40.2006 21.0612 40.2414 21.0616L41.4412 21.0621Z" fill="white"/>
</svg>
