<svg width="48" height="48" viewBox="0 0 48 48" fill="none" xmlns="http://www.w3.org/2000/svg">
<rect width="48" height="48" transform="matrix(1 0 0 -1 0 48)" fill="#3D3737"/>
<path d="M29.3544 15.2857C30.2398 15.2857 30.995 15.6019 31.62 16.2344C32.2524 16.8594 32.5686 17.6146 32.5686 18.5V29.2143C32.5686 30.0997 32.2524 30.8549 31.62 31.4799C30.995 32.1124 30.2398 32.4286 29.3544 32.4286H27.2561V25.7879H29.4771L29.8119 23.1987H27.2561V21.5469C27.2561 21.1302 27.3417 20.8177 27.5128 20.6094C27.6914 20.401 28.0337 20.2969 28.5396 20.2969L29.9012 20.2857V17.9754C29.4325 17.9085 28.7703 17.875 27.9146 17.875C26.9027 17.875 26.0917 18.1726 25.4816 18.7679C24.8789 19.3631 24.5776 20.2039 24.5776 21.2902V23.1987H22.3454V25.7879H24.5776V32.4286H18.6401C17.7547 32.4286 16.9957 32.1124 16.3633 31.4799C15.7383 30.8549 15.4258 30.0997 15.4258 29.2143V18.5C15.4258 17.6146 15.7383 16.8594 16.3633 16.2344C16.9957 15.6019 17.7547 15.2857 18.6401 15.2857H29.3544Z" fill="white"/>
</svg>
