<svg width="48" height="48" viewBox="0 0 48 48" fill="none" xmlns="http://www.w3.org/2000/svg">
<rect width="48" height="48" transform="matrix(1 0 0 -1 0 48)" fill="#3D3737"/>
<path d="M26.0173 25.8772C26.5753 25.3192 26.8544 24.6458 26.8544 23.8571C26.8544 23.0685 26.5753 22.3951 26.0173 21.8371C25.4593 21.279 24.7859 21 23.9972 21C23.2085 21 22.5352 21.279 21.9771 21.8371C21.4191 22.3951 21.1401 23.0685 21.1401 23.8571C21.1401 24.6458 21.4191 25.3192 21.9771 25.8772C22.5352 26.4353 23.2085 26.7143 23.9972 26.7143C24.7859 26.7143 25.4593 26.4353 26.0173 25.8772ZM27.1111 20.7433C27.9667 21.599 28.3945 22.6369 28.3945 23.8571C28.3945 25.0774 27.9667 26.1153 27.1111 26.971C26.2554 27.8266 25.2174 28.2545 23.9972 28.2545C22.777 28.2545 21.739 27.8266 20.8834 26.971C20.0277 26.1153 19.5999 25.0774 19.5999 23.8571C19.5999 22.6369 20.0277 21.599 20.8834 20.7433C21.739 19.8876 22.777 19.4598 23.9972 19.4598C25.2174 19.4598 26.2554 19.8876 27.1111 20.7433ZM29.2986 18.5558C29.4994 18.7567 29.5999 18.9985 29.5999 19.2812C29.5999 19.564 29.4994 19.8058 29.2986 20.0067C29.0977 20.2076 28.8558 20.308 28.5731 20.308C28.2904 20.308 28.0485 20.2076 27.8477 20.0067C27.6468 19.8058 27.5463 19.564 27.5463 19.2812C27.5463 18.9985 27.6468 18.7567 27.8477 18.5558C28.0485 18.3549 28.2904 18.2545 28.5731 18.2545C28.8558 18.2545 29.0977 18.3549 29.2986 18.5558ZM24.8454 16.8259C24.332 16.8259 24.0493 16.8259 23.9972 16.8259C23.9451 16.8259 23.6587 16.8259 23.1378 16.8259C22.6244 16.8185 22.2338 16.8185 21.966 16.8259C21.6981 16.8259 21.3372 16.8371 20.8834 16.8594C20.4369 16.8743 20.0538 16.9115 19.7338 16.971C19.4213 17.0231 19.1572 17.09 18.9414 17.1719C18.5694 17.3207 18.242 17.5365 17.9593 17.8192C17.6765 18.1019 17.4608 18.4293 17.3119 18.8013C17.2301 19.0171 17.1594 19.285 17.0999 19.6049C17.0478 19.9174 17.0106 20.3006 16.9883 20.7545C16.9734 21.2009 16.9622 21.558 16.9548 21.8259C16.9548 22.0937 16.9548 22.4881 16.9548 23.0089C16.9622 23.5223 16.966 23.8051 16.966 23.8571C16.966 23.9092 16.9622 24.1957 16.9548 24.7165C16.9548 25.2299 16.9548 25.6205 16.9548 25.8884C16.9622 26.1562 16.9734 26.5171 16.9883 26.971C17.0106 27.4174 17.0478 27.8006 17.0999 28.1205C17.1594 28.433 17.2301 28.6972 17.3119 28.9129C17.4608 29.285 17.6765 29.6124 17.9593 29.8951C18.242 30.1778 18.5694 30.3936 18.9414 30.5424C19.1572 30.6243 19.4213 30.6949 19.7338 30.7545C20.0538 30.8065 20.4369 30.8437 20.8834 30.8661C21.3372 30.881 21.6981 30.8921 21.966 30.8996C22.2338 30.8996 22.6244 30.8996 23.1378 30.8996C23.6587 30.8921 23.9451 30.8884 23.9972 30.8884C24.0493 30.8884 24.332 30.8921 24.8454 30.8996C25.3663 30.8996 25.7606 30.8996 26.0285 30.8996C26.2963 30.8921 26.6535 30.881 27.0999 30.8661C27.5538 30.8437 27.9369 30.8065 28.2494 30.7545C28.5694 30.6949 28.8372 30.6243 29.053 30.5424C29.425 30.3936 29.7524 30.1778 30.0352 29.8951C30.3179 29.6124 30.5337 29.285 30.6825 28.9129C30.7643 28.6972 30.8313 28.433 30.8834 28.1205C30.9429 27.8006 30.9801 27.4174 30.995 26.971C31.0173 26.5171 31.0285 26.1562 31.0285 25.8884C31.0359 25.6205 31.0359 25.2299 31.0285 24.7165C31.0285 24.1957 31.0285 23.9092 31.0285 23.8571C31.0285 23.8051 31.0285 23.5223 31.0285 23.0089C31.0359 22.4881 31.0359 22.0937 31.0285 21.8259C31.0285 21.558 31.0173 21.2009 30.995 20.7545C30.9801 20.3006 30.9429 19.9174 30.8834 19.6049C30.8313 19.285 30.7643 19.0171 30.6825 18.8013C30.5337 18.4293 30.3179 18.1019 30.0352 17.8192C29.7524 17.5365 29.425 17.3207 29.053 17.1719C28.8372 17.09 28.5694 17.0231 28.2494 16.971C27.9369 16.9115 27.5538 16.8743 27.0999 16.8594C26.6535 16.8371 26.2963 16.8259 26.0285 16.8259C25.7606 16.8185 25.3663 16.8185 24.8454 16.8259ZM32.5128 20.3192C32.55 20.974 32.5686 22.1533 32.5686 23.8571C32.5686 25.561 32.55 26.7403 32.5128 27.3951C32.4384 28.9427 31.9771 30.1406 31.1289 30.9888C30.2807 31.8371 29.0828 32.2984 27.5352 32.3728C26.8804 32.41 25.7011 32.4286 23.9972 32.4286C22.2933 32.4286 21.114 32.41 20.4593 32.3728C18.9116 32.2984 17.7137 31.8371 16.8655 30.9888C16.0173 30.1406 15.556 28.9427 15.4816 27.3951C15.4444 26.7403 15.4258 25.561 15.4258 23.8571C15.4258 22.1533 15.4444 20.974 15.4816 20.3192C15.556 18.7716 16.0173 17.5737 16.8655 16.7254C17.7137 15.8772 18.9116 15.4159 20.4593 15.3415C21.114 15.3043 22.2933 15.2857 23.9972 15.2857C25.7011 15.2857 26.8804 15.3043 27.5352 15.3415C29.0828 15.4159 30.2807 15.8772 31.1289 16.7254C31.9771 17.5737 32.4384 18.7716 32.5128 20.3192Z" fill="white"/>
</svg>
