<svg width="35" height="34" viewBox="0 0 35 34" fill="none" xmlns="http://www.w3.org/2000/svg">
<path d="M0 17C0 8.44954 6.32962 1.35421 14.6285 0.00583058V3.25965C8.13525 4.56738 3.25077 10.2222 3.25077 17C3.25077 23.7778 8.13525 29.4326 14.6285 30.7403V33.9942C6.32962 32.6458 0 25.5505 0 17Z" fill="#3F3F3C"/>
<path d="M31.7492 17C31.7492 23.7903 26.8466 29.4536 20.3354 30.7476V34C28.652 32.6664 35 25.5629 35 17C35 8.43714 28.652 1.33363 20.3354 0V3.25242C26.8466 4.54642 31.7492 10.2097 31.7492 17Z" fill="#3F3F3C"/>
<path d="M11.9195 7.16988H24.5253V11.045H17.6987V14.778H22.8999V18.6532H17.6987V28.0033H11.9195V7.16988Z" fill="#3F3F3C"/>
</svg>
