<svg width="48" height="48" viewBox="0 0 48 48" fill="none" xmlns="http://www.w3.org/2000/svg">
<rect width="48" height="48" transform="matrix(1 0 0 -1 0 48)" fill="#3D3737"/>
<path d="M9.70378 35.2648V33.0363C9.70378 32.1966 9.16817 31.6313 8.30616 31.6239C7.85216 31.6165 7.3848 31.7574 7.0584 32.2559C6.81359 31.8628 6.42636 31.6239 5.88482 31.6239C5.50648 31.6239 5.13408 31.7352 4.84477 32.1521V31.7129H4.07178V35.2648H4.85219V33.296C4.85219 32.6788 5.19343 32.3524 5.72161 32.3524C6.23496 32.3524 6.49461 32.6862 6.49461 33.2886V35.2648H7.27501V33.296C7.27501 32.6788 7.63109 32.3524 8.14444 32.3524C8.67263 32.3524 8.92485 32.6862 8.92485 33.2886V35.2648H9.70378ZM21.2526 31.7129H19.99V30.6358H19.2096V31.7129H18.4886V32.4191H19.2096V34.0393C19.2096 34.8642 19.5286 35.3553 20.4426 35.3553C20.7764 35.3553 21.1636 35.2515 21.4084 35.0808L21.1859 34.4191C20.9559 34.5527 20.7022 34.6194 20.5019 34.6194C20.1161 34.6194 19.9886 34.382 19.9886 34.0245V32.4191H21.2512V31.7129H21.2526ZM27.8446 31.6239C27.398 31.6239 27.1087 31.8316 26.9084 32.1447V31.7129H26.1428V35.2648H26.9158V33.2737C26.9158 32.6862 27.168 32.3598 27.6739 32.3598C27.8297 32.3598 27.9929 32.382 28.1576 32.4488L28.395 31.7203C28.2229 31.6536 28.0004 31.6239 27.8446 31.6239ZM17.8788 31.9963C17.5079 31.7515 16.9945 31.6254 16.4292 31.6254C15.5301 31.6254 14.95 32.0556 14.95 32.7619C14.95 33.342 15.3803 33.6981 16.1755 33.8093L16.539 33.8613C16.9619 33.9206 17.1637 34.0319 17.1637 34.2322C17.1637 34.5067 16.8818 34.6639 16.3536 34.6639C15.818 34.6639 15.4322 34.4933 15.1726 34.293L14.8091 34.8954C15.2319 35.2069 15.7675 35.3568 16.3476 35.3568C17.3728 35.3568 17.9678 34.8731 17.9678 34.1981C17.9678 33.5734 17.499 33.247 16.7275 33.1357L16.364 33.0838C16.0301 33.0393 15.7616 32.9725 15.7616 32.7352C15.7616 32.4755 16.0138 32.3182 16.4381 32.3182C16.8921 32.3182 17.3298 32.4889 17.545 32.6224L17.8788 31.9963ZM38.5819 31.6239C38.1353 31.6239 37.846 31.8316 37.6457 32.1447V31.7129H36.8801V35.2648H37.6531V33.2737C37.6531 32.6862 37.9053 32.3598 38.4112 32.3598C38.567 32.3598 38.7302 32.382 38.8949 32.4488L39.1323 31.7203C38.9617 31.6536 38.7377 31.6239 38.5819 31.6239ZM28.625 33.4889C28.625 34.566 29.3757 35.3538 30.5196 35.3538C31.0552 35.3538 31.4113 35.2351 31.7971 34.9295L31.4261 34.3049C31.1368 34.5126 30.8312 34.6239 30.4974 34.6239C29.8802 34.6164 29.4276 34.1699 29.4276 33.4874C29.4276 32.8034 29.8816 32.3583 30.4974 32.3509C30.8312 32.3509 31.1368 32.4622 31.4261 32.6699L31.7971 32.0453C31.4113 31.7411 31.0537 31.6209 30.5196 31.6209C29.3742 31.6239 28.625 32.4117 28.625 33.4889ZM35.8623 33.4889V31.7129H35.0893V32.1447C34.8445 31.8257 34.4721 31.6239 33.9677 31.6239C32.9721 31.6239 32.1917 32.4043 32.1917 33.4889C32.1917 34.5734 32.9721 35.3538 33.9677 35.3538C34.4736 35.3538 34.8445 35.1535 35.0893 34.8331V35.2633H35.8623V33.4889ZM32.987 33.4889C32.987 32.8642 33.395 32.3524 34.0641 32.3524C34.7036 32.3524 35.1338 32.8435 35.1338 33.4889C35.1338 34.1343 34.7036 34.6254 34.0641 34.6254C33.395 34.6268 32.987 34.1135 32.987 33.4889ZM23.6606 31.6239C22.6206 31.6239 21.8921 32.382 21.8921 33.4889C21.8921 34.6179 22.6503 35.3538 23.7126 35.3538C24.2482 35.3538 24.7378 35.2203 25.1695 34.8553L24.7912 34.2826C24.4945 34.52 24.1146 34.6535 23.7586 34.6535C23.26 34.6535 22.8075 34.4236 22.6962 33.7841H25.3342C25.3416 33.6877 25.349 33.5912 25.349 33.4874C25.3401 32.382 24.6562 31.6239 23.6606 31.6239ZM23.6458 32.3153C24.1443 32.3153 24.4633 32.6269 24.5449 33.1773H22.7022C22.7838 32.6639 23.0954 32.3153 23.6458 32.3153ZM43.0329 33.4889V30.2871H42.2599V32.1447C42.0151 31.8257 41.6427 31.6239 41.1382 31.6239C40.1427 31.6239 39.3623 32.4043 39.3623 33.4889C39.3623 34.5734 40.1427 35.3538 41.1382 35.3538C41.6442 35.3538 42.0151 35.1535 42.2599 34.8331V35.2633H43.0329V33.4889ZM43.9364 34.9384C43.9676 34.9384 43.9973 34.9443 44.0254 34.9562C44.0536 34.9681 44.0774 34.9844 44.0981 35.0052C44.1189 35.0259 44.1352 35.0497 44.1471 35.0764C44.159 35.1031 44.1649 35.1328 44.1649 35.1639C44.1649 35.1951 44.159 35.2233 44.1471 35.2515C44.1352 35.2782 44.1189 35.3019 44.0981 35.3227C44.0774 35.3434 44.0536 35.3598 44.0254 35.3716C43.9973 35.3835 43.9676 35.3894 43.9364 35.3894C43.9038 35.3894 43.8741 35.3835 43.8459 35.3716C43.8177 35.3598 43.794 35.3434 43.7732 35.3227C43.7524 35.3019 43.7361 35.2782 43.7243 35.2515C43.7124 35.2248 43.7065 35.1951 43.7065 35.1639C43.7065 35.1328 43.7124 35.1031 43.7243 35.0764C43.7361 35.0482 43.7524 35.0245 43.7732 35.0052C43.794 34.9844 43.8177 34.9681 43.8459 34.9562C43.8741 34.9443 43.9038 34.9384 43.9364 34.9384ZM43.9364 35.339C43.9602 35.339 43.9839 35.3345 44.0047 35.3256C44.0254 35.3167 44.0447 35.3034 44.0596 35.2886C44.0759 35.2722 44.0878 35.2544 44.0967 35.2322C44.1056 35.2114 44.11 35.1877 44.11 35.1639C44.11 35.1402 44.1056 35.1164 44.0967 35.0957C44.0878 35.0749 44.0759 35.0556 44.0596 35.0393C44.0432 35.023 44.0254 35.0111 44.0047 35.0022C43.9839 34.9933 43.9616 34.9889 43.9364 34.9889C43.9112 34.9889 43.8889 34.9933 43.8667 35.0022C43.8444 35.0111 43.8266 35.023 43.8103 35.0393C43.794 35.0556 43.7821 35.0734 43.7732 35.0957C43.7643 35.1164 43.7599 35.1402 43.7599 35.1639C43.7599 35.1877 43.7643 35.2114 43.7732 35.2322C43.7821 35.2529 43.794 35.2722 43.8103 35.2886C43.8266 35.3049 43.8444 35.3167 43.8667 35.3256C43.8889 35.3345 43.9127 35.339 43.9364 35.339ZM43.9498 35.0571C43.9765 35.0571 43.9972 35.063 44.0121 35.0749C44.0269 35.0868 44.0343 35.1031 44.0343 35.1239C44.0343 35.1417 44.0284 35.155 44.0165 35.1669C44.0047 35.1788 43.9883 35.1847 43.9676 35.1877L44.0358 35.2663H43.9824L43.9186 35.1877H43.8978V35.2663H43.8533V35.0571H43.9498ZM43.8978 35.0972V35.1535H43.9498C43.9616 35.1535 43.9705 35.1506 43.978 35.1461C43.9854 35.1417 43.9884 35.1342 43.9884 35.1253C43.9884 35.1164 43.9854 35.109 43.978 35.1046C43.9705 35.1001 43.9616 35.0972 43.9498 35.0972H43.8978ZM40.1575 33.4889C40.1575 32.8642 40.5655 32.3524 41.2347 32.3524C41.8741 32.3524 42.3044 32.8435 42.3044 33.4889C42.3044 34.1343 41.8741 34.6254 41.2347 34.6254C40.567 34.6268 40.1575 34.1135 40.1575 33.4889ZM14.0598 33.4889V31.7129H13.2868V32.1447C13.042 31.8257 12.6696 31.6239 12.1652 31.6239C11.1696 31.6239 10.3892 32.4043 10.3892 33.4889C10.3892 34.5734 11.1696 35.3538 12.1652 35.3538C12.6711 35.3538 13.042 35.1535 13.2868 34.8331V35.2633H14.0598V33.4889ZM11.183 33.4889C11.183 32.8642 11.591 32.3524 12.2601 32.3524C12.8996 32.3524 13.3299 32.8435 13.3299 33.4889C13.3299 34.1343 12.8996 34.6254 12.2601 34.6254C11.5925 34.6268 11.183 34.1135 11.183 33.4889Z" fill="white"/>
<path d="M27.1129 12.7969H19.7573V26.0158H27.1129V12.7969Z" fill="#DEDEDE"/>
<path d="M20.2242 19.4063C20.2242 16.7256 21.4804 14.3368 23.4349 12.798C22.0058 11.6725 20.2008 11 18.2393 11C13.5972 11 9.83301 14.7642 9.83301 19.4063C9.83301 24.0485 13.5972 27.8126 18.2393 27.8126C20.2008 27.8126 22.0035 27.1401 23.4349 26.0146C21.4804 24.4758 20.2242 22.087 20.2242 19.4063Z" fill="white"/>
<path d="M37.0345 19.4063C37.0345 24.0485 33.2703 27.8126 28.6282 27.8126C26.6667 27.8126 24.864 27.1401 23.4326 26.0146C25.3871 24.4758 26.6434 22.087 26.6434 19.4063C26.6434 16.7256 25.3871 14.3368 23.4326 12.798C24.8617 11.6725 26.6667 11 28.6282 11C33.2727 11 37.0345 14.7642 37.0345 19.4063Z" fill="#B9B9B9"/>
<path d="M36.2336 24.616V24.3451H36.3433V24.2891H36.0654V24.3451H36.1728V24.616H36.2336ZM36.773 24.616V24.2891H36.6889L36.5908 24.5132L36.4928 24.2891H36.4064V24.616H36.4671V24.3708L36.5581 24.5833H36.6212L36.7122 24.3708V24.6183H36.773V24.616Z" fill="white"/>
</svg>
