<svg width="48" height="48" viewBox="0 0 48 48" fill="none" xmlns="http://www.w3.org/2000/svg">
<rect width="48" height="48" transform="matrix(1 0 0 -1 0 48)" fill="#F0F0F0"/>
<rect width="48" height="48" transform="matrix(1 0 0 -1 0 48)" fill="#3D3737"/>
<path fill-rule="evenodd" clip-rule="evenodd" d="M33.9264 28.9892C34.2588 29.465 34.2923 30.2148 33.9394 30.7959C33.6243 31.3149 31.7386 33.3065 31.125 33.9465C30.593 34.5024 29.875 35.0591 29.1684 35.0591H14.3723C12.3726 35.0591 12.252 34.3811 12.252 32.8483V26.6303C12.252 25.0648 12.714 24.6123 14.0795 24.6123H29.1684C29.875 24.6123 30.5039 24.973 31.2262 25.7075C31.8394 26.3308 33.6713 28.6232 33.9264 28.9892Z" fill="white"/>
<path fill-rule="evenodd" clip-rule="evenodd" d="M33.9264 28.9892C34.2588 29.465 34.2923 30.2148 33.9394 30.7959C33.6243 31.3149 31.7386 33.3065 31.125 33.9465C30.593 34.5024 29.875 35.0591 29.1684 35.0591H14.3723C12.3726 35.0591 12.252 34.3811 12.252 32.8483V26.6303C12.252 25.0648 12.714 24.6123 14.0795 24.6123H29.1684C29.875 24.6123 30.5039 24.973 31.2262 25.7075C31.8394 26.3308 33.6713 28.6232 33.9264 28.9892Z" fill="white"/>
<path fill-rule="evenodd" clip-rule="evenodd" d="M15.6063 27.0156V26.9747C15.6063 26.7748 15.5895 26.5772 15.2619 26.5772H14.0254C13.738 26.5772 13.7199 26.7361 13.7199 26.983V28.6263C14.3218 27.7656 14.9892 27.3657 15.6063 27.0156ZM23.9016 32.9534V32.8652H23.9024V28.9101C23.9024 27.2515 23.1733 26.4223 21.7151 26.4225C21.311 26.4187 20.9137 26.5273 20.5678 26.7361C20.2206 26.9453 19.8871 27.2376 19.5672 27.6128C19.41 27.205 19.1729 26.9047 18.8559 26.7118C18.5388 26.5189 18.1281 26.4225 17.6236 26.4225C17.0396 26.4225 16.3607 26.627 15.8796 27.0229C15.7719 27.1307 13.7196 28.746 13.7196 30.4051V32.9372C13.7196 33.0177 13.6807 33.3232 14.0231 33.3232H15.3104C15.7106 33.3232 15.6715 33.0612 15.6715 32.9534V28.8581C15.8888 28.5699 16.3328 27.858 17.0539 27.858C17.3307 27.858 17.53 27.9517 17.6519 28.139C17.7738 28.3264 17.8349 28.6405 17.8355 29.0814V32.28H17.8339V32.9373C17.8339 33.0178 17.7951 33.3233 18.1373 33.3233H19.4082C19.8086 33.3233 19.7696 33.0613 19.7696 32.9535V32.8653H19.7711V28.8583C20.0039 28.57 20.4678 27.8582 21.1531 27.8582C21.4351 27.8582 21.6384 27.9519 21.7632 28.1392C21.8879 28.3266 21.9502 28.6407 21.9501 29.0816V32.2802H21.9487V32.9374C21.9487 33.018 21.9101 33.3235 22.2525 33.3235H23.5402C23.9407 33.3233 23.9016 33.0612 23.9016 32.9534ZM30.9912 31.3454C30.5336 32.5768 29.4371 33.265 28.0785 33.265C26.1106 33.265 24.8108 31.924 24.8108 29.9129C24.8108 27.9259 26.1602 26.4857 28.0172 26.4857C29.8543 26.4857 31.0864 27.7651 31.1646 29.8259C31.1746 30.0893 31.0977 30.3219 30.7687 30.3219H26.593C26.6178 31.427 27.1506 32.0231 28.0911 32.0231C28.6648 32.0231 29.0046 31.7758 29.3006 31.291C29.4292 31.0801 29.693 31.0919 29.693 31.0919H30.7687C30.9443 31.0917 31.0221 31.2633 30.9912 31.3452V31.3454ZM28.0172 27.7643C27.2367 27.7643 26.6921 28.3105 26.593 29.205H29.391C29.3167 28.4226 28.8956 27.7643 28.0172 27.7643Z" fill="#3D3737"/>
<path fill-rule="evenodd" clip-rule="evenodd" d="M19.9375 13.2199C19.7721 12.9564 19.5575 12.7271 19.3055 12.5446C19.0535 12.3675 18.7767 12.2287 18.4841 12.1326C18.1591 12.0267 17.8234 11.957 17.4832 11.9246C17.0939 11.8863 16.703 11.8678 16.3119 11.8692H12.8842C12.576 11.8692 12.2529 12.0716 12.2529 12.4534V18.0115C12.6871 18.9379 13.5329 19.9213 14.4946 20.3913V19.289C14.4946 18.7073 14.9326 18.5774 15.1138 18.5774H16.1273C17.5233 18.5774 18.5888 18.2842 19.3238 17.6979C20.0588 17.1124 20.4262 16.2427 20.4262 15.0889C20.4283 14.7554 20.3897 14.423 20.3111 14.099C20.233 13.7883 20.1069 13.4918 19.9375 13.2199ZM17.9401 16.0744C17.8217 16.2798 17.6452 16.4456 17.4328 16.5509C17.2026 16.6607 16.9539 16.7266 16.6996 16.7451C16.4225 16.7698 16.1365 16.7822 15.8413 16.7822H14.8782C14.6426 16.7822 14.4946 16.5905 14.4946 16.3075V14.0351C14.4946 13.7803 14.6607 13.6734 14.8599 13.6734H15.8413C16.161 13.6734 16.4608 13.6826 16.7408 13.701C16.9927 13.7125 17.2401 13.7723 17.4696 13.877C17.6741 13.9744 17.8434 14.1328 17.9541 14.3304C18.0707 14.5337 18.129 14.8205 18.1291 15.1909C18.1291 15.567 18.0661 15.8615 17.9401 16.0744ZM14.4946 20.7505C13.4369 20.3279 12.7279 19.8238 12.2529 19.324V22.0072C12.2529 22.0072 12.2138 22.4448 12.6397 22.4448H14.1351C14.5453 22.4448 14.4947 22.0072 14.4947 22.0072V20.7505H14.4946ZM35.6875 14.7932H34.3454C34.0727 14.7932 33.893 14.9078 33.7848 15.2078C33.6766 15.5077 32.2541 19.4696 32.2541 19.4696C32.2541 19.4696 30.8933 15.5896 30.7862 15.2891C30.6791 14.9887 30.5033 14.7932 30.1865 14.7932H28.9533C28.5183 14.7932 28.5183 15.1349 28.5722 15.2704C28.616 15.3799 30.3047 20.0087 30.9479 21.772C31.0996 22.1884 31.1595 22.3136 31.1642 22.4678C31.1689 22.6221 31.0121 22.9459 30.9037 23.1317C30.854 23.2165 30.7968 23.2968 30.733 23.3716C31.9939 22.9941 33.4473 21.6242 34.1988 20.14C34.942 18.0717 35.922 15.3395 35.9645 15.1998C36.0329 14.9734 36.0322 14.7932 35.6875 14.7932ZM29.7614 23.7652C29.6448 23.7632 29.5285 23.7548 29.413 23.74C29.2715 23.7213 29.0068 23.7477 29.0068 23.9796V25.0158C29.0068 25.4113 29.1959 25.4377 29.3 25.4611C29.6132 25.5264 29.9325 25.5572 30.2524 25.5532C30.6764 25.5532 31.0453 25.476 31.3592 25.3218C31.6761 25.1649 31.9585 24.9463 32.1898 24.6788C32.4447 24.3809 32.6602 24.0514 32.8308 23.6983C33.0182 23.319 33.198 22.9011 33.3704 22.4447C33.3704 22.4447 33.4443 22.2385 33.566 21.9006C33.1958 22.2743 31.4509 23.9288 29.7614 23.7652ZM27.7459 16.0233C27.6731 15.8501 27.5736 15.6894 27.4511 15.5469C27.329 15.4102 27.1893 15.2904 27.0355 15.1905C26.8697 15.0827 26.6937 14.9913 26.5101 14.9176C26.3226 14.8444 26.1298 14.7857 25.9334 14.742C25.7101 14.6931 25.4835 14.6606 25.2554 14.6449C25.0091 14.6265 24.7323 14.6173 24.4249 14.6171C22.3918 14.6171 21.2341 15.2597 20.9518 16.5449C20.86 16.9437 21.2545 16.9671 21.2545 16.9671H22.5052C22.8318 16.9671 22.8177 16.8619 22.9762 16.5666C23.0332 16.406 23.1359 16.2654 23.2717 16.1622C23.5117 15.9773 23.8715 15.8849 24.351 15.8848C24.8124 15.8848 25.1476 15.9742 25.3566 16.1528C25.5656 16.3315 25.6886 16.6029 25.7256 16.9671C25.7256 17.3894 25.5939 17.6712 25.0834 17.6712C23.8388 17.626 22.5015 17.7668 21.7482 18.1986C20.995 18.6305 20.5691 19.4748 20.5691 20.3815C20.5691 20.7514 20.6352 21.0752 20.7675 21.353C20.8957 21.6254 21.0852 21.8644 21.3211 22.0514C21.5715 22.2467 21.8585 22.3898 22.1651 22.4724C22.5136 22.568 22.8736 22.6148 23.235 22.6115C23.7763 22.6115 24.2545 22.5436 24.6697 22.4078C25.0848 22.2723 25.7271 21.8255 25.8089 21.7603V21.9985C25.8089 22.2345 25.8808 22.445 26.1624 22.445H27.6169C27.9113 22.445 27.9767 22.2345 27.9767 21.9754V17.4947C27.9793 17.2161 27.9608 16.9378 27.9215 16.6621C27.8903 16.4426 27.8313 16.2279 27.7459 16.0233ZM25.7626 20.4165C25.7626 20.4165 25.387 21.1966 24.0466 21.1966C23.6778 21.1966 23.378 21.1134 23.1472 20.947C22.9164 20.7805 22.801 20.5214 22.8012 20.1697C22.8012 19.713 22.9888 19.3905 23.3641 19.2025C23.7391 19.0146 24.4897 18.9072 25.0523 18.9204C25.6148 18.9336 25.7626 19.289 25.7626 19.5344V20.4167V20.4165Z" fill="white"/>
</svg>
