<svg width="48" height="48" viewBox="0 0 48 48" fill="none" xmlns="http://www.w3.org/2000/svg">
<rect width="48" height="48" transform="matrix(1 0 0 -1 0 48)" fill="#3D3737"/>
<path d="M31.5818 26.8598H27.7799C27.7341 26.8598 27.6425 26.8598 27.5967 26.9057C27.5509 26.9515 27.5051 26.9515 27.4593 26.9973L26.589 27.8679C24.3445 26.6765 22.4206 24.9353 20.9548 22.8275C20.6342 22.3693 20.3593 21.9111 20.0845 21.4528L20.9548 20.5822C21.0006 20.5364 21.0464 20.4906 21.0464 20.4447C21.0922 20.3989 21.0922 20.3073 21.0922 20.2615V16.4582C21.0922 16.1833 20.909 16 20.6342 16H15.4581C15.1832 16 15 16.1833 15 16.4582C15 25.5768 22.4206 33 31.536 33C31.8109 33 31.9941 32.8167 31.9941 32.5418V27.3181C32.0399 27.0431 31.8109 26.8598 31.5818 26.8598ZM27.9173 27.7763H31.078V32.0377C28.9251 31.9919 26.9096 31.4879 25.0774 30.6173L27.9173 27.7763ZM15.9619 16.8248H20.2219V19.9865L17.3819 22.8275C16.5116 21.0404 16.0077 18.9784 15.9619 16.8248ZM17.7942 23.7439L19.4432 22.0943C19.6722 22.5067 19.9471 22.9191 20.2219 23.3315C21.6877 25.4394 23.6574 27.2264 25.9019 28.5094L24.2529 30.159C21.5045 28.7385 19.2142 26.4474 17.7942 23.7439Z" fill="white"/>
</svg>
