<svg width="48" height="48" viewBox="0 0 48 48" fill="none" xmlns="http://www.w3.org/2000/svg">
<rect width="48" height="48" transform="matrix(1 0 0 -1 0 48)" fill="#3D3737"/>
<path d="M27.2701 28.4442L28.9107 20.7098C28.9777 20.3824 28.9368 20.1481 28.7879 20.0067C28.6466 19.8653 28.4568 19.8393 28.2188 19.9286L18.5759 23.6451C18.3601 23.7269 18.2113 23.8199 18.1295 23.9241C18.0551 24.0283 18.0476 24.1287 18.1071 24.2254C18.1667 24.3147 18.2857 24.3854 18.4643 24.4375L20.9308 25.2076L26.6562 21.6027C26.8125 21.4985 26.9315 21.4762 27.0134 21.5357C27.0655 21.5729 27.0506 21.6287 26.9688 21.7031L22.3371 25.8884L22.1585 28.433C22.3296 28.433 22.497 28.3512 22.6607 28.1875L23.8661 27.0268L26.3661 28.8683C26.8423 29.1362 27.1436 28.9948 27.2701 28.4442ZM33.2076 19.9732C33.7359 21.2083 34 22.503 34 23.8571C34 25.2113 33.7359 26.506 33.2076 27.7411C32.6793 28.9762 31.9688 30.0402 31.0759 30.933C30.183 31.8259 29.119 32.5365 27.8839 33.0647C26.6488 33.593 25.3542 33.8571 24 33.8571C22.6458 33.8571 21.3512 33.593 20.1161 33.0647C18.881 32.5365 17.817 31.8259 16.9241 30.933C16.0313 30.0402 15.3207 28.9762 14.7924 27.7411C14.2641 26.506 14 25.2113 14 23.8571C14 22.503 14.2641 21.2083 14.7924 19.9732C15.3207 18.7381 16.0313 17.6741 16.9241 16.7812C17.817 15.8884 18.881 15.1778 20.1161 14.6496C21.3512 14.1213 22.6458 13.8571 24 13.8571C25.3542 13.8571 26.6488 14.1213 27.8839 14.6496C29.119 15.1778 30.183 15.8884 31.0759 16.7812C31.9688 17.6741 32.6793 18.7381 33.2076 19.9732Z" fill="white"/>
</svg>
