<svg width="48" height="48" viewBox="0 0 48 48" fill="none" xmlns="http://www.w3.org/2000/svg">
<rect width="48" height="48" transform="matrix(1 0 0 -1 0 48)" fill="#3D3737"/>
<path d="M21.0878 30.3313H17.6787L19.8125 17.2344H23.2216L21.0878 30.3313Z" fill="white"/>
<path d="M14.8092 17.234L11.5577 26.242L11.1723 24.301L10.0231 18.4112C10.0231 18.4112 9.88296 17.2305 8.40439 17.2305H3.0367L2.97363 17.4512C2.97363 17.4512 4.61688 17.7946 6.54041 18.9473L9.50456 30.3274H13.0538L18.4811 17.234H14.8092Z" fill="white"/>
<path d="M41.6334 30.3313H44.7657L42.0328 17.2344H39.2894C38.0245 17.2344 37.7162 18.2119 37.7162 18.2119L32.6323 30.3348H36.1851L36.8963 28.3902H41.2304L41.6334 30.3313ZM37.8809 25.6994L39.6713 20.7977L40.6804 25.6994H37.8809Z" fill="white"/>
<path d="M32.8987 20.3846L33.3858 17.5711C33.3858 17.5711 31.8827 17 30.32 17C28.6277 17 24.6089 17.7393 24.6089 21.3376C24.6089 24.7222 29.3249 24.7642 29.3249 26.5406C29.3249 28.317 25.096 28.0017 23.698 26.8805L23.1899 29.8201C23.1899 29.8201 24.7141 30.5594 27.0405 30.5594C29.367 30.5594 32.8777 29.3541 32.8777 26.0746C32.8777 22.669 28.1197 22.3502 28.1197 20.8716C28.1197 19.3895 31.4412 19.5787 32.8987 20.3846Z" fill="white"/>
<path d="M11.1758 24.301L10.0266 18.4112C10.0266 18.4112 9.88646 17.2305 8.40789 17.2305H3.0367L2.97363 17.4512C2.97363 17.4512 5.55587 17.9873 8.0365 19.9914C10.4015 21.9114 11.1758 24.301 11.1758 24.301Z" fill="white"/>
</svg>
