<svg width="16" height="15" viewBox="0 0 16 15" fill="none" xmlns="http://www.w3.org/2000/svg">
<path fill-rule="evenodd" clip-rule="evenodd" d="M6 2.5C6 3.32843 5.32843 4 4.5 4C3.67157 4 3 3.32843 3 2.5C3 1.67157 3.67157 1 4.5 1C5.32843 1 6 1.67157 6 2.5ZM6.79198 3.5C6.4062 4.38295 5.52516 5 4.5 5C3.47484 5 2.5938 4.38295 2.20802 3.5H0.75C0.335785 3.5 0 3.16422 0 2.75C0 2.33578 0.335785 2 0.75 2H2.05C2.28165 0.858887 3.29053 0 4.5 0C5.70947 0 6.71835 0.858887 6.95 2H15.25C15.6642 2 16 2.33578 16 2.75C16 3.16422 15.6642 3.5 15.25 3.5H6.79198ZM11.5 15C12.638 15 13.5984 14.2396 13.9009 13.1992H15.25C15.6642 13.1992 16 12.8634 16 12.4492C16 12.035 15.6642 11.6992 15.25 11.6992H13.869C13.5352 10.7113 12.6006 10 11.5 10C10.3994 10 9.46484 10.7113 9.131 11.6992H0.75C0.335785 11.6992 0 12.035 0 12.4492C0 12.8634 0.335785 13.1992 0.75 13.1992H9.09909C9.40158 14.2396 10.362 15 11.5 15ZM11.5 14C12.3284 14 13 13.3284 13 12.5C13 11.6716 12.3284 11 11.5 11C10.6716 11 10 11.6716 10 12.5C10 13.3284 10.6716 14 11.5 14ZM0.75 6.84961C0.335785 6.84961 0 7.18539 0 7.59961C0 8.01382 0.335785 8.34961 0.75 8.34961H15.25C15.6642 8.34961 16 8.01382 16 7.59961C16 7.18539 15.6642 6.84961 15.25 6.84961H0.75Z" fill="black"/>
</svg>
