<svg width="19" height="10" viewBox="0 0 19 10" fill="none" xmlns="http://www.w3.org/2000/svg">
<path d="M5.09629 5.82942C5.21212 5.94525 5.36656 6.00317 5.5017 6.00317C5.65614 6.00317 5.79127 5.94525 5.9071 5.82942C6.13876 5.59776 6.13876 5.23097 5.9071 4.99931L5.1349 4.22711H13.2044L12.4322 4.99931C12.2005 5.23097 12.2005 5.59776 12.4322 5.82942C12.6639 6.06108 13.0307 6.06108 13.2623 5.82942L15.0384 4.05336C15.27 3.8217 15.27 3.4549 15.0384 3.22324L13.2623 1.44718C13.1465 1.33135 12.992 1.27344 12.8569 1.27344C12.7025 1.27344 12.5673 1.33135 12.4515 1.44718C12.2198 1.67884 12.2198 2.04564 12.4515 2.2773L13.2237 3.0495H5.15421L5.92641 2.2773C6.15807 2.04564 6.15807 1.67884 5.92641 1.44718C5.69475 1.21552 5.32795 1.21552 5.09629 1.44718L3.32023 3.22324C3.08857 3.4549 3.08857 3.8217 3.32023 4.05336L5.09629 5.82942Z" fill="#9E9E9E"/>
<path d="M18.0888 0H17.4131C17.278 0 17.1622 0.11583 17.1622 0.250965V8.82239H15.4633V6.73745C15.4633 6.60232 15.3475 6.48649 15.2124 6.48649H14.5367C14.4015 6.48649 14.2857 6.60232 14.2857 6.73745V8.82239H12.5869V7.56757C12.5869 7.43243 12.471 7.3166 12.3359 7.3166H11.6602C11.5251 7.3166 11.4093 7.43243 11.4093 7.56757V8.82239H9.74903V7.56757C9.74903 7.43243 9.6332 7.3166 9.49807 7.3166H8.82239C8.68726 7.3166 8.57143 7.43243 8.57143 7.56757V8.82239H6.87259V7.56757C6.87259 7.43243 6.75676 7.3166 6.62162 7.3166H5.94595C5.81081 7.3166 5.69498 7.43243 5.69498 7.56757V8.82239H3.99614V6.73745C3.99614 6.60232 3.88031 6.48649 3.74517 6.48649H3.0695C2.93436 6.48649 2.81853 6.60232 2.81853 6.73745V8.82239H1.1583V0.250965C1.1583 0.11583 1.04247 0 0.907336 0H0.250965C0.11583 0 0 0.11583 0 0.250965V9.74903C0 9.88417 0.11583 10 0.250965 10H18.0888C18.2239 10 18.3398 9.88417 18.3398 9.74903V0.250965C18.3398 0.11583 18.2239 0 18.0888 0Z" fill="#9E9E9E"/>
</svg>
