<svg width="30" height="30" viewBox="0 0 30 30" fill="none" xmlns="http://www.w3.org/2000/svg">
<path d="M15 28.5C22.4558 28.5 28.5 22.4558 28.5 15C28.5 7.54416 22.4558 1.5 15 1.5C7.54416 1.5 1.5 7.54416 1.5 15C1.5 22.4558 7.54416 28.5 15 28.5Z" stroke="black" stroke-width="1.5" stroke-linecap="round" stroke-linejoin="round"/>
<path d="M19.2 10.5C18.9283 10.0286 18.5335 9.64004 18.0579 9.37582C17.5823 9.1116 17.0438 8.98168 16.5 8.99999H13.5C12.7044 8.99999 11.9413 9.31606 11.3787 9.87867C10.8161 10.4413 10.5 11.2043 10.5 12C10.5 12.7956 10.8161 13.5587 11.3787 14.1213C11.9413 14.6839 12.7044 15 13.5 15H16.5C17.2956 15 18.0587 15.3161 18.6213 15.8787C19.1839 16.4413 19.5 17.2043 19.5 18C19.5 18.7956 19.1839 19.5587 18.6213 20.1213C18.0587 20.6839 17.2956 21 16.5 21H13.5C12.9562 21.0183 12.4177 20.8884 11.9421 20.6242C11.4665 20.3599 11.0717 19.9713 10.8 19.5" stroke="black" stroke-width="1.5" stroke-linecap="round" stroke-linejoin="round"/>
<path d="M15 21V24M15 6V9V6Z" stroke="black" stroke-width="1.5" stroke-linecap="round" stroke-linejoin="round"/>
</svg>
