<svg width="50" height="14" viewBox="0 0 50 14" fill="none" xmlns="http://www.w3.org/2000/svg">
<path d="M46.7098 10.0645H49.673V9.09277H46.7095C46.8213 9.40686 46.8213 9.75043 46.7095 10.0645" fill="#1D1D1B"/>
<path d="M20.4259 3.93547H17.9648V10.0633H20.2523C21.7274 10.0633 22.3088 9.38924 22.3088 8.23367C22.3088 7.20906 21.5625 6.85881 21.5625 6.85881C21.7621 6.72253 21.9253 6.53849 22.0373 6.32313C22.1494 6.10776 22.2068 5.86776 22.2046 5.62453C22.2046 4.59121 21.6318 3.93457 20.4259 3.93457V3.93547ZM20.5211 4.90631C20.9811 4.90631 21.2058 5.20399 21.2058 5.64195C21.2058 6.14089 20.8846 6.40373 20.4161 6.40373H18.9713V4.90781L20.5211 4.90631ZM18.9713 7.36676H20.4169C21.0939 7.36676 21.285 7.76927 21.285 8.23367C21.285 8.81131 21.0766 9.09156 20.2872 9.09156H18.9713V7.36676ZM26.7066 3.93547H25.6912V10.0633H26.7066V3.93547ZM30.7594 3.93547V10.0633H34.6866V9.09307H31.7746V3.93547H30.7594ZM38.0142 3.93547V10.0633H41.9414V9.09307H39.0279V3.93547H38.0142Z" fill="#1D1D1B"/>
<path d="M48.2562 4.80098L48.1758 4.90701L45.318 8.65851C45.1417 8.66824 44.9719 8.72935 44.8294 8.83445C44.6868 8.93955 44.5775 9.08412 44.5147 9.25064C44.4519 9.41716 44.4384 9.59848 44.4757 9.77262C44.513 9.94677 44.5995 10.1063 44.7248 10.2318C44.8501 10.3573 45.0088 10.4434 45.1817 10.4797C45.3546 10.5161 45.5341 10.501 45.6987 10.4364C45.8633 10.3718 46.0057 10.2605 46.1088 10.1158C46.2119 9.97121 46.2712 9.7995 46.2795 9.62154C46.2875 9.46585 46.2557 9.31071 46.1872 9.17096L46.5215 8.73421L49.1204 5.33987C49.3156 5.33239 49.5032 5.26187 49.6556 5.13868C49.8081 5.0155 49.9173 4.84617 49.9671 4.65564C50.017 4.46511 50.0049 4.26345 49.9327 4.08038C49.8604 3.89731 49.7317 3.74249 49.5657 3.63875C49.3997 3.53501 49.205 3.48782 49.0104 3.50414C48.8157 3.52045 48.6314 3.59941 48.4846 3.72938C48.3378 3.85935 48.2363 4.03346 48.1949 4.22606C48.1536 4.41866 48.1747 4.61956 48.255 4.79918" fill="#1D1D1B"/>
<path d="M47.7462 3.93457H44.8726V4.90631H47.7462C47.6345 4.5922 47.6345 4.24869 47.7462 3.93457Z" fill="#1D1D1B"/>
<path d="M9.39163 0H4.48296C2.00709 0 0 2.02523 0 4.52348V9.47652C0 11.9748 2.00709 14 4.48296 14H9.39163C11.8675 14 13.8746 11.9748 13.8746 9.47652V4.52348C13.8746 2.02523 11.8675 0 9.39163 0Z" fill="#0065FF"/>
<path d="M7.97826 4.77594L7.89669 4.88317L5.00549 8.68003C4.8075 8.69112 4.61832 8.76626 4.46596 8.89433C4.31361 9.0224 4.20618 9.19658 4.15961 9.39107C4.11303 9.58556 4.12978 9.79001 4.20737 9.97415C4.28496 10.1583 4.41926 10.3123 4.59039 10.4134C4.76151 10.5145 4.96036 10.5573 5.15746 10.5354C5.35457 10.5135 5.53946 10.4282 5.68474 10.292C5.83002 10.1558 5.92797 9.97607 5.96407 9.77932C6.00017 9.58258 5.97251 9.37933 5.88518 9.19969L6.22187 8.75633L8.85199 5.32174C9.04973 5.31452 9.23994 5.24336 9.39455 5.11876C9.54916 4.99416 9.65999 4.82272 9.71069 4.62973C9.76138 4.43673 9.74926 4.2324 9.6761 4.04689C9.60295 3.86138 9.47264 3.7045 9.3044 3.5994C9.13616 3.49431 8.9389 3.44656 8.74172 3.4632C8.54454 3.47984 8.35787 3.55999 8.20927 3.69183C8.06067 3.82367 7.958 4.00021 7.91641 4.1954C7.87481 4.3906 7.8965 4.59412 7.97826 4.77594ZM7.46236 3.89972H4.55478V4.88317H7.46295C7.35008 4.56525 7.35008 4.21764 7.46295 3.89972H7.46236ZM6.41299 10.1011H9.41195V9.11769H6.41269C6.52574 9.43559 6.52574 9.78325 6.41269 10.1011H6.41299Z" fill="white"/>
</svg>
