<svg width="48" height="49" viewBox="0 0 48 49" fill="none" xmlns="http://www.w3.org/2000/svg">
<rect width="48" height="48" transform="matrix(1 0 0 -1 0 48.0117)" fill="#F0F0F0"/>
<rect width="48" height="48" transform="matrix(1 0 0 -1 0 48.0117)" fill="#F0F0F0"/>
<path d="M10.728 29.2656C10.481 29.2643 10.2355 29.2264 9.99935 29.1533C9.74037 29.073 9.49005 28.9665 9.25218 28.8356C8.92689 28.6665 8.61614 28.4703 8.32317 28.249C8.05948 28.0403 7.81025 27.8135 7.57724 27.5703C7.26162 27.2514 6.96721 26.9251 6.7251 26.6254C6.45733 26.3064 6.22613 25.9578 6.0359 25.5863L6.01982 25.5523V25.5513L6.01611 25.5434V25.5416V25.5398L5.99737 25.4993L5.99614 25.4966L5.9949 25.4939L5.97723 25.4548L5.97493 25.4498V25.4484L5.96185 25.4191L5.95779 25.41L5.95478 25.403L5.95231 25.3975V25.3964L5.9387 25.3652L5.93729 25.3616L5.93358 25.3582L5.9175 25.3203L5.91485 25.3141L5.89912 25.2757L5.89806 25.2732L5.897 25.2707L5.88215 25.2332L5.88039 25.2287L5.86607 25.1917V25.1905L5.86413 25.1855L5.85052 25.1498L5.84928 25.1462L5.84769 25.1421C5.84345 25.1307 5.83939 25.1192 5.83515 25.1074V25.1051L5.83267 25.0982C5.8279 25.0849 5.82419 25.074 5.82083 25.0644V25.0623L5.81818 25.0542L5.8044 25.0189L5.80104 25.0085L5.79026 24.9756L5.78849 24.9705L5.78708 24.9653C5.78319 24.9531 5.78001 24.9426 5.777 24.9329L5.774 24.9228L5.76534 24.8938L5.76375 24.8883V24.8872L5.76198 24.881L5.75315 24.8524L5.75173 24.8476L5.75032 24.8403C5.74732 24.829 5.74467 24.8192 5.74219 24.8099L5.74042 24.8045L5.73883 24.7986C5.73654 24.7895 5.73389 24.7797 5.73123 24.7686L5.72858 24.7579V24.7554C5.72664 24.7474 5.72399 24.7376 5.72152 24.7261L5.7178 24.712C5.71568 24.7033 5.71356 24.6942 5.71127 24.6831L5.70985 24.6763L5.70826 24.6692C5.70614 24.6595 5.7042 24.6499 5.70225 24.6404L5.70013 24.6272C5.69872 24.6204 5.69748 24.6136 5.69607 24.6068V24.6032V24.6002V24.5991L5.69342 24.5849V24.5831L5.68971 24.5622C5.68847 24.5556 5.68741 24.549 5.68635 24.5423L5.68281 24.5206C5.68175 24.5143 5.68087 24.5081 5.67981 24.5027C5.67875 24.4973 5.67751 24.4872 5.67628 24.4793L5.67521 24.4716L5.67415 24.4639C5.67292 24.4548 5.67168 24.4461 5.67062 24.437L5.66656 24.423V24.4205C5.66479 24.4102 5.66479 24.4016 5.66302 24.3937C5.66302 24.3889 5.66196 24.3841 5.66143 24.3793V24.3775C5.66055 24.3689 5.65966 24.3596 5.65878 24.3511C5.65878 24.3461 5.6579 24.3409 5.65737 24.3359V24.3348C5.65666 24.3274 5.65601 24.32 5.65542 24.3127C5.65542 24.3061 5.65436 24.2996 5.65401 24.293C5.65366 24.2864 5.65313 24.28 5.65259 24.2736C5.65259 24.2662 5.65171 24.2589 5.65136 24.2514C5.651 24.2439 5.65136 24.2391 5.6503 24.2335C5.64924 24.228 5.6503 24.2187 5.64941 24.2114V24.2103C5.64941 24.2041 5.64941 24.1978 5.64941 24.1916C5.64941 24.1853 5.64941 24.1817 5.64941 24.1769V24.1698C5.64941 24.163 5.64941 24.156 5.64941 24.1492C5.64941 24.1425 5.64941 24.1382 5.64941 24.1326V24.091C5.64941 24.0824 5.64941 24.0739 5.64941 24.0653C5.64941 24.0592 5.64941 24.0532 5.64941 24.0474C5.64941 24.0417 5.64941 24.0323 5.64941 24.0246C5.64941 24.0203 5.64941 24.0162 5.64941 24.0119V24.0056C5.64941 23.996 5.64941 23.9878 5.65065 23.9796C5.65065 23.9748 5.65065 23.9697 5.65065 23.9649C5.65065 23.9571 5.65153 23.9487 5.65224 23.9387C5.65224 23.934 5.65224 23.9292 5.6533 23.9246C5.6533 23.9156 5.65472 23.9067 5.65542 23.8978V23.889V23.8828C5.65625 23.8738 5.65713 23.8649 5.65807 23.856L5.65949 23.8419V23.839C5.65949 23.831 5.66125 23.8222 5.66267 23.8119C5.66267 23.8087 5.66267 23.8054 5.6639 23.8022V23.7976V23.7958C5.66497 23.7869 5.6662 23.7779 5.66744 23.769L5.66921 23.7563C5.67062 23.7467 5.67203 23.737 5.67345 23.7276L5.67521 23.7169V23.7152C5.67663 23.7063 5.67822 23.6965 5.68016 23.6852L5.68228 23.6727C5.68405 23.6624 5.68599 23.6518 5.68794 23.6413L5.68953 23.6331V23.6286C5.69147 23.6183 5.69359 23.6075 5.69571 23.5972L5.69748 23.5883V23.5867C5.6996 23.5763 5.7019 23.5656 5.7042 23.555V23.5516L5.70561 23.545C5.70773 23.5352 5.71021 23.5249 5.71303 23.5127L5.71533 23.5032C5.7178 23.4931 5.72045 23.482 5.72381 23.4684L5.72505 23.4636L5.72611 23.4597C5.72911 23.4477 5.7323 23.4356 5.73583 23.4223L5.73671 23.4189L5.73777 23.4152C5.74131 23.4022 5.74449 23.3905 5.74749 23.3795L5.74979 23.3713C5.75279 23.3607 5.75651 23.3482 5.76022 23.3355V23.3341L5.76216 23.3277C5.76605 23.3148 5.76994 23.3023 5.77347 23.2909L5.77541 23.2846C5.7793 23.2723 5.78354 23.2591 5.78849 23.2441L5.78955 23.2407V23.2395C5.79397 23.2259 5.79874 23.2121 5.80298 23.1994L5.8051 23.1936C5.80952 23.1805 5.81429 23.1673 5.81871 23.155L5.81977 23.1521L5.82083 23.1493C5.82631 23.1343 5.8309 23.1219 5.83515 23.1101L5.83691 23.1053C5.84204 23.0919 5.84734 23.078 5.85282 23.0639L5.85388 23.0612C5.85918 23.0475 5.86501 23.033 5.87155 23.0169L5.87279 23.0139C5.87879 22.9991 5.88445 22.9851 5.89046 22.9715L5.8924 22.9669C5.89753 22.9546 5.90318 22.9414 5.91007 22.9255L5.91219 22.9206C5.9175 22.9085 5.92333 22.8949 5.93093 22.8781L5.93252 22.8746C5.94047 22.8567 5.94719 22.8421 5.95337 22.8287C6.32165 22.0285 6.87231 21.4713 7.40582 20.9326L7.41642 20.9219C7.72674 20.6083 8.01638 20.3406 8.30179 20.1036C8.6282 19.8296 8.976 19.5827 9.34177 19.3654C9.54511 19.2431 9.7633 19.148 9.99086 19.0825C10.1859 19.028 10.3873 19.0003 10.5896 19C10.8617 19.002 11.1316 19.0484 11.3891 19.1375C11.6354 19.2226 11.8738 19.3295 12.1014 19.457C12.465 19.6544 12.8139 19.8784 13.1451 20.1272C13.4569 20.3619 13.7515 20.6191 14.0266 20.8967C14.3137 21.1903 14.5766 21.5072 14.8125 21.8442C15.0329 22.1451 15.2148 22.4729 15.3539 22.8199C15.4446 23.0626 15.5217 23.3102 15.5847 23.5616C15.6397 23.7802 15.6706 24.0042 15.677 24.2296C15.6813 24.4505 15.6548 24.6709 15.5983 24.8844C15.5317 25.1286 15.4371 25.3641 15.3165 25.5861C15.1446 25.9119 14.9434 26.221 14.7156 26.5096C14.4887 26.7929 14.2459 27.0628 13.9882 27.3178C13.7099 27.599 13.4167 27.8648 13.1099 28.114C12.7889 28.3753 12.4521 28.6163 12.1016 28.8356C11.6933 29.1077 11.2169 29.2568 10.728 29.2656ZM11.4799 28.1279C11.276 28.2492 11.0557 28.34 10.826 28.3973C11.0557 28.34 11.276 28.2492 11.4799 28.1279ZM8.47992 27.7182C8.5013 27.7329 8.52339 27.7477 8.54548 27.7622C8.52109 27.7461 8.49971 27.7316 8.47992 27.7182ZM7.73381 27.089L7.77145 27.126L7.73381 27.089ZM8.09379 23.4929L8.08212 23.5184V23.5204L8.0717 23.544L8.07064 23.5466L8.06074 23.5697V23.5709V23.5722L8.05102 23.5958V23.5974L8.0413 23.6218V23.6229L8.03247 23.6459V23.6476V23.649L8.02451 23.6706L8.02345 23.6733L8.01585 23.6947V23.6965V23.6979C8.01338 23.7047 8.01108 23.712 8.00843 23.7201V23.7219C8.00543 23.731 8.00313 23.7377 8.00119 23.7444L8.00013 23.7477L7.99394 23.7683L7.9927 23.7726C7.9907 23.7791 7.98876 23.7857 7.98687 23.7922V23.7945V23.7969L7.98139 23.8165L7.97238 23.8222L7.97132 23.8265L7.96708 23.8426L7.96584 23.8474C7.96425 23.8538 7.96266 23.8603 7.96107 23.8667L7.95983 23.8719L7.95577 23.8897L7.95471 23.8947L7.9533 23.9015L7.951 23.9124V23.9153V23.9183L7.94799 23.9331V23.936L7.94446 23.9453L7.94234 23.9567L7.94128 23.9628V23.9655V23.9692C7.9404 23.9748 7.93951 23.9801 7.93863 23.9856L7.93757 23.9924L7.93527 24.0085L7.93421 24.0153C7.93421 24.0207 7.9328 24.0258 7.93209 24.0312V24.0353V24.0394C7.93209 24.0444 7.93085 24.0494 7.93032 24.0544V24.0594V24.0639V24.0687C7.93032 24.0721 7.93032 24.0755 7.92944 24.0787V24.0871V24.0916C7.92944 24.0949 7.92944 24.0985 7.92944 24.1019C7.92944 24.1053 7.92944 24.1071 7.92944 24.1098C7.92944 24.1125 7.92944 24.1191 7.92856 24.1237C7.92856 24.1255 7.92856 24.1273 7.92856 24.1292V24.1325C7.92856 24.1371 7.92856 24.1417 7.92856 24.1466C7.92856 24.1514 7.92856 24.1534 7.92856 24.1567C7.92856 24.1607 7.92856 24.1648 7.92856 24.1687V24.18C7.92856 24.1844 7.92856 24.1889 7.92856 24.1934V24.2257C7.92856 24.2294 7.92856 24.2334 7.92856 24.2371C7.92856 24.2409 7.92856 24.2452 7.92856 24.2493V24.2596C7.92856 24.2639 7.92856 24.2682 7.92856 24.2725V24.2777V24.2828C7.92856 24.2857 7.92856 24.2884 7.92856 24.2912V24.2955V24.3011V24.3064C7.92856 24.31 7.92856 24.3137 7.92856 24.3173V24.3234V24.33V24.3382C7.92856 24.343 7.92944 24.3478 7.92997 24.3527C7.92997 24.3546 7.92997 24.3564 7.92997 24.3584V24.3616C7.92997 24.3666 7.93103 24.3714 7.93174 24.3762V24.38V24.385L7.9328 24.3925L7.93368 24.3993L7.93492 24.4079V24.4121L7.93615 24.4204V24.4246V24.4298L7.93721 24.4359V24.4411V24.4463L7.93827 24.4522L7.94057 24.4643V24.4677L7.94181 24.4745V24.4779L7.94358 24.4872L7.94499 24.4939C7.94605 24.4993 7.94717 24.5046 7.94835 24.5098L7.94994 24.5175L7.95241 24.5284L7.95347 24.5334V24.5372V24.5406L7.95718 24.5563L7.95895 24.5636C7.96054 24.57 7.96196 24.5754 7.96319 24.5802L7.96496 24.587L7.96938 24.6032L7.97026 24.6065L7.97114 24.6097C7.97256 24.615 7.97415 24.6202 7.97556 24.6256L7.97751 24.6325L7.98228 24.6488L7.98316 24.6518V24.6545L7.98864 24.6724V24.675V24.6779L7.99147 24.6865L7.99447 24.6956L7.99571 24.6992V24.7013L8.0003 24.7151L8.00172 24.7192L8.00366 24.7247V24.7272L8.00914 24.7429L8.01091 24.7481L8.01798 24.7674L8.01904 24.7701V24.7718L8.02663 24.792L8.02805 24.7956L8.036 24.8161L8.03706 24.8186L8.04413 24.8365L8.04537 24.8395V24.8408V24.8424C8.04819 24.8494 8.0512 24.8565 8.0542 24.8636L8.05526 24.8663L8.0641 24.8874L8.06534 24.8904L8.07223 24.9063L8.07417 24.9108L8.07594 24.9147L8.0853 24.936V24.9372L8.08637 24.9396L8.09626 24.9613V24.9631V24.9644L8.09909 24.9705L8.10669 24.9871V24.9881L8.1104 24.9958L8.11782 25.0117C8.34857 25.4192 8.63675 25.7906 8.97332 26.1142C9.24037 26.4017 9.55529 26.6395 9.90374 26.8168C10.153 26.9644 10.4348 27.0465 10.7235 27.0556C10.9952 27.0508 11.2598 26.9679 11.4866 26.8168C11.8667 26.5772 12.2183 26.2944 12.5346 25.9738C12.8285 25.6939 13.0775 25.3693 13.2725 25.0119C13.5623 24.4639 13.5069 24.0653 13.2934 23.4759C13.1203 23.0829 12.8766 22.7259 12.5745 22.4229C12.2585 22.105 11.8983 21.8356 11.5052 21.6231C11.2505 21.4697 10.9621 21.3825 10.6659 21.3693C10.4226 21.3719 10.1844 21.441 9.97673 21.5692C9.5842 21.8087 9.22461 22.0994 8.90722 22.4338L8.90157 22.4395C8.57128 22.7381 8.29776 23.0952 8.09449 23.4932L8.09379 23.4929ZM7.61983 26.9756L7.68539 27.0413L7.61983 26.9756ZM13.3748 26.5845C13.3234 26.638 13.2688 26.6941 13.2107 26.7531C13.1426 26.8218 13.0728 26.8902 13.002 26.9576C13.0727 26.8902 13.1433 26.8218 13.2107 26.7531C13.2692 26.6938 13.3236 26.6377 13.3748 26.5841V26.5845ZM14.4076 25.1685C14.3952 25.193 14.3825 25.2178 14.3694 25.2426C14.284 25.4046 14.1902 25.5618 14.0884 25.7138C14.1902 25.5618 14.284 25.4046 14.3694 25.2426C14.3827 25.2175 14.3947 25.1926 14.4078 25.168L14.4076 25.1685ZM14.5246 23.1912C14.5885 23.3902 14.6354 23.5943 14.6647 23.8013C14.6358 23.594 14.5889 23.3897 14.5246 23.1907V23.1912ZM12.9737 20.8932C13.0667 20.9775 13.1568 21.0639 13.2443 21.1523C13.4948 21.4084 13.7241 21.6849 13.9299 21.9789C14.0193 22.1068 14.1001 22.232 14.1699 22.3513C13.9103 21.9153 13.5995 21.5128 13.2443 21.1523C13.1571 21.0636 13.0669 20.9772 12.9737 20.8932ZM11.3626 19.7908C11.4271 19.8223 11.4933 19.8566 11.5649 19.8955C11.7634 20.0027 11.9586 20.1213 12.1451 20.2457C11.959 20.1207 11.7637 20.0036 11.5651 19.8955C11.4933 19.8573 11.4272 19.8216 11.3626 19.7908ZM8.21254 24.712C8.17922 24.6336 8.15112 24.5531 8.12842 24.4709C8.09998 24.3689 8.08378 24.2639 8.08018 24.158C8.09 24.3493 8.13494 24.537 8.21272 24.7117L8.21254 24.712Z" fill="#53B7D1"/>
<path d="M21.487 26.455C21.7156 26.455 21.9261 26.4504 22.1186 26.4412C22.3111 26.432 22.5097 26.4123 22.7143 26.3819C22.7322 26.3777 22.7508 26.3779 22.7685 26.3827C22.7862 26.3875 22.8024 26.3966 22.8158 26.4092C22.8292 26.4218 22.8394 26.4376 22.8453 26.4551C22.8512 26.4726 22.8528 26.4913 22.8498 26.5096V27.1936C22.8498 27.2726 22.8018 27.3274 22.7054 27.3578C22.4698 27.4314 22.2281 27.4833 21.9833 27.5128C21.7231 27.5481 21.4608 27.5664 21.1982 27.5675C20.7763 27.5791 20.3562 27.5079 19.9612 27.3576C19.6405 27.2297 19.3578 27.0206 19.1401 26.7504C18.919 26.464 18.7619 26.1326 18.6797 25.7789C18.5786 25.352 18.5302 24.9141 18.5356 24.4752V24.0556C18.5303 23.6169 18.5773 23.1792 18.6755 22.7518C18.7546 22.3988 18.9085 22.0674 19.1268 21.7804C19.3422 21.5097 19.6237 21.3004 19.9436 21.1732C20.3386 21.0229 20.7587 20.9516 21.1806 20.9633C21.6712 20.9669 22.1582 21.0469 22.6246 21.2005C22.666 21.211 22.7036 21.2331 22.733 21.2645C22.7525 21.2941 22.762 21.3293 22.7601 21.3648V22.0215C22.763 22.0398 22.7613 22.0585 22.7554 22.076C22.7495 22.0936 22.7393 22.1093 22.7259 22.122C22.7125 22.1346 22.6963 22.1437 22.6786 22.1484C22.6609 22.1532 22.6423 22.1535 22.6244 22.1492C22.4558 22.1254 22.2723 22.1071 22.0739 22.0944C21.8755 22.0817 21.6739 22.0757 21.4692 22.0765C21.2218 22.0695 20.9754 22.1098 20.7428 22.1952C20.5522 22.2704 20.3874 22.4004 20.2689 22.5691C20.1391 22.7626 20.0515 22.9818 20.0118 23.2121C19.9566 23.5144 19.9309 23.8215 19.935 24.1289V24.4116C19.9309 24.7191 19.958 25.0263 20.0161 25.3282C20.0583 25.5579 20.1491 25.7757 20.2824 25.9667C20.4054 26.1335 20.5729 26.2616 20.7652 26.336C20.9965 26.4206 21.2413 26.4609 21.4871 26.4546L21.487 26.455ZM23.8968 21.2195C23.8968 21.1221 23.9416 21.0735 24.0321 21.0735H25.1511C25.1707 21.0707 25.1908 21.0725 25.2096 21.0789C25.2284 21.0852 25.2455 21.0958 25.2595 21.11C25.2735 21.1242 25.2839 21.1414 25.2902 21.1604C25.2965 21.1794 25.2984 21.1996 25.2956 21.2195V25.9345C25.2856 26.0717 25.317 26.2087 25.3858 26.3274C25.4333 26.3765 25.4915 26.4137 25.5558 26.4359C25.6201 26.458 25.6886 26.4646 25.7558 26.4551H27.8942C27.9138 26.4523 27.9338 26.4541 27.9526 26.4604C27.9714 26.4668 27.9884 26.4774 28.0024 26.4916C28.0164 26.5058 28.0271 26.523 28.0333 26.542C28.0396 26.561 28.0413 26.5812 28.0385 26.601V27.276C28.0385 27.3915 27.9875 27.4523 27.8853 27.4583C27.5544 27.4887 27.1753 27.5145 26.748 27.5358C26.3207 27.5572 25.8784 27.5678 25.4212 27.5678C25.18 27.5723 24.939 27.5477 24.7035 27.4948C24.5294 27.4569 24.367 27.3772 24.2297 27.2626C24.1067 27.1518 24.0174 27.0079 23.9724 26.8477C23.9169 26.6427 23.8912 26.4307 23.896 26.2183L23.8968 21.2195ZM30.2772 27.3031C30.2802 27.3242 30.2783 27.3457 30.2716 27.3659C30.265 27.386 30.2537 27.4044 30.2389 27.4194C30.224 27.4345 30.2058 27.4458 30.1859 27.4525C30.1659 27.4592 30.1448 27.4612 30.1239 27.4582H29.0317C29.0108 27.4612 28.9897 27.4592 28.9697 27.4525C28.9498 27.4458 28.9316 27.4345 28.9167 27.4194C28.9019 27.4044 28.8906 27.386 28.884 27.3659C28.8773 27.3457 28.8753 27.3242 28.8783 27.3031V21.2377C28.8783 21.1282 28.9294 21.0735 29.0317 21.0735H30.1239C30.2263 21.0735 30.2773 21.1282 30.2772 21.2377V27.3031ZM34.5008 26.4548C34.7296 26.4548 34.9403 26.4502 35.1328 26.441C35.3253 26.4319 35.5238 26.4121 35.7284 26.3817C35.7462 26.3775 35.7647 26.3778 35.7824 26.3825C35.8001 26.3873 35.8164 26.3964 35.8298 26.409C35.8432 26.4216 35.8534 26.4374 35.8593 26.4549C35.8653 26.4724 35.8667 26.4912 35.8638 26.5094V27.1935C35.8638 27.2725 35.8158 27.3273 35.7194 27.3576C35.4839 27.4313 35.2421 27.4831 34.9973 27.5126C34.737 27.5479 34.4749 27.5662 34.2123 27.5673C33.7904 27.579 33.3702 27.5077 32.9752 27.3574C32.6545 27.2295 32.3717 27.0204 32.1539 26.7502C31.9332 26.4637 31.7765 26.1323 31.6945 25.7788C31.5934 25.3519 31.5448 24.9139 31.5501 24.475V24.0555C31.5449 23.6168 31.5918 23.179 31.6901 22.7517C31.7692 22.3987 31.9233 22.0672 32.1415 21.7803C32.3569 21.5095 32.6384 21.3002 32.9583 21.173C33.3533 21.0227 33.7735 20.9515 34.1954 20.9631C34.6859 20.9668 35.173 21.0468 35.6395 21.2003C35.6808 21.2108 35.7182 21.233 35.7475 21.2643C35.767 21.2939 35.7766 21.3291 35.7746 21.3647V22.0214C35.7776 22.0396 35.776 22.0584 35.7701 22.0759C35.7642 22.0934 35.7542 22.1092 35.7408 22.1218C35.7274 22.1344 35.711 22.1435 35.6933 22.1483C35.6756 22.153 35.6571 22.1533 35.6393 22.1491C35.4707 22.1252 35.2871 22.107 35.0886 22.0942C34.8901 22.0815 34.6886 22.0755 34.4841 22.0764C34.2366 22.0693 33.99 22.1096 33.7574 22.195C33.5667 22.2703 33.4021 22.4003 33.2836 22.569C33.154 22.7625 33.0663 22.9817 33.0265 23.2119C32.9715 23.5143 32.9457 23.8213 32.9497 24.1287V24.4114C32.9455 24.7189 32.9726 25.0261 33.0306 25.328C33.0728 25.5578 33.1638 25.7756 33.2973 25.9665C33.4202 26.1334 33.5876 26.2616 33.78 26.3358C34.0111 26.4205 34.2559 26.4607 34.5017 26.4544L34.5008 26.4548ZM41.4412 21.0734C41.4612 21.0714 41.4813 21.0756 41.499 21.0853C41.5167 21.095 41.5311 21.1099 41.5404 21.128C41.5491 21.1474 41.552 21.1689 41.5489 21.1899C41.5457 21.211 41.5367 21.2307 41.5228 21.2466L39.5913 24.1471L41.7754 27.2938C41.7871 27.3083 41.7945 27.3258 41.7968 27.3443C41.7992 27.3629 41.7965 27.3817 41.7889 27.3987C41.7804 27.4187 41.7657 27.4353 41.747 27.446C41.7282 27.4568 41.7065 27.4609 41.6852 27.458H40.4128C40.3603 27.4606 40.3078 27.4513 40.2594 27.4307C40.2177 27.4071 40.1835 27.3724 40.1603 27.3303L38.3099 24.4845V27.3028C38.3129 27.3238 38.3111 27.3453 38.3044 27.3654C38.2977 27.3856 38.2865 27.404 38.2716 27.419C38.2567 27.434 38.2386 27.4453 38.2186 27.4521C38.1987 27.4588 38.1775 27.4608 38.1567 27.4578H37.0643C37.0434 27.4608 37.0223 27.4588 37.0023 27.4521C36.9824 27.4454 36.9642 27.434 36.9493 27.419C36.9345 27.4039 36.9234 27.3856 36.9167 27.3654C36.9101 27.3453 36.908 27.3238 36.911 27.3028V21.2373C36.911 21.1279 36.9621 21.0732 37.0643 21.0732H38.1567C38.2588 21.0732 38.3098 21.1279 38.3099 21.2373V23.8092L40.0336 21.1823C40.0567 21.1483 40.0879 21.1205 40.1241 21.1014C40.1603 21.0823 40.2006 21.0725 40.2414 21.0728L41.4412 21.0734Z" fill="#3D3737"/>
</svg>
