<svg width="20" height="22" viewBox="0 0 20 22" fill="none" xmlns="http://www.w3.org/2000/svg">
<path d="M19.4118 3.85311H13.8824C14.1176 3.48023 14.2353 3.0452 14.2353 2.54802C14.2353 1.11864 13.1765 0 11.8235 0C11.1176 0 10.4706 0.372881 10 0.870056C9.52941 0.310734 8.94118 0 8.17647 0C6.82353 0 5.76471 1.11864 5.76471 2.54802C5.76471 3.0452 5.88235 3.48023 6.11765 3.85311H0.588235C0.235294 3.85311 0 4.10169 0 4.47458V7.14689C0 7.51977 0.235294 7.76836 0.588235 7.76836H1.52941V21.3785C1.52941 21.7514 1.76471 22 2.11765 22H17.9412C18.2941 22 18.5294 21.7514 18.5294 21.3785V7.70621H19.4118C19.7647 7.70621 20 7.45763 20 7.08475V4.41243C20 4.1017 19.7059 3.85311 19.4118 3.85311ZM11.8235 1.24294C12.5294 1.24294 13.0588 1.80226 13.0588 2.54802C13.0588 3.29379 12.5294 3.85311 11.8235 3.85311C11.1176 3.85311 10.5882 3.29379 10.5882 2.54802C10.5882 1.80226 11.1176 1.24294 11.8235 1.24294ZM6.94118 2.54802C6.94118 1.80226 7.47059 1.24294 8.17647 1.24294C8.88235 1.24294 9.41177 1.80226 9.41177 2.54802C9.41177 3.29379 8.88235 3.85311 8.17647 3.85311C7.52941 3.85311 6.94118 3.23164 6.94118 2.54802ZM2.64706 7.70621H9.70588V13.7345H2.64706V7.70621ZM2.64706 14.4181H9.70588V20.6949H2.64706V14.4181ZM10.2941 20.6949V14.4181H17.2941V20.6949H10.2941ZM17.2941 13.7966H10.2941V7.76836H17.2941V13.7966ZM18.8235 6.46328H17.8824H2.05882H1.17647V5.0339H18.8235V6.46328Z" fill="#9E9E9E"/>
</svg>
