<svg width="14" height="14" viewBox="0 0 14 14" fill="none" xmlns="http://www.w3.org/2000/svg">
<path d="M13.7343 13.8547C14.0476 13.6336 14.0899 13.2422 13.8287 12.977L7.92944 6.99976L13.8287 1.02249C14.0892 0.757861 14.0466 0.365106 13.7343 0.144813C13.4217 -0.0758689 12.9561 -0.0400932 12.6953 0.224142L6.40267 6.60058C6.2885 6.71608 6.23142 6.85801 6.23142 6.99976C6.23142 7.14169 6.2885 7.28344 6.40267 7.39893L12.6953 13.7754C12.9561 14.0396 13.4215 14.0754 13.7343 13.8547Z" fill="#3D3737"/>
<path d="M0.265676 0.144735C-0.0475954 0.365806 -0.089948 0.757201 0.171303 1.02241L6.07052 6.99968L0.171303 12.977C-0.0892576 13.2416 -0.0466748 13.6343 0.265676 13.8546C0.578257 14.0753 1.04391 14.0395 1.3047 13.7753L7.59728 7.39885C7.71145 7.28336 7.76854 7.14142 7.76854 6.99968C7.76854 6.85774 7.71145 6.716 7.59728 6.60051L1.3047 0.224064C1.04391 -0.0401714 0.578487 -0.0759466 0.265676 0.144735Z" fill="#3D3737"/>
</svg>
