<svg width="80" height="28" viewBox="0 0 80 28" fill="none" xmlns="http://www.w3.org/2000/svg">
<path d="M0 14C0 6.95845 5.27131 1.11523 12.1826 0.00480165V2.68442C6.77504 3.76137 2.70725 8.41831 2.70725 14C2.70725 19.5817 6.77504 24.2386 12.1826 25.3156V27.9952C5.27131 26.8848 0 21.0416 0 14Z" fill="black"/>
<path d="M26.4408 14C26.4408 19.592 22.3579 24.2559 16.9353 25.3215V28C23.8614 26.9017 29.148 21.0518 29.148 14C29.148 6.94824 23.8614 1.09829 16.9353 0V2.67847C22.3579 3.74411 26.4408 8.40797 26.4408 14Z" fill="black"/>
<path d="M9.92657 5.90461H20.4247V9.09592H14.7395V12.1701H19.071V15.3614H14.7395V23.0616H9.92657V5.90461Z" fill="black"/>
<path d="M38.5198 14.0109H35.6791V16.8H35.1646V10.8281H38.9381V11.2588H35.6791V13.5803H38.5198V14.0109Z" fill="black"/>
<path d="M41.8499 12.7805C41.7439 12.7613 41.6309 12.7518 41.511 12.7518C41.1986 12.7518 40.9337 12.8379 40.7161 13.0102C40.5014 13.1797 40.348 13.4271 40.2559 13.7525V16.8H39.7581V12.3621H40.2476L40.2559 13.0676C40.5209 12.5426 40.9462 12.2801 41.5319 12.2801C41.6714 12.2801 41.7816 12.2979 41.8624 12.3334L41.8499 12.7805Z" fill="black"/>
<path d="M45.3348 16.8C45.2846 16.6605 45.2525 16.4541 45.2386 16.1807C45.0629 16.4049 44.8383 16.5785 44.565 16.7016C44.2945 16.8219 44.0072 16.882 43.7032 16.882C43.2681 16.882 42.9153 16.7631 42.6448 16.5252C42.377 16.2873 42.2431 15.9865 42.2431 15.6229C42.2431 15.1908 42.4258 14.849 42.7912 14.5975C43.1593 14.3459 43.6711 14.2201 44.3266 14.2201H45.2344V13.7156C45.2344 13.3984 45.134 13.1496 44.9332 12.9691C44.7352 12.7859 44.4451 12.6943 44.063 12.6943C43.7144 12.6943 43.4257 12.7818 43.197 12.9568C42.9683 13.1318 42.8539 13.3424 42.8539 13.5885L42.3519 13.5844C42.3519 13.2316 42.5193 12.9268 42.8539 12.6697C43.1886 12.41 43.6 12.2801 44.0881 12.2801C44.5929 12.2801 44.9903 12.4045 45.2804 12.6533C45.5733 12.8994 45.7239 13.2439 45.7322 13.6869V15.7869C45.7322 16.2162 45.7783 16.5375 45.8703 16.7508V16.8H45.3348ZM43.7618 16.4473C44.0965 16.4473 44.3949 16.368 44.6571 16.2094C44.922 16.0508 45.1145 15.8389 45.2344 15.5736V14.5975H44.3391C43.8399 14.6029 43.4494 14.6932 43.1677 14.8682C42.886 15.0404 42.7452 15.2783 42.7452 15.5818C42.7452 15.8307 42.8386 16.0371 43.0255 16.2012C43.2151 16.3652 43.4606 16.4473 43.7618 16.4473Z" fill="black"/>
<path d="M47.8491 11.226V12.3621H48.7862V12.7641H47.8491V15.7213C47.8491 15.9674 47.8937 16.1506 47.983 16.2709C48.075 16.3912 48.227 16.4514 48.439 16.4514C48.5227 16.4514 48.6579 16.4377 48.8448 16.4104L48.8657 16.8123C48.7346 16.8588 48.5561 16.882 48.3302 16.882C47.9872 16.882 47.7376 16.785 47.5814 16.5908C47.4252 16.3939 47.3471 16.1055 47.3471 15.7254V12.7641H46.5146V12.3621H47.3471V11.226H47.8491Z" fill="black"/>
<path d="M51.5767 16.882C51.1918 16.882 50.8432 16.7891 50.5308 16.6031C50.2212 16.4172 49.9799 16.1588 49.807 15.8279C49.6341 15.4943 49.5476 15.1211 49.5476 14.7082V14.5318C49.5476 14.1053 49.6313 13.7211 49.7987 13.3793C49.9688 13.0375 50.2045 12.7695 50.5057 12.5754C50.8069 12.3785 51.1332 12.2801 51.4846 12.2801C52.0341 12.2801 52.4692 12.4646 52.7899 12.8338C53.1134 13.2002 53.2752 13.702 53.2752 14.3391V14.6139H50.0455V14.7082C50.0455 15.2113 50.1919 15.6311 50.4848 15.9674C50.7804 16.301 51.1513 16.4678 51.5976 16.4678C51.8653 16.4678 52.101 16.4199 52.3046 16.3242C52.511 16.2285 52.6979 16.0754 52.8652 15.8648L53.179 16.0986C52.8108 16.6209 52.2767 16.882 51.5767 16.882ZM51.4846 12.6984C51.1081 12.6984 50.7902 12.8338 50.5308 13.1045C50.2742 13.3752 50.118 13.7389 50.0622 14.1955H52.7774V14.1422C52.7634 13.7156 52.6393 13.3684 52.405 13.1004C52.1707 12.8324 51.8639 12.6984 51.4846 12.6984Z" fill="black"/>
<path d="M54.8106 16.8H54.3085V10.5H54.8106V16.8Z" fill="black"/>
<path d="M56.735 16.8H56.233V10.5H56.735V16.8Z" fill="black"/>
<path d="M58.6594 16.8H58.1574V12.3621H58.6594V16.8ZM58.0696 11.0783C58.0696 10.9854 58.1002 10.9074 58.1616 10.8445C58.223 10.7789 58.3066 10.7461 58.4126 10.7461C58.5186 10.7461 58.6023 10.7789 58.6636 10.8445C58.7278 10.9074 58.7599 10.9854 58.7599 11.0783C58.7599 11.1713 58.7278 11.2492 58.6636 11.3121C58.6023 11.375 58.5186 11.4064 58.4126 11.4064C58.3066 11.4064 58.223 11.375 58.1616 11.3121C58.1002 11.2492 58.0696 11.1713 58.0696 11.0783Z" fill="black"/>
<path d="M66.5371 14.9379C66.4674 15.5668 66.2373 16.048 65.8468 16.3816C65.4591 16.7152 64.9418 16.882 64.2947 16.882C63.8429 16.882 63.4427 16.7713 63.094 16.5498C62.7482 16.3283 62.4804 16.0152 62.2908 15.6105C62.1011 15.2031 62.0049 14.7383 62.0021 14.216V13.4408C62.0021 12.9104 62.0969 12.44 62.2866 12.0299C62.4763 11.6197 62.7482 11.3039 63.1024 11.0824C63.4594 10.8582 63.8694 10.7461 64.3324 10.7461C64.985 10.7461 65.4996 10.9197 65.8761 11.267C66.2554 11.6115 66.4757 12.0887 66.5371 12.6984H66.0183C65.89 11.684 65.3281 11.1768 64.3324 11.1768C63.7801 11.1768 63.3395 11.3791 63.0104 11.7838C62.684 12.1885 62.5209 12.7477 62.5209 13.4613V14.1914C62.5209 14.8805 62.6799 15.4301 62.9978 15.8402C63.3185 16.2504 63.7508 16.4555 64.2947 16.4555C64.833 16.4555 65.2388 16.3297 65.5121 16.0781C65.7855 15.8238 65.9542 15.4437 66.0183 14.9379H66.5371Z" fill="black"/>
<path d="M70.5282 16.8C70.478 16.6605 70.4459 16.4541 70.432 16.1807C70.2563 16.4049 70.0318 16.5785 69.7584 16.7016C69.4879 16.8219 69.2006 16.882 68.8966 16.882C68.4615 16.882 68.1087 16.7631 67.8382 16.5252C67.5704 16.2873 67.4366 15.9865 67.4366 15.6229C67.4366 15.1908 67.6193 14.849 67.9846 14.5975C68.3528 14.3459 68.8646 14.2201 69.52 14.2201H70.4278V13.7156C70.4278 13.3984 70.3274 13.1496 70.1266 12.9691C69.9286 12.7859 69.6385 12.6943 69.2564 12.6943C68.9078 12.6943 68.6191 12.7818 68.3904 12.9568C68.1617 13.1318 68.0474 13.3424 68.0474 13.5885L67.5453 13.5844C67.5453 13.2316 67.7127 12.9268 68.0474 12.6697C68.3821 12.41 68.7934 12.2801 69.2815 12.2801C69.7863 12.2801 70.1838 12.4045 70.4738 12.6533C70.7667 12.8994 70.9173 13.2439 70.9257 13.6869V15.7869C70.9257 16.2162 70.9717 16.5375 71.0637 16.7508V16.8H70.5282ZM68.9552 16.4473C69.2899 16.4473 69.5883 16.368 69.8505 16.2094C70.1154 16.0508 70.3079 15.8389 70.4278 15.5736V14.5975H69.5325C69.0333 14.6029 68.6428 14.6932 68.3611 14.8682C68.0794 15.0404 67.9386 15.2783 67.9386 15.5818C67.9386 15.8307 68.032 16.0371 68.2189 16.2012C68.4086 16.3652 68.654 16.4473 68.9552 16.4473Z" fill="black"/>
<path d="M74.9754 15.6721C74.9754 15.4287 74.8749 15.2332 74.6741 15.0855C74.4761 14.9379 74.1763 14.823 73.7747 14.741C73.373 14.6562 73.0607 14.5605 72.8376 14.4539C72.6172 14.3445 72.4527 14.2119 72.3439 14.0561C72.2379 13.9002 72.1849 13.7115 72.1849 13.49C72.1849 13.14 72.3341 12.8516 72.6326 12.6246C72.931 12.3949 73.3131 12.2801 73.7789 12.2801C74.2837 12.2801 74.6881 12.4031 74.9921 12.6492C75.2989 12.8926 75.4523 13.2111 75.4523 13.6049H74.9502C74.9502 13.3451 74.8387 13.1291 74.6156 12.9568C74.3952 12.7846 74.1163 12.6984 73.7789 12.6984C73.4497 12.6984 73.1848 12.7709 72.984 12.9158C72.786 13.058 72.6869 13.2439 72.6869 13.4736C72.6869 13.6951 72.7692 13.8674 72.9338 13.9904C73.1011 14.1107 73.4037 14.2215 73.8416 14.3227C74.2823 14.4238 74.6114 14.5318 74.8289 14.6467C75.0493 14.7615 75.2124 14.8996 75.3184 15.0609C75.4244 15.2223 75.4774 15.4178 75.4774 15.6475C75.4774 16.0221 75.3226 16.3215 75.013 16.5457C74.7062 16.7699 74.3046 16.882 73.8081 16.882C73.281 16.882 72.8529 16.7576 72.5238 16.5088C72.1975 16.2572 72.0343 15.94 72.0343 15.5572H72.5363C72.5559 15.8443 72.6786 16.0686 72.9045 16.2299C73.1332 16.3885 73.4344 16.4678 73.8081 16.4678C74.1568 16.4678 74.4385 16.3926 74.6532 16.2422C74.868 16.0918 74.9754 15.9018 74.9754 15.6721Z" fill="black"/>
<path d="M79.4643 16.8C79.4141 16.6605 79.382 16.4541 79.3681 16.1807C79.1924 16.4049 78.9679 16.5785 78.6945 16.7016C78.424 16.8219 78.1367 16.882 77.8327 16.882C77.3976 16.882 77.0448 16.7631 76.7743 16.5252C76.5065 16.2873 76.3727 15.9865 76.3727 15.6229C76.3727 15.1908 76.5553 14.849 76.9207 14.5975C77.2889 14.3459 77.8007 14.2201 78.4561 14.2201H79.3639V13.7156C79.3639 13.3984 79.2635 13.1496 79.0627 12.9691C78.8647 12.7859 78.5746 12.6943 78.1925 12.6943C77.8439 12.6943 77.5552 12.7818 77.3265 12.9568C77.0978 13.1318 76.9835 13.3424 76.9835 13.5885L76.4814 13.5844C76.4814 13.2316 76.6488 12.9268 76.9835 12.6697C77.3181 12.41 77.7295 12.2801 78.2176 12.2801C78.7224 12.2801 79.1199 12.4045 79.4099 12.6533C79.7028 12.8994 79.8534 13.2439 79.8618 13.6869V15.7869C79.8618 16.2162 79.9078 16.5375 79.9998 16.7508V16.8H79.4643ZM77.8913 16.4473C78.226 16.4473 78.5244 16.368 78.7866 16.2094C79.0515 16.0508 79.244 15.8389 79.3639 15.5736V14.5975H78.4686C77.9694 14.6029 77.5789 14.6932 77.2972 14.8682C77.0155 15.0404 76.8747 15.2783 76.8747 15.5818C76.8747 15.8307 76.9681 16.0371 77.155 16.2012C77.3446 16.3652 77.5901 16.4473 77.8913 16.4473Z" fill="black"/>
</svg>
