<svg width="48" height="48" viewBox="0 0 48 48" fill="none" xmlns="http://www.w3.org/2000/svg">
<rect width="48" height="48" transform="matrix(1 0 0 -1 0 48)" fill="#F0F0F0"/>
<path d="M9.70378 35.2658V33.0373C9.70378 32.1976 9.16817 31.6323 8.30616 31.6249C7.85216 31.6175 7.3848 31.7584 7.0584 32.2569C6.81359 31.8637 6.42636 31.6249 5.88482 31.6249C5.50648 31.6249 5.13408 31.7361 4.84477 32.1531V31.7139H4.07178V35.2658H4.85219V33.297C4.85219 32.6798 5.19343 32.3534 5.72161 32.3534C6.23496 32.3534 6.49461 32.6872 6.49461 33.2895V35.2658H7.27501V33.297C7.27501 32.6798 7.63109 32.3534 8.14444 32.3534C8.67263 32.3534 8.92485 32.6872 8.92485 33.2895V35.2658H9.70378ZM21.2526 31.7139H19.99V30.6367H19.2096V31.7139H18.4886V32.4201H19.2096V34.0403C19.2096 34.8652 19.5286 35.3563 20.4426 35.3563C20.7764 35.3563 21.1636 35.2524 21.4084 35.0818L21.1859 34.4201C20.9559 34.5536 20.7022 34.6204 20.5019 34.6204C20.1161 34.6204 19.9886 34.383 19.9886 34.0254V32.4201H21.2512V31.7139H21.2526ZM27.8446 31.6249C27.398 31.6249 27.1087 31.8326 26.9084 32.1456V31.7139H26.1428V35.2658H26.9158V33.2747C26.9158 32.6872 27.168 32.3608 27.6739 32.3608C27.8297 32.3608 27.9929 32.383 28.1576 32.4498L28.395 31.7213C28.2229 31.6545 28.0004 31.6249 27.8446 31.6249ZM17.8788 31.9973C17.5079 31.7525 16.9945 31.6264 16.4292 31.6264C15.5301 31.6264 14.95 32.0566 14.95 32.7628C14.95 33.343 15.3803 33.699 16.1755 33.8103L16.539 33.8622C16.9619 33.9216 17.1637 34.0329 17.1637 34.2332C17.1637 34.5076 16.8818 34.6649 16.3536 34.6649C15.818 34.6649 15.4322 34.4943 15.1726 34.294L14.8091 34.8964C15.2319 35.2079 15.7675 35.3578 16.3476 35.3578C17.3728 35.3578 17.9678 34.8741 17.9678 34.199C17.9678 33.5744 17.499 33.248 16.7275 33.1367L16.364 33.0848C16.0301 33.0403 15.7616 32.9735 15.7616 32.7361C15.7616 32.4765 16.0138 32.3192 16.4381 32.3192C16.8921 32.3192 17.3298 32.4898 17.545 32.6234L17.8788 31.9973ZM38.5819 31.6249C38.1353 31.6249 37.846 31.8326 37.6457 32.1456V31.7139H36.8801V35.2658H37.6531V33.2747C37.6531 32.6872 37.9053 32.3608 38.4112 32.3608C38.567 32.3608 38.7302 32.383 38.8949 32.4498L39.1323 31.7213C38.9617 31.6545 38.7377 31.6249 38.5819 31.6249ZM28.625 33.4898C28.625 34.567 29.3757 35.3548 30.5196 35.3548C31.0552 35.3548 31.4113 35.2361 31.7971 34.9305L31.4261 34.3059C31.1368 34.5136 30.8312 34.6248 30.4974 34.6248C29.8802 34.6174 29.4276 34.1708 29.4276 33.4884C29.4276 32.8044 29.8816 32.3593 30.4974 32.3519C30.8312 32.3519 31.1368 32.4631 31.4261 32.6709L31.7971 32.0462C31.4113 31.7421 31.0537 31.6219 30.5196 31.6219C29.3742 31.6249 28.625 32.4127 28.625 33.4898ZM35.8623 33.4898V31.7139H35.0893V32.1456C34.8445 31.8266 34.4721 31.6249 33.9677 31.6249C32.9721 31.6249 32.1917 32.4053 32.1917 33.4898C32.1917 34.5744 32.9721 35.3548 33.9677 35.3548C34.4736 35.3548 34.8445 35.1545 35.0893 34.834V35.2643H35.8623V33.4898ZM32.987 33.4898C32.987 32.8652 33.395 32.3534 34.0641 32.3534C34.7036 32.3534 35.1338 32.8444 35.1338 33.4898C35.1338 34.1352 34.7036 34.6263 34.0641 34.6263C33.395 34.6278 32.987 34.1145 32.987 33.4898ZM23.6606 31.6249C22.6206 31.6249 21.8921 32.383 21.8921 33.4898C21.8921 34.6189 22.6503 35.3548 23.7126 35.3548C24.2482 35.3548 24.7378 35.2213 25.1695 34.8563L24.7912 34.2836C24.4945 34.521 24.1146 34.6545 23.7586 34.6545C23.26 34.6545 22.8075 34.4245 22.6962 33.7851H25.3342C25.3416 33.6887 25.349 33.5922 25.349 33.4884C25.3401 32.383 24.6562 31.6249 23.6606 31.6249ZM23.6458 32.3163C24.1443 32.3163 24.4633 32.6278 24.5449 33.1783H22.7022C22.7838 32.6649 23.0954 32.3163 23.6458 32.3163ZM43.0329 33.4898V30.2881H42.2599V32.1456C42.0151 31.8266 41.6427 31.6249 41.1382 31.6249C40.1427 31.6249 39.3623 32.4053 39.3623 33.4898C39.3623 34.5744 40.1427 35.3548 41.1382 35.3548C41.6442 35.3548 42.0151 35.1545 42.2599 34.834V35.2643H43.0329V33.4898ZM43.9364 34.9394C43.9676 34.9394 43.9973 34.9453 44.0254 34.9572C44.0536 34.9691 44.0774 34.9854 44.0981 35.0061C44.1189 35.0269 44.1352 35.0507 44.1471 35.0774C44.159 35.1041 44.1649 35.1337 44.1649 35.1649C44.1649 35.1961 44.159 35.2242 44.1471 35.2524C44.1352 35.2791 44.1189 35.3029 44.0981 35.3237C44.0774 35.3444 44.0536 35.3607 44.0254 35.3726C43.9973 35.3845 43.9676 35.3904 43.9364 35.3904C43.9038 35.3904 43.8741 35.3845 43.8459 35.3726C43.8177 35.3607 43.794 35.3444 43.7732 35.3237C43.7524 35.3029 43.7361 35.2791 43.7243 35.2524C43.7124 35.2257 43.7065 35.1961 43.7065 35.1649C43.7065 35.1337 43.7124 35.1041 43.7243 35.0774C43.7361 35.0492 43.7524 35.0254 43.7732 35.0061C43.794 34.9854 43.8177 34.9691 43.8459 34.9572C43.8741 34.9453 43.9038 34.9394 43.9364 34.9394ZM43.9364 35.34C43.9602 35.34 43.9839 35.3355 44.0047 35.3266C44.0254 35.3177 44.0447 35.3044 44.0596 35.2895C44.0759 35.2732 44.0878 35.2554 44.0967 35.2331C44.1056 35.2124 44.11 35.1886 44.11 35.1649C44.11 35.1412 44.1056 35.1174 44.0967 35.0967C44.0878 35.0759 44.0759 35.0566 44.0596 35.0403C44.0432 35.024 44.0254 35.0121 44.0047 35.0032C43.9839 34.9943 43.9616 34.9898 43.9364 34.9898C43.9112 34.9898 43.8889 34.9943 43.8667 35.0032C43.8444 35.0121 43.8266 35.024 43.8103 35.0403C43.794 35.0566 43.7821 35.0744 43.7732 35.0967C43.7643 35.1174 43.7599 35.1412 43.7599 35.1649C43.7599 35.1886 43.7643 35.2124 43.7732 35.2331C43.7821 35.2539 43.794 35.2732 43.8103 35.2895C43.8266 35.3058 43.8444 35.3177 43.8667 35.3266C43.8889 35.3355 43.9127 35.34 43.9364 35.34ZM43.9498 35.0581C43.9765 35.0581 43.9972 35.064 44.0121 35.0759C44.0269 35.0877 44.0343 35.1041 44.0343 35.1248C44.0343 35.1426 44.0284 35.156 44.0165 35.1679C44.0047 35.1797 43.9883 35.1857 43.9676 35.1886L44.0358 35.2673H43.9824L43.9186 35.1886H43.8978V35.2673H43.8533V35.0581H43.9498ZM43.8978 35.0981V35.1545H43.9498C43.9616 35.1545 43.9705 35.1515 43.978 35.1471C43.9854 35.1426 43.9884 35.1352 43.9884 35.1263C43.9884 35.1174 43.9854 35.11 43.978 35.1056C43.9705 35.1011 43.9616 35.0981 43.9498 35.0981H43.8978ZM40.1575 33.4898C40.1575 32.8652 40.5655 32.3534 41.2347 32.3534C41.8741 32.3534 42.3044 32.8444 42.3044 33.4898C42.3044 34.1352 41.8741 34.6263 41.2347 34.6263C40.567 34.6278 40.1575 34.1145 40.1575 33.4898ZM14.0598 33.4898V31.7139H13.2868V32.1456C13.042 31.8266 12.6696 31.6249 12.1652 31.6249C11.1696 31.6249 10.3892 32.4053 10.3892 33.4898C10.3892 34.5744 11.1696 35.3548 12.1652 35.3548C12.6711 35.3548 13.042 35.1545 13.2868 34.834V35.2643H14.0598V33.4898ZM11.183 33.4898C11.183 32.8652 11.591 32.3534 12.2601 32.3534C12.8996 32.3534 13.3299 32.8444 13.3299 33.4898C13.3299 34.1352 12.8996 34.6263 12.2601 34.6263C11.5925 34.6278 11.183 34.1145 11.183 33.4898Z" fill="#231F20"/>
<path d="M27.1129 12.7959H19.7573V26.0148H27.1129V12.7959Z" fill="#FF5F00"/>
<path d="M20.2242 19.4063C20.2242 16.7256 21.4804 14.3368 23.4349 12.798C22.0058 11.6725 20.2008 11 18.2393 11C13.5972 11 9.83301 14.7642 9.83301 19.4063C9.83301 24.0485 13.5972 27.8126 18.2393 27.8126C20.2008 27.8126 22.0035 27.1401 23.4349 26.0146C21.4804 24.4758 20.2242 22.087 20.2242 19.4063Z" fill="#EB001B"/>
<path d="M37.0345 19.4063C37.0345 24.0485 33.2703 27.8126 28.6282 27.8126C26.6667 27.8126 24.864 27.1401 23.4326 26.0146C25.3871 24.4758 26.6434 22.087 26.6434 19.4063C26.6434 16.7256 25.3871 14.3368 23.4326 12.798C24.8617 11.6725 26.6667 11 28.6282 11C33.2727 11 37.0345 14.7642 37.0345 19.4063Z" fill="#F79E1B"/>
<path d="M36.2336 24.616V24.3451H36.3433V24.2891H36.0654V24.3451H36.1728V24.616H36.2336ZM36.773 24.616V24.2891H36.6889L36.5908 24.5132L36.4928 24.2891H36.4064V24.616H36.4671V24.3708L36.5581 24.5833H36.6212L36.7122 24.3708V24.6183H36.773V24.616Z" fill="#F79E1B"/>
</svg>
