<?xml version="1.0" encoding="UTF-8"?>
<!-- Generator: Adobe Illustrator 16.0.4, SVG Export Plug-In . SVG Version: 6.00 Build 0)  -->
<!DOCTYPE svg PUBLIC "-//W3C//DTD SVG 1.1//EN" "http://www.w3.org/Graphics/SVG/1.1/DTD/svg11.dtd">
<svg version="1.1" id="Layer_1" xmlns="http://www.w3.org/2000/svg" xmlns:xlink="http://www.w3.org/1999/xlink" x="0px" y="0px" width="1716px" height="595.3px" viewBox="0 0 1716 595.3" style="enable-background:new 0 0 1716 595.3;" xml:space="preserve">
<style type="text/css">
<![CDATA[
	.st0{fill-rule:evenodd;clip-rule:evenodd;fill:#E20025;}
	.st1{fill:#F6A800;}
	.st2{fill:#FFFFFF;}
	.st3{fill-rule:evenodd;clip-rule:evenodd;fill:#F9B41D;}
	.st4{fill:#005198;}
	.st5{fill-rule:evenodd;clip-rule:evenodd;fill:#FFFFFF;}
	.st6{fill-rule:evenodd;clip-rule:evenodd;fill:#00336F;}
]]>
</style>
<g>
	<polygon class="st2" points="9.2,56.3 9.2,544.9 832.7,544.9 832.7,56.3 9.2,56.3  "/>
	<polygon class="st4" points="145.6,224.7 193.6,405.9 249.4,405.9 336.1,196 279.6,196 224.9,338.5 202.5,227 145.6,224.7  "/>
	<polygon class="st4" points="357.2,195.2 323.9,405.9 376.6,405.9 410.7,195.2 357.2,195.2  "/>
	<path class="st4" d="M565.6,245.6l7.7-44.1c0,0-23.2-9.3-51.1-9.3c-27.9,0-88.3,17.8-88.3,69.7c0,51.9,75.1,54.2,75.1,82.9   c0,28.7-67.4,25.6-87.5,7l-8.5,45.7c0,0,30.2,11.6,57.3,11.6c27.1,0,94.5-6.2,94.5-73.6c0-58.9-75.1-47.3-75.1-82.9   C489.7,252.6,497.4,216.9,565.6,245.6L565.6,245.6z"/>
	<path class="st4" d="M561.7,405.9h58.1l10.1-30.2h71.2l5.9,29.9h50.4l-46.2-208.1h-46.5c0,0-17,1.9-24.8,22.5   C632.6,239.5,561.7,405.9,561.7,405.9L561.7,405.9z"/>
	<polygon class="st2" points="692.6,332.3 645.3,332.3 674.8,254.9 692.6,332.3  "/>
	<path class="st4" d="M219,309.3L202.5,227c0,0-2.2-30.9-24.3-30.9h-90v4.3C88.2,200.4,177.2,215.1,219,309.3L219,309.3z"/>
	<polygon class="st1" points="832.7,436.7 9.2,436.7 9.2,558.8 832.7,558.8  "/>
	<rect x="9.2" y="43.5" class="st4" width="823.6" height="122.1"/>
</g>
<polygon class="st6" points="1701.1,558.8 1701.1,43.5 861.9,43.6 861.9,558.8 1701.1,558.8 "/>
<path class="st3" d="M1610.8,443c0-3.6,2.9-6.5,6.5-6.5s6.5,2.9,6.5,6.5c0,3.6-2.9,6.5-6.5,6.5S1610.8,446.6,1610.8,443L1610.8,443z   M1617.3,447.9c2.7,0,4.9-2.2,4.9-5c0-2.8-2.2-5-4.9-5c-2.7,0-4.9,2.2-4.9,5C1612.3,445.7,1614.5,447.9,1617.3,447.9L1617.3,447.9z   M1616.4,445.8h-1.3v-5.8h2.4c0.5,0,1,0,1.5,0.3c0.5,0.3,0.7,0.9,0.7,1.4c0,0.7-0.4,1.2-1,1.5l1.1,2.5h-1.5l-0.9-2.3h-1V445.8v-3.3  h0.7c0.3,0,0.6,0,0.8-0.1c0.2-0.1,0.3-0.4,0.3-0.7c0-0.2-0.1-0.5-0.3-0.6c-0.2-0.1-0.6-0.1-0.9-0.1h-0.7v1.5V445.8L1616.4,445.8z"/>
<path class="st5" d="M1610.8,377.1c0-3.6,2.9-6.5,6.5-6.5s6.5,2.9,6.5,6.5s-2.9,6.5-6.5,6.5S1610.8,380.7,1610.8,377.1L1610.8,377.1  z M1617.3,382c2.7,0,4.9-2.2,4.9-5c0-2.8-2.2-5-4.9-5c-2.7,0-4.9,2.2-4.9,5C1612.3,379.8,1614.5,382,1617.3,382L1617.3,382z   M1616.4,379.9h-1.3v-5.7h2.4c0.5,0,1,0,1.5,0.3c0.5,0.3,0.7,0.9,0.7,1.4c0,0.7-0.4,1.3-1,1.5l1.1,2.5h-1.5l-0.9-2.3h-1V379.9v-3.3  h0.7c0.3,0,0.6,0,0.8-0.1c0.2-0.1,0.3-0.4,0.3-0.7c0-0.2-0.1-0.5-0.3-0.6c-0.2-0.1-0.6-0.1-0.9-0.1h-0.7v1.5V379.9L1616.4,379.9z"/>
<g>
	<path class="st3" d="M1281.5,451.2c35.7,32.6,83.1,52.4,135,52.4c111.1,0,201.2-90.6,201.2-202.4c0-111.8-90.1-202.4-201.2-202.4   c-52,0-99.3,19.8-135,52.4c-40.6,37-66.1,90.5-66.1,150C1215.4,360.6,1240.9,414.1,1281.5,451.2L1281.5,451.2z"/>
	<path class="st0" d="M1346.5,279.7c-0.8-7.3-1.9-14.4-3.4-21.4h-123.2c1.6-7.3,3.5-14.5,5.8-21.4h111.5c-2.4-7.3-5.3-14.5-8.5-21.4   h-94.4c3.4-7.4,7.3-14.5,11.6-21.4h71.2c-4.7-7.5-9.8-14.6-15.3-21.4h-40.6c6.2-7.6,13-14.8,20.3-21.4   c-35.7-32.6-83.1-52.4-135-52.4c-111.1,0-201.2,90.6-201.2,202.4c0,111.8,90.1,202.4,201.2,202.4c52,0,99.3-19.8,135-52.4l0,0l0,0   c7.3-6.6,14.1-13.8,20.3-21.4h-40.6c-5.5-6.8-10.6-13.9-15.3-21.4h71.2c4.3-6.9,8.2-14,11.6-21.4h-94.4c-3.2-6.9-6.1-14.1-8.6-21.4   h111.5c2.3-7,4.3-14.1,5.8-21.4c1.5-7,2.6-14.2,3.4-21.4c0.7-7.1,1.1-14.2,1.1-21.4C1347.7,293.9,1347.3,286.8,1346.5,279.7   L1346.5,279.7z"/>
	<path class="st6" d="M1213.1,359.6c-6.7,1.9-11.4,2.7-16.4,2.7c-10.2,0-16.5-6.5-16.5-18.3c0-2.3,0.2-4.8,0.7-7.5l1.3-8.2l1-6.6   l9.5-57h21l-2.5,12.4h13.1l-3.1,21.1H1208l-5.7,34.1c-0.3,1.5-0.4,2.7-0.4,3.5c0,4.3,2.3,6.2,7.4,6.2c2.5,0,4.4-0.3,6.7-0.8   L1213.1,359.6L1213.1,359.6z"/>
	<path class="st6" d="M1280.6,358.8c-7.5,2.3-14.7,3.4-22.4,3.4c-23.4,0-37.1-12.8-37.1-37.4c0-28.7,16.2-49.8,38.1-49.8   c18,0,29.4,11.8,29.4,30.4c0,6.1-0.8,12.1-2.7,20.6h-43.4c-0.2,1.3-0.2,1.9-0.2,2.6c0,9.7,6.5,14.6,19.2,14.6   c7.8,0,14.8-1.6,22.7-5.3L1280.6,358.8L1280.6,358.8z M1267.6,309.2c0.1-1.7,0.2-3.2,0.2-4.3c0-6.8-3.8-10.8-10.3-10.8   c-6.9,0-11.9,5.3-13.9,15L1267.6,309.2L1267.6,309.2z"/>
	<polygon class="st6" points="1046.5,360.6 1024.6,360.6 1037.1,281.7 1009.2,360.6 994.3,360.6 992.5,282.2 979.3,360.6    958.1,360.6 975.2,258 1006.6,258 1007.5,321.5 1028.7,258 1063.2,258 1046.5,360.6  "/>
	<path class="st6" d="M1098.9,323.4c-2.3-0.3-2.7-0.3-4.3-0.3c-12.4,0-18.6,4.8-18.6,12.7c0,5.2,3.1,8.5,7.8,8.5   C1094.4,344.3,1098.5,335.8,1098.9,323.4L1098.9,323.4z M1116.2,360.6h-18.9l0.4-8.7c-4.8,6.5-11.3,10.1-22.9,10.1   c-10.6,0-19.4-9.3-19.4-22.8c0-4,0.7-7.6,1.6-10.9c3.4-12.8,16.3-21,36.2-21.3c2.5,0,6.4-0.1,9.6,0.3c0.7-2.7,0.9-3.9,0.9-5.4   c0-5.5-4.5-7.3-14.7-7.3c-6.2,0-13.2,1.1-18.1,2.5l-3,0.9l-1.3,0.3l3-18.8c10.2-3.1,17.3-4.4,25.4-4.4c18.8,0,28.7,8.5,28.7,24.5   c0,4.1,0.4,7.3-1,16.5l-4.6,29.6l-0.8,5.3l-0.6,4.2l-0.4,2.9L1116.2,360.6L1116.2,360.6z"/>
	<path class="st6" d="M1385.6,277.9c6.1,0,11.7,1.6,19.5,5.5l3.6-22.3c-1.9-0.8-2.5-1-5.3-2l-9-2.3c-2.8-0.7-6-1.1-9.8-1.1   c-10.8,0-17.2,0.1-23.7,4.2c-3.5,2.2-7.9,5.3-13,11l-2.6-0.8l-22.2,15.9l1.1-8.9H1301l-13.3,83.5h21.8l8-44.9c0,0,3.1-6.1,4.5-8.1   c4-5.4,7.6-5.5,12.1-5.3c0.5,0,1.3,0,1.6,0c-0.7,4.9-1,10.2-1,15.9c0,27.3,15.4,44.3,38.9,44.3c6.1,0,11.2-0.8,19.3-3l3.8-23.4   c-7.2,3.6-13.2,5.3-18.6,5.3c-12.7,0-20.4-9.4-20.4-25C1357.9,293.8,1369.3,277.9,1385.6,277.9L1385.6,277.9z"/>
	<path class="st6" d="M1570.1,258l-4.8,29.3c-5.3-7.9-11.5-11.7-20-11.7c-11.5,0-22,6.6-28.7,18.9l0.1-0.1l-13.9-8.3l1.1-8.9h-23.1   l-13.3,83.5h21.8l7.2-44.9c0,0,5.6-6.3,7-8.2c3.2-4.2,6.8-5.1,9.7-5.3c-2.5,7.1-4,15.4-4,24.8c0,20.9,10.8,34.7,26.7,34.7   c8,0,14.2-2.8,20.2-9.3l-1.1,8.2h20.7l16.6-102.7H1570.1L1570.1,258z M1543.5,341c-7.4,0-11.2-5.5-11.2-16.5   c0-16.4,7-28.1,16.9-28.1c7.5,0,11.6,5.8,11.6,16.4C1560.9,329.4,1553.7,341,1543.5,341L1543.5,341z"/>
	<path class="st6" d="M1443,323.4c-2.3-0.3-2.7-0.3-4.3-0.3c-12.4,0-18.6,4.8-18.6,12.7c0,5.2,3.1,8.5,7.8,8.5   C1438.4,344.3,1442.6,335.8,1443,323.4L1443,323.4z M1460.2,360.6h-18.9l0.4-8.7c-4.8,6.5-11.3,10.1-22.9,10.1   c-10.6,0-20.2-9.1-20.1-22.9c0.1-19.8,14.9-32.1,38.4-32.1c2.5,0,6.4-0.1,9.6,0.3c0.7-2.7,0.9-3.9,0.9-5.4c0-5.5-4.5-7.3-14.7-7.3   c-6.2,0-13.2,1.1-18.1,2.5l-3,0.9l-1.3,0.3l3-18.8c10.2-3.1,17.3-4.4,25.4-4.4c18.8,0,28.7,8.5,28.7,24.5c0,4.1,0.4,7.3-1,16.5   l-4.6,29.6l-0.8,5.3l-0.6,4.2l-0.4,2.9L1460.2,360.6L1460.2,360.6z"/>
	<path class="st6" d="M1161.7,295c4.3,0,10.1,0.4,16.4,1.3l3.1-19.3c-6.4-1-14.5-1.7-19.5-1.7c-24.4,0-32.4,13.1-32.4,28.5   c0,9.9,4.8,17.4,16.3,22.8c8.8,4.2,10.4,4.9,10.4,8.7c0,5.2-4.5,8.2-13.1,8.2c-6.5,0-12.6-1-19.5-3.3l-2.5,19.2l0.5,0.1l4,0.8   c1.3,0.3,3.2,0.6,5.7,0.8c5.2,0.5,9.6,0.8,12.4,0.8c24.2,0,34.3-9.4,34.3-27.9c0-11.5-5.4-18.2-16.4-23.2   c-9.1-4.2-10.2-4.8-10.2-8.7C1151.1,298.3,1155,295,1161.7,295L1161.7,295z"/>
	<path class="st5" d="M1414.6,254.7L1411,277c-7.8-4-13.5-5.5-19.5-5.5c-16.3,0-27.7,15.9-27.7,38.5c0,15.6,7.7,25,20.4,25   c5.4,0,11.3-1.7,18.6-5.3l-3.8,23.4c-8,2.2-13.2,3-19.3,3c-23.5,0-38.2-17-38.2-44.3c0-36.7,20.2-62.4,49.2-62.4   c3.7,0,7,0.4,9.8,1.1l9,2.3C1412.1,253.7,1412.7,253.9,1414.6,254.7L1414.6,254.7z"/>
	<path class="st5" d="M1344.5,270c-0.7-0.1-1.4-0.2-2.2-0.2c-7.2,0-11.2,3.7-17.9,13.6l1.9-12.7h-19.8l-13.3,83.5h21.8   c7.8-51.1,9.9-59.9,20.4-59.9c0.7,0,0.7,0,1.6,0.1c1.9-10.1,4.6-17.5,8.3-24.2L1344.5,270L1344.5,270z"/>
	<path class="st5" d="M1218.7,353.2c-6,1.9-10.6,2.7-15.7,2.7c-11.2,0-17.3-6.4-17.3-18.3c0-2.3,0.2-4.8,0.7-7.5l1.3-8.2l1-6.6   l9.5-57h21.7l-2.5,12.4h11.1l-3,20.3h-11.2l-5.8,34.8c-0.3,1.5-0.4,2.7-0.4,3.5c0,4.3,2.3,6.2,7.4,6.2c2.5,0,4.4-0.3,5.9-0.8   L1218.7,353.2L1218.7,353.2z"/>
	<path class="st5" d="M1134.8,297.1c0,10.6,5.1,17.8,16.6,23.3c8.8,4.2,10.2,5.4,10.2,9.2c0,5.2-3.9,7.5-12.5,7.5   c-6.5,0-12.6-1-19.5-3.3l-3,19.3l1,0.2l4,0.8c1.3,0.3,3.2,0.5,5.7,0.7c5.2,0.5,9.2,0.7,12,0.7c23,0,33.6-8.8,33.6-27.9   c0-11.5-4.4-18.2-15.4-23.2c-9.1-4.2-10.2-5.2-10.2-9.1c0-4.5,3.6-6.8,10.7-6.8c4.3,0,10.1,0.5,15.7,1.3l3.1-19.3   c-5.6-0.9-14.2-1.6-19.2-1.6C1143.2,268.8,1134.7,281.7,1134.8,297.1L1134.8,297.1z"/>
	<path class="st5" d="M1581.3,354.2h-20.7l1.1-8.2c-6,6.4-12.2,9.3-20.2,9.3c-15.9,0-26.4-13.8-26.4-34.7   c0-27.8,16.3-51.2,35.5-51.2c8.5,0,14.9,3.5,20.9,11.4l4.8-29.3h21.5L1581.3,354.2L1581.3,354.2z M1549.1,334.5   c10.2,0,17.3-11.6,17.3-28.2c0-10.6-4.1-16.4-11.6-16.4c-9.9,0-17,11.6-17,28.1C1537.9,329,1541.7,334.5,1549.1,334.5L1549.1,334.5   z"/>
	<path class="st5" d="M1285.4,352.4c-7.5,2.3-14.7,3.4-22.4,3.4c-24.4,0-37.1-12.8-37.1-37.4c0-28.7,16.2-49.8,38.1-49.8   c18,0,29.4,11.8,29.4,30.3c0,6.2-0.8,12.2-2.7,20.6h-43.4c-0.2,1.3-0.2,1.9-0.2,2.6c0,9.7,6.5,14.6,19.2,14.6   c7.8,0,14.8-1.6,22.7-5.3L1285.4,352.4L1285.4,352.4z M1273.1,302.7c0.1-1.7,0.2-3.2,0.2-4.3c0-6.8-3.8-10.8-10.3-10.8   c-6.9,0-11.9,5.3-13.9,15L1273.1,302.7L1273.1,302.7z"/>
	<polygon class="st5" points="1052,354.2 1030.2,354.2 1042.7,275.3 1014.8,354.2 999.9,354.2 998,275.7 984.9,354.2 964.4,354.2    981.5,251.5 1012.9,251.5 1013.8,315.1 1035,251.5 1068.9,251.5 1052,354.2  "/>
	<path class="st5" d="M1105.8,317c-2.3-0.3-3.3-0.3-4.9-0.3c-12.4,0-18.6,4.3-18.6,12.7c0,5.2,3.1,8.5,7.8,8.5   C1099,337.9,1105.4,329.3,1105.8,317L1105.8,317z M1121.7,354.2h-18.1l0.4-8.7c-5.5,6.8-12.9,10.1-22.9,10.1   c-11.8,0-19.9-9.3-19.9-22.8c0-20.3,14.1-32.2,38.3-32.2c2.5,0,5.7,0.2,8.9,0.7c0.7-2.8,0.9-3.9,0.9-5.4c0-5.5-3.8-7.6-14-7.6   c-6.2,0-13.3,0.9-18.1,2.3l-3,0.9l-2,0.5l3-18.8c10.9-3.2,18.1-4.4,26.1-4.4c18.8,0,28.7,8.5,28.7,24.5c0,4.1-0.3,7.3-1.8,16.5   l-4.6,29.6l-0.8,5.3l-0.6,4.2l-0.4,2.9L1121.7,354.2L1121.7,354.2z"/>
	<path class="st5" d="M1449.8,317c-2.3-0.3-3.3-0.3-4.9-0.3c-12.4,0-18.6,4.3-18.6,12.7c0,5.2,3.1,8.5,7.8,8.5   C1443,337.9,1449.5,329.3,1449.8,317L1449.8,317z M1465.7,354.2h-18.1l0.4-8.7c-5.5,6.8-12.9,10.1-22.9,10.1   c-11.8,0-19.9-9.3-19.9-22.8c0-20.3,14.1-32.2,38.3-32.2c2.5,0,5.6,0.2,8.9,0.7c0.7-2.8,0.9-3.9,0.9-5.4c0-5.5-3.8-7.6-14-7.6   c-6.2,0-13.3,0.9-18.1,2.3l-3,0.9l-2,0.5l3-18.8c10.9-3.2,18.1-4.4,26.1-4.4c18.8,0,28.7,8.5,28.7,24.5c0,4.1-0.3,7.3-1.8,16.5   l-4.6,29.6l-0.8,5.3l-0.6,4.2l-0.4,2.9L1465.7,354.2L1465.7,354.2z"/>
	<path class="st5" d="M1524.3,270c-0.7-0.1-1.4-0.2-2.2-0.2c-7.2,0-11.2,3.7-17.9,13.6l1.9-12.7h-19.8l-13.3,83.5h21.8   c7.8-51.1,9.9-59.9,20.4-59.9c0.7,0,0.6,0,1.5,0.1c1.9-10.1,4.6-17.5,8.3-24.2L1524.3,270L1524.3,270z"/>
</g>
<script xmlns="" type="text/javascript" charset="utf-8" id="zm-extension"/></svg>