<svg width="123" height="123" viewBox="0 0 123 123" fill="none" xmlns="http://www.w3.org/2000/svg">
<rect width="123" height="123" fill="white"/>
<path d="M35.8906 43.6797C35.8906 44.7943 35.7031 45.7682 35.3281 46.6016C34.9531 47.4297 34.4219 48.0625 33.7344 48.5C33.0469 48.9375 32.2448 49.1562 31.3281 49.1562C30.4323 49.1562 29.638 48.9375 28.9453 48.5C28.2526 48.0573 27.7135 47.4297 27.3281 46.6172C26.9479 45.7995 26.7526 44.8542 26.7422 43.7812V42.9609C26.7422 41.8672 26.9323 40.901 27.3125 40.0625C27.6927 39.224 28.2292 38.5833 28.9219 38.1406C29.6198 37.6927 30.4167 37.4688 31.3125 37.4688C32.224 37.4688 33.026 37.6901 33.7188 38.1328C34.4167 38.5703 34.9531 39.2083 35.3281 40.0469C35.7031 40.8802 35.8906 41.8516 35.8906 42.9609V43.6797ZM34.3984 42.9453C34.3984 41.5964 34.1276 40.5625 33.5859 39.8438C33.0443 39.1198 32.2865 38.7578 31.3125 38.7578C30.3646 38.7578 29.6172 39.1198 29.0703 39.8438C28.5286 40.5625 28.25 41.5625 28.2344 42.8438V43.6797C28.2344 44.987 28.5078 46.0156 29.0547 46.7656C29.6068 47.5104 30.3646 47.8828 31.3281 47.8828C32.2969 47.8828 33.0469 47.5312 33.5781 46.8281C34.1094 46.1198 34.3828 45.1068 34.3984 43.7891V42.9453ZM44.8281 49H43.3828V41.7422H39.4922V49H38.0391V40.5469H44.8281V49ZM54.0781 40.5469V49H52.625V41.7422H49.75L49.5781 44.9062C49.4844 46.3594 49.2396 47.3984 48.8438 48.0234C48.4531 48.6484 47.8307 48.974 46.9766 49H46.3984V47.7266L46.8125 47.6953C47.2812 47.6432 47.6172 47.3724 47.8203 46.8828C48.0234 46.3932 48.1536 45.487 48.2109 44.1641L48.3672 40.5469H54.0781ZM61.6172 49C61.5339 48.8333 61.4661 48.5365 61.4141 48.1094C60.7422 48.8073 59.9401 49.1562 59.0078 49.1562C58.1745 49.1562 57.4896 48.9219 56.9531 48.4531C56.4219 47.9792 56.1562 47.3802 56.1562 46.6562C56.1562 45.776 56.4896 45.0938 57.1562 44.6094C57.8281 44.1198 58.7708 43.875 59.9844 43.875H61.3906V43.2109C61.3906 42.7057 61.2396 42.3047 60.9375 42.0078C60.6354 41.7057 60.1901 41.5547 59.6016 41.5547C59.0859 41.5547 58.6536 41.6849 58.3047 41.9453C57.9557 42.2057 57.7812 42.5208 57.7812 42.8906H56.3281C56.3281 42.4688 56.4766 42.0625 56.7734 41.6719C57.0755 41.276 57.4818 40.9635 57.9922 40.7344C58.5078 40.5052 59.0729 40.3906 59.6875 40.3906C60.6615 40.3906 61.4245 40.6354 61.9766 41.125C62.5286 41.6094 62.8151 42.2786 62.8359 43.1328V47.0234C62.8359 47.7995 62.9349 48.4167 63.1328 48.875V49H61.6172ZM59.2188 47.8984C59.6719 47.8984 60.1016 47.7812 60.5078 47.5469C60.9141 47.3125 61.2083 47.0078 61.3906 46.6328V44.8984H60.2578C58.487 44.8984 57.6016 45.4167 57.6016 46.4531C57.6016 46.9062 57.7526 47.2604 58.0547 47.5156C58.3568 47.7708 58.7448 47.8984 59.2188 47.8984ZM71.2578 41.7188H68.4219V49H66.9766V41.7188H64.1953V40.5469H71.2578V41.7188ZM78.1328 40.5469H79.5781V49H78.1328V42.8359L74.2344 49H72.7891V40.5469H74.2344V46.7188L78.1328 40.5469ZM88.1797 41.7188H85.3438V49H83.8984V41.7188H81.1172V40.5469H88.1797V41.7188ZM91.1641 43.4609H93.3594C94.3177 43.4714 95.0755 43.7214 95.6328 44.2109C96.1901 44.7005 96.4688 45.3646 96.4688 46.2031C96.4688 47.0469 96.1823 47.724 95.6094 48.2344C95.0365 48.7448 94.2656 49 93.2969 49H89.7188V40.5469H91.1641V43.4609ZM91.1641 44.6406V47.8203H93.3125C93.8542 47.8203 94.2734 47.6823 94.5703 47.4062C94.8672 47.125 95.0156 46.7422 95.0156 46.2578C95.0156 45.7891 94.8698 45.4062 94.5781 45.1094C94.2917 44.8073 93.888 44.651 93.3672 44.6406H91.1641ZM47.2734 67H45.8281V59.7422H41.9375V67H40.4844V58.5469H47.2734V67ZM49.2109 62.6953C49.2109 61.8672 49.3724 61.1224 49.6953 60.4609C50.0234 59.7995 50.4766 59.2891 51.0547 58.9297C51.638 58.5703 52.3021 58.3906 53.0469 58.3906C54.1979 58.3906 55.1276 58.7891 55.8359 59.5859C56.5495 60.3828 56.9062 61.4427 56.9062 62.7656V62.8672C56.9062 63.6901 56.7474 64.4297 56.4297 65.0859C56.1172 65.737 55.6667 66.2448 55.0781 66.6094C54.4948 66.974 53.8229 67.1562 53.0625 67.1562C51.9167 67.1562 50.987 66.7578 50.2734 65.9609C49.5651 65.1641 49.2109 64.1094 49.2109 62.7969V62.6953ZM50.6641 62.8672C50.6641 63.8047 50.8802 64.5573 51.3125 65.125C51.75 65.6927 52.3333 65.9766 53.0625 65.9766C53.7969 65.9766 54.3802 65.6901 54.8125 65.1172C55.2448 64.5391 55.4609 63.7318 55.4609 62.6953C55.4609 61.7682 55.2396 61.0182 54.7969 60.4453C54.3594 59.8672 53.776 59.5781 53.0469 59.5781C52.3333 59.5781 51.7578 59.862 51.3203 60.4297C50.8828 60.9974 50.6641 61.8099 50.6641 62.8672ZM62.1094 65.9766C62.625 65.9766 63.0755 65.8203 63.4609 65.5078C63.8464 65.1953 64.0599 64.8047 64.1016 64.3359H65.4688C65.4427 64.8203 65.276 65.2812 64.9688 65.7188C64.6615 66.1562 64.25 66.5052 63.7344 66.7656C63.224 67.026 62.6823 67.1562 62.1094 67.1562C60.9583 67.1562 60.0417 66.7734 59.3594 66.0078C58.6823 65.237 58.3438 64.1849 58.3438 62.8516V62.6094C58.3438 61.7865 58.4948 61.0547 58.7969 60.4141C59.099 59.7734 59.5312 59.276 60.0938 58.9219C60.6615 58.5677 61.3307 58.3906 62.1016 58.3906C63.0495 58.3906 63.8359 58.6745 64.4609 59.2422C65.0911 59.8099 65.4271 60.5469 65.4688 61.4531H64.1016C64.0599 60.9062 63.8516 60.4583 63.4766 60.1094C63.1068 59.7552 62.6484 59.5781 62.1016 59.5781C61.3672 59.5781 60.7969 59.8438 60.3906 60.375C59.9896 60.901 59.7891 61.6641 59.7891 62.6641V62.9375C59.7891 63.9115 59.9896 64.6615 60.3906 65.1875C60.7917 65.7135 61.3646 65.9766 62.1094 65.9766ZM74.0234 58.5469V67H72.5703V59.7422H69.6953L69.5234 62.9062C69.4297 64.3594 69.1849 65.3984 68.7891 66.0234C68.3984 66.6484 67.776 66.974 66.9219 67H66.3438V65.7266L66.7578 65.6953C67.2266 65.6432 67.5625 65.3724 67.7656 64.8828C67.9688 64.3932 68.099 63.487 68.1562 62.1641L68.3125 58.5469H74.0234ZM79.8516 67.1562C78.7057 67.1562 77.7734 66.7812 77.0547 66.0312C76.3359 65.276 75.9766 64.2682 75.9766 63.0078V62.7422C75.9766 61.9036 76.1354 61.1562 76.4531 60.5C76.776 59.8385 77.224 59.3229 77.7969 58.9531C78.375 58.5781 79 58.3906 79.6719 58.3906C80.7708 58.3906 81.625 58.7526 82.2344 59.4766C82.8438 60.2005 83.1484 61.237 83.1484 62.5859V63.1875H77.4219C77.4427 64.0208 77.6849 64.6953 78.1484 65.2109C78.6172 65.7214 79.2109 65.9766 79.9297 65.9766C80.4401 65.9766 80.8724 65.8724 81.2266 65.6641C81.5807 65.4557 81.8906 65.1797 82.1562 64.8359L83.0391 65.5234C82.3307 66.612 81.2682 67.1562 79.8516 67.1562ZM79.6719 59.5781C79.0885 59.5781 78.599 59.7917 78.2031 60.2188C77.8073 60.6406 77.5625 61.2344 77.4688 62H81.7031V61.8906C81.6615 61.1562 81.4635 60.5885 81.1094 60.1875C80.7552 59.7812 80.276 59.5781 79.6719 59.5781ZM27.3047 83.8203L27.8047 83.2031C28.3672 82.474 28.6875 81.3802 28.7656 79.9219L28.8984 76.5469H34.3438V83.8203H35.4297V87.4844H33.9844V85H28.0859V87.4844H26.6406L26.6484 83.8203H27.3047ZM29.0156 83.8203H32.8984V77.8828H30.2969L30.2109 79.8984C30.1224 81.5807 29.724 82.888 29.0156 83.8203ZM36.6484 80.6953C36.6484 79.8672 36.8099 79.1224 37.1328 78.4609C37.4609 77.7995 37.9141 77.2891 38.4922 76.9297C39.0755 76.5703 39.7396 76.3906 40.4844 76.3906C41.6354 76.3906 42.5651 76.7891 43.2734 77.5859C43.987 78.3828 44.3438 79.4427 44.3438 80.7656V80.8672C44.3438 81.6901 44.1849 82.4297 43.8672 83.0859C43.5547 83.737 43.1042 84.2448 42.5156 84.6094C41.9323 84.974 41.2604 85.1562 40.5 85.1562C39.3542 85.1562 38.4245 84.7578 37.7109 83.9609C37.0026 83.1641 36.6484 82.1094 36.6484 80.7969V80.6953ZM38.1016 80.8672C38.1016 81.8047 38.3177 82.5573 38.75 83.125C39.1875 83.6927 39.7708 83.9766 40.5 83.9766C41.2344 83.9766 41.8177 83.6901 42.25 83.1172C42.6823 82.5391 42.8984 81.7318 42.8984 80.6953C42.8984 79.7682 42.6771 79.0182 42.2344 78.4453C41.7969 77.8672 41.2135 77.5781 40.4844 77.5781C39.7708 77.5781 39.1953 77.862 38.7578 78.4297C38.3203 78.9974 38.1016 79.8099 38.1016 80.8672ZM49.5469 83.9766C50.0625 83.9766 50.513 83.8203 50.8984 83.5078C51.2839 83.1953 51.4974 82.8047 51.5391 82.3359H52.9062C52.8802 82.8203 52.7135 83.2812 52.4062 83.7188C52.099 84.1562 51.6875 84.5052 51.1719 84.7656C50.6615 85.026 50.1198 85.1562 49.5469 85.1562C48.3958 85.1562 47.4792 84.7734 46.7969 84.0078C46.1198 83.237 45.7812 82.1849 45.7812 80.8516V80.6094C45.7812 79.7865 45.9323 79.0547 46.2344 78.4141C46.5365 77.7734 46.9688 77.276 47.5312 76.9219C48.099 76.5677 48.7682 76.3906 49.5391 76.3906C50.487 76.3906 51.2734 76.6745 51.8984 77.2422C52.5286 77.8099 52.8646 78.5469 52.9062 79.4531H51.5391C51.4974 78.9062 51.2891 78.4583 50.9141 78.1094C50.5443 77.7552 50.0859 77.5781 49.5391 77.5781C48.8047 77.5781 48.2344 77.8438 47.8281 78.375C47.4271 78.901 47.2266 79.6641 47.2266 80.6641V80.9375C47.2266 81.9115 47.4271 82.6615 47.8281 83.1875C48.2292 83.7135 48.8021 83.9766 49.5469 83.9766ZM60.8125 77.7188H57.9766V85H56.5312V77.7188H53.75V76.5469H60.8125V77.7188ZM67.3125 85C67.2292 84.8333 67.1615 84.5365 67.1094 84.1094C66.4375 84.8073 65.6354 85.1562 64.7031 85.1562C63.8698 85.1562 63.1849 84.9219 62.6484 84.4531C62.1172 83.9792 61.8516 83.3802 61.8516 82.6562C61.8516 81.776 62.1849 81.0938 62.8516 80.6094C63.5234 80.1198 64.4661 79.875 65.6797 79.875H67.0859V79.2109C67.0859 78.7057 66.9349 78.3047 66.6328 78.0078C66.3307 77.7057 65.8854 77.5547 65.2969 77.5547C64.7812 77.5547 64.349 77.6849 64 77.9453C63.651 78.2057 63.4766 78.5208 63.4766 78.8906H62.0234C62.0234 78.4688 62.1719 78.0625 62.4688 77.6719C62.7708 77.276 63.1771 76.9635 63.6875 76.7344C64.2031 76.5052 64.7682 76.3906 65.3828 76.3906C66.3568 76.3906 67.1198 76.6354 67.6719 77.125C68.224 77.6094 68.5104 78.2786 68.5312 79.1328V83.0234C68.5312 83.7995 68.6302 84.4167 68.8281 84.875V85H67.3125ZM64.9141 83.8984C65.3672 83.8984 65.7969 83.7812 66.2031 83.5469C66.6094 83.3125 66.9036 83.0078 67.0859 82.6328V80.8984H65.9531C64.1823 80.8984 63.2969 81.4167 63.2969 82.4531C63.2969 82.9062 63.4479 83.2604 63.75 83.5156C64.0521 83.7708 64.4401 83.8984 64.9141 83.8984ZM70.9297 85V76.5469H74.2266C75.3516 76.5469 76.2135 76.7448 76.8125 77.1406C77.4167 77.5312 77.7188 78.1068 77.7188 78.8672C77.7188 79.2578 77.6016 79.612 77.3672 79.9297C77.1328 80.2422 76.7865 80.4818 76.3281 80.6484C76.8385 80.7682 77.2474 81.0026 77.5547 81.3516C77.8672 81.7005 78.0234 82.1172 78.0234 82.6016C78.0234 83.3776 77.737 83.9714 77.1641 84.3828C76.5964 84.7943 75.7917 85 74.75 85H70.9297ZM72.375 81.2891V83.8359H74.7656C75.3698 83.8359 75.8203 83.724 76.1172 83.5C76.4193 83.276 76.5703 82.9609 76.5703 82.5547C76.5703 81.7109 75.9505 81.2891 74.7109 81.2891H72.375ZM72.375 80.1328H74.2422C75.5964 80.1328 76.2734 79.737 76.2734 78.9453C76.2734 78.1536 75.6328 77.7448 74.3516 77.7188H72.375V80.1328ZM82.5703 81.3984H81.5156V85H80.0625V76.5469H81.5156V80.125H82.4609L85.3047 76.5469H87.0547L83.7109 80.6094L87.3359 85H85.5L82.5703 81.3984ZM94.0469 76.5469H95.4922V85H94.0469V78.8359L90.1484 85H88.7031V76.5469H90.1484V82.7188L94.0469 76.5469Z" fill="#3D3737"/>
</svg>
