<svg width="123" height="123" viewBox="0 0 123 123" fill="none" xmlns="http://www.w3.org/2000/svg">
<rect width="123" height="123" fill="white"/>
<path d="M31.0045 73.2656C30.4207 73.2624 29.8405 73.1729 29.2823 73.0001C28.6701 72.8103 28.0784 72.5587 27.5161 72.249C26.7472 71.8495 26.0127 71.3857 25.3202 70.8626C24.6968 70.3692 24.1077 69.8332 23.5569 69.2584C22.8109 68.5044 22.115 67.7331 21.5427 67.0247C20.9097 66.2706 20.3632 65.4466 19.9136 64.5685L19.8755 64.4882V64.4857L19.8668 64.4671V64.4629V64.4587L19.8225 64.3629L19.8196 64.3565L19.8166 64.3502L19.7749 64.2577L19.7694 64.2459V64.2425L19.7385 64.1733L19.7289 64.1518L19.7218 64.1353L19.716 64.1222V64.1197L19.6838 64.0458L19.6805 64.0374L19.6717 64.0293L19.6337 63.9398L19.6274 63.9251L19.5902 63.8343L19.5877 63.8284L19.5852 63.8225L19.5501 63.7338L19.546 63.7233L19.5121 63.6359V63.6329L19.5075 63.6211L19.4754 63.5367L19.4724 63.5282L19.4687 63.5185C19.4587 63.4915 19.4491 63.4645 19.439 63.4366V63.4311L19.4332 63.4147C19.4219 63.3834 19.4131 63.3577 19.4052 63.3349V63.3298L19.3989 63.3108L19.3663 63.2272L19.3584 63.2027L19.3329 63.125L19.3287 63.1128L19.3254 63.1006C19.3162 63.0719 19.3087 63.0469 19.3016 63.0241L19.2945 63.0001L19.274 62.9317L19.2703 62.9186V62.9161L19.2661 62.9013L19.2452 62.8337L19.2419 62.8223L19.2385 62.805C19.2314 62.7784 19.2252 62.7552 19.2193 62.7333L19.2151 62.7206L19.2114 62.7067C19.2059 62.6851 19.1997 62.6619 19.1934 62.6357L19.1871 62.6104V62.6045C19.1825 62.5855 19.1763 62.5623 19.1704 62.5353L19.1617 62.5019C19.1566 62.4812 19.1516 62.4597 19.1462 62.4335L19.1429 62.4175L19.1391 62.4006C19.1341 62.3778 19.1295 62.355 19.1249 62.3326L19.1199 62.3014C19.1165 62.2853 19.1136 62.2693 19.1103 62.2533V62.2448V62.2376V62.2351L19.104 62.2013V62.1971L19.0952 62.1477C19.0923 62.1321 19.0898 62.1165 19.0873 62.1009L19.0789 62.0493C19.0764 62.0346 19.0744 62.0198 19.0718 62.0071C19.0693 61.9945 19.0664 61.9704 19.0635 61.9518L19.061 61.9337L19.0585 61.9155C19.0556 61.894 19.0526 61.8733 19.0501 61.8518L19.0405 61.8188V61.8129C19.0363 61.7884 19.0363 61.7682 19.0322 61.7496C19.0322 61.7382 19.0297 61.7268 19.0284 61.7154V61.7112C19.0263 61.6909 19.0242 61.669 19.0221 61.6487C19.0221 61.6369 19.0201 61.6246 19.0188 61.6128V61.6103C19.0171 61.5928 19.0156 61.5754 19.0142 61.5579C19.0142 61.5423 19.0117 61.5271 19.0109 61.5115C19.01 61.4959 19.0088 61.4807 19.0075 61.4655C19.0075 61.4482 19.0054 61.4309 19.0046 61.4131C19.0038 61.3954 19.0046 61.384 19.0021 61.3709C18.9996 61.3578 19.0021 61.3359 19 61.3186V61.316C19 61.3013 19 61.2865 19 61.2717C19 61.2569 19 61.2485 19 61.2371V61.2202C19 61.2042 19 61.1877 19 61.1717C19 61.1556 19 61.1455 19 61.1324V61.034C19 61.0138 19 60.9935 19 60.9732C19 60.9589 19 60.9445 19 60.931C19 60.9175 19 60.8951 19 60.877C19 60.8668 19 60.8571 19 60.847V60.8322C19 60.8094 19 60.79 19.0029 60.7706C19.0029 60.7592 19.0029 60.7474 19.0029 60.736C19.0029 60.7174 19.005 60.6976 19.0067 60.6739C19.0067 60.6629 19.0067 60.6515 19.0092 60.6406C19.0092 60.6195 19.0125 60.5983 19.0142 60.5772V60.5565V60.5418C19.0162 60.5207 19.0182 60.4996 19.0205 60.4784L19.0238 60.4451V60.4383C19.0238 60.4193 19.028 60.3987 19.0313 60.3742C19.0313 60.3666 19.0313 60.359 19.0343 60.3514V60.3404V60.3362C19.0368 60.3151 19.0397 60.294 19.0426 60.2728L19.0468 60.2429C19.0501 60.2201 19.0535 60.1973 19.0568 60.1749L19.061 60.1496V60.1458C19.0643 60.1247 19.0681 60.1014 19.0727 60.0748L19.0777 60.0453C19.0819 60.0208 19.0865 59.9959 19.0911 59.971L19.0948 59.9516V59.941C19.0994 59.9165 19.1044 59.8912 19.1094 59.8667L19.1136 59.8456V59.8418C19.1186 59.8173 19.1241 59.792 19.1295 59.7671V59.7591L19.1328 59.7434C19.1378 59.7202 19.1437 59.6957 19.1504 59.667L19.1558 59.6447C19.1617 59.6206 19.1679 59.5944 19.1759 59.5623L19.1788 59.5509L19.1813 59.5416C19.1884 59.5134 19.1959 59.4847 19.2043 59.4534L19.2064 59.4454L19.2089 59.4365C19.2172 59.4057 19.2247 59.3783 19.2318 59.3521L19.2373 59.3327C19.2444 59.3078 19.2531 59.2782 19.2619 59.2482V59.2449L19.2665 59.2297C19.2757 59.1993 19.2849 59.1697 19.2932 59.1427L19.2978 59.1279C19.307 59.0988 19.3171 59.0675 19.3287 59.0321L19.3313 59.0241V59.0211C19.3417 58.989 19.353 58.9565 19.363 58.9265L19.368 58.9126C19.3785 58.8818 19.3897 58.8505 19.4002 58.8214L19.4027 58.8147L19.4052 58.8079C19.4181 58.7724 19.429 58.7433 19.439 58.7155L19.4432 58.7041C19.4553 58.6724 19.4679 58.6395 19.4808 58.6061L19.4833 58.5998C19.4958 58.5673 19.5096 58.5331 19.5251 58.4951L19.528 58.4879C19.5422 58.4529 19.5556 58.4199 19.5698 58.3878L19.5744 58.3769C19.5865 58.3477 19.5999 58.3165 19.6161 58.2789L19.6212 58.2675C19.6337 58.2388 19.6475 58.2067 19.6654 58.1671L19.6692 58.1586C19.688 58.1164 19.7039 58.0818 19.7185 58.0501C20.589 56.1588 21.8906 54.8416 23.1518 53.5683L23.1768 53.543C23.9103 52.8017 24.595 52.1688 25.2696 51.6086C26.0412 50.961 26.8633 50.3775 27.7279 49.8638C28.2086 49.5747 28.7243 49.3499 29.2622 49.195C29.7232 49.0663 30.1992 49.0007 30.6775 49C31.3206 49.0047 31.9588 49.1145 32.5672 49.3251C33.1495 49.5261 33.7129 49.7789 34.2511 50.0803C35.1106 50.5468 35.9351 51.0762 36.7181 51.6643C37.4552 52.2191 38.1515 52.8271 38.8018 53.4835C39.4805 54.1774 40.1018 54.9265 40.6594 55.7231C41.1804 56.4343 41.6104 57.2092 41.9393 58.0294C42.1536 58.603 42.3358 59.1884 42.4848 59.7827C42.6148 60.2993 42.6879 60.8288 42.7029 61.3616C42.7132 61.8838 42.6506 62.4048 42.517 62.9093C42.3596 63.4866 42.136 64.0433 41.8507 64.568C41.4444 65.3381 40.969 66.0689 40.4305 66.7511C39.8941 67.4207 39.3201 68.0586 38.7111 68.6614C38.0532 69.3262 37.3602 69.9545 36.635 70.5435C35.876 71.1611 35.08 71.7307 34.2515 72.249C33.2864 72.8922 32.1603 73.2448 31.0045 73.2656ZM32.7819 70.5764C32.3 70.8631 31.7793 71.0776 31.2364 71.213C31.7793 71.0776 32.3 70.8631 32.7819 70.5764ZM25.6907 69.6079C25.7412 69.6425 25.7934 69.6776 25.8456 69.7118C25.788 69.6738 25.7375 69.6396 25.6907 69.6079ZM23.927 68.1206L24.016 68.208L23.927 68.1206ZM24.7779 59.6202L24.7504 59.6805V59.6852L24.7257 59.7409L24.7232 59.7472L24.6998 59.8017V59.8047V59.8076L24.6769 59.8633V59.8671L24.6539 59.925V59.9275L24.633 59.982V59.9858V59.9891L24.6142 60.0402L24.6117 60.0466L24.5937 60.0972V60.1014V60.1048C24.5879 60.1209 24.5825 60.1382 24.5762 60.1572V60.1614C24.5691 60.1829 24.5637 60.199 24.5591 60.2146L24.5566 60.2226L24.5419 60.2712L24.539 60.2813C24.5343 60.2968 24.5297 60.3123 24.5252 60.3277V60.3332V60.3387L24.5123 60.3851L24.491 60.3987L24.4885 60.4088L24.4784 60.4468L24.4755 60.4582C24.4718 60.4734 24.468 60.4886 24.4642 60.5038L24.4613 60.516L24.4517 60.5582L24.4492 60.5701L24.4459 60.5861L24.4404 60.6119V60.6186V60.6258L24.4333 60.6608V60.6676L24.425 60.6895L24.42 60.7166L24.4175 60.7309V60.7372V60.7461C24.4154 60.7592 24.4133 60.7719 24.4112 60.7849L24.4087 60.801L24.4033 60.839L24.4007 60.855C24.4007 60.8677 24.3974 60.8799 24.3957 60.8926V60.9023V60.912C24.3957 60.9238 24.3928 60.9357 24.3916 60.9475V60.9593V60.9699V60.9813C24.3916 60.9893 24.3916 60.9973 24.3895 61.0049V61.0247V61.0353C24.3895 61.0433 24.3895 61.0518 24.3895 61.0598C24.3895 61.0678 24.3895 61.072 24.3895 61.0784C24.3895 61.0847 24.3895 61.1003 24.3874 61.1113C24.3874 61.1155 24.3874 61.1197 24.3874 61.1244V61.132C24.3874 61.1429 24.3874 61.1539 24.3874 61.1653C24.3874 61.1767 24.3874 61.1814 24.3874 61.1894C24.3874 61.1987 24.3874 61.2084 24.3874 61.2177V61.2443C24.3874 61.2548 24.3874 61.2654 24.3874 61.2759V61.3523C24.3874 61.3612 24.3874 61.3705 24.3874 61.3794C24.3874 61.3882 24.3874 61.3984 24.3874 61.4081V61.4326C24.3874 61.4427 24.3874 61.4528 24.3874 61.463V61.4752V61.4874C24.3874 61.4942 24.3874 61.5005 24.3874 61.5073V61.5174V61.5305V61.5432C24.3874 61.5516 24.3874 61.5605 24.3874 61.5689V61.5833V61.5989V61.6183C24.3874 61.6297 24.3895 61.6411 24.3907 61.6525C24.3907 61.6572 24.3907 61.6614 24.3907 61.666V61.6736C24.3907 61.6854 24.3932 61.6968 24.3949 61.7082V61.7171V61.7289L24.3974 61.7467L24.3995 61.7627L24.4024 61.783V61.7931L24.4053 61.8125V61.8226V61.8349L24.4078 61.8492V61.8615V61.8737L24.4104 61.8877L24.4158 61.9164V61.9244L24.4187 61.9404V61.9484L24.4229 61.9704L24.4262 61.9864C24.4287 61.9991 24.4314 62.0116 24.4342 62.024L24.4379 62.0422L24.4438 62.0679L24.4463 62.0797V62.0886V62.0966L24.455 62.1338L24.4592 62.1511C24.463 62.1663 24.4663 62.179 24.4693 62.1904L24.4734 62.2064L24.4839 62.2448L24.486 62.2524L24.488 62.26C24.4914 62.2727 24.4951 62.2849 24.4985 62.2976L24.5031 62.3141L24.5144 62.3525L24.5165 62.3596V62.366L24.5294 62.4082V62.4145V62.4213L24.5361 62.4415L24.5432 62.4631L24.5461 62.4715V62.4766L24.557 62.5091L24.5603 62.5188L24.5649 62.5319V62.5378L24.5779 62.575L24.582 62.5872L24.5987 62.6328L24.6013 62.6391V62.6433L24.6192 62.6911L24.6226 62.6995L24.6414 62.748L24.6439 62.754L24.6606 62.7962L24.6635 62.8033V62.8063V62.8101C24.6702 62.8266 24.6773 62.8435 24.6844 62.8603L24.6869 62.8667L24.7078 62.9165L24.7107 62.9237L24.727 62.9612L24.7316 62.9718L24.7358 62.9811L24.7579 63.0313V63.0343L24.7604 63.0398L24.7838 63.0913V63.0955V63.0984L24.7905 63.1128L24.8084 63.1521V63.1546L24.8172 63.1727L24.8348 63.2103C25.3802 64.1735 26.0614 65.0514 26.857 65.8164C27.4882 66.4959 28.2326 67.058 29.0563 67.4772C29.6454 67.8261 30.3116 68.0202 30.9941 68.0417C31.6361 68.0302 32.2617 67.8344 32.7978 67.4772C33.6962 66.9109 34.5273 66.2423 35.2749 65.4846C35.9697 64.8228 36.5583 64.0557 37.0193 63.2107C37.7044 61.9155 37.5732 60.9732 37.0686 59.5801C36.6596 58.6512 36.0834 57.8071 35.3693 57.0909C34.6225 56.3396 33.7709 55.7027 32.8417 55.2004C32.2396 54.8378 31.5581 54.6317 30.8579 54.6005C30.2827 54.6067 29.7198 54.7699 29.2288 55.0729C28.301 55.639 27.451 56.3262 26.7007 57.1167L26.6874 57.1302C25.9066 57.8361 25.2601 58.6802 24.7796 59.621L24.7779 59.6202ZM23.6576 67.8525L23.8126 68.0079L23.6576 67.8525ZM37.2612 66.928C37.1396 67.0546 37.0106 67.1872 36.8731 67.3265C36.7123 67.489 36.5473 67.6507 36.3798 67.8099C36.5469 67.6507 36.714 67.489 36.8731 67.3265C37.0114 67.1863 37.14 67.0538 37.2612 66.9271V66.928ZM39.7024 63.581C39.6731 63.6388 39.643 63.6975 39.6121 63.7562C39.4102 64.1389 39.1885 64.5107 38.948 64.8699C39.1885 64.5107 39.4102 64.1389 39.6121 63.7562C39.6435 63.6967 39.6719 63.638 39.7028 63.5797L39.7024 63.581ZM39.9789 58.9071C40.1301 59.3773 40.2409 59.8598 40.3102 60.3493C40.2418 59.8592 40.131 59.3762 39.9789 58.9059V58.9071ZM36.313 53.475C36.5327 53.6743 36.7459 53.8785 36.9525 54.0876C37.5447 54.693 38.0868 55.3464 38.5733 56.0414C38.7846 56.3437 38.9755 56.6396 39.1405 56.9216C38.527 55.8912 37.7923 54.9396 36.9525 54.0876C36.7464 53.8779 36.5332 53.6737 36.313 53.475ZM32.5046 50.8694C32.657 50.9437 32.8137 51.0247 32.9829 51.1168C33.452 51.3701 33.9136 51.6504 34.3543 51.9447C33.9144 51.6491 33.4528 51.3722 32.9833 51.1168C32.8137 51.0264 32.6575 50.942 32.5046 50.8694ZM25.0587 62.5019C24.9799 62.3166 24.9135 62.1262 24.8598 61.932C24.7926 61.691 24.7543 61.4426 24.7458 61.1923C24.769 61.6444 24.8752 62.0882 25.0591 62.5011L25.0587 62.5019Z" fill="#53B7D1"/>
<path d="M56.4369 66.623C56.9774 66.623 57.4749 66.6121 57.9299 66.5905C58.385 66.5688 58.8544 66.5221 59.3381 66.4503C59.3802 66.4403 59.4244 66.4409 59.4662 66.4522C59.508 66.4634 59.5463 66.485 59.578 66.5148C59.6096 66.5447 59.6337 66.5819 59.6477 66.6233C59.6617 66.6647 59.6653 66.709 59.6583 66.7522V68.3691C59.6583 68.5557 59.545 68.6853 59.3169 68.7571C58.7601 68.9312 58.1888 69.0538 57.6101 69.1235C56.995 69.207 56.375 69.2501 55.7544 69.2527C54.7571 69.2803 53.7641 69.1118 52.8303 68.7567C52.0723 68.4543 51.404 67.96 50.8894 67.3213C50.3668 66.6443 49.9954 65.8609 49.801 65.025C49.5621 64.0159 49.4478 62.9808 49.4604 61.9432V60.9515C49.448 59.9146 49.5591 58.8798 49.7912 57.8697C49.9781 57.0352 50.342 56.2517 50.858 55.5735C51.3671 54.9335 52.0326 54.4387 52.7887 54.1381C53.7224 53.7828 54.7155 53.6144 55.7128 53.6421C56.8723 53.6505 58.0235 53.8396 59.126 54.2027C59.2238 54.2274 59.3128 54.2798 59.3822 54.3538C59.4283 54.4238 59.4509 54.5071 59.4462 54.5911V56.1434C59.4531 56.1866 59.4492 56.2308 59.4352 56.2722C59.4212 56.3136 59.3971 56.3509 59.3654 56.3808C59.3338 56.4106 59.2955 56.4321 59.2537 56.4433C59.2118 56.4546 59.1677 56.4552 59.1256 56.4452C58.7271 56.3889 58.2932 56.3457 57.8243 56.3156C57.3553 56.2855 56.8789 56.2714 56.3949 56.2734C55.8101 56.2568 55.2277 56.352 54.6779 56.5538C54.2273 56.7318 53.8377 57.039 53.5577 57.4378C53.2509 57.8952 53.0437 58.4132 52.9499 58.9576C52.8194 59.6722 52.7588 60.398 52.7683 61.1246V61.7929C52.7586 62.5199 52.8228 63.2459 52.9601 63.9595C53.0598 64.5026 53.2744 65.0174 53.5895 65.4688C53.8803 65.8632 54.2763 66.166 54.7309 66.3418C55.2775 66.5419 55.8562 66.637 56.4373 66.6222L56.4369 66.623ZM62.1333 54.2474C62.1333 54.0174 62.2392 53.9025 62.4531 53.9025H65.0981C65.1445 53.8958 65.192 53.9001 65.2364 53.9151C65.2808 53.93 65.3212 53.9553 65.3543 53.9887C65.3874 54.0222 65.4121 54.063 65.4269 54.1079C65.4417 54.1528 65.4462 54.2006 65.4396 54.2474V65.3928C65.4159 65.7171 65.4903 66.041 65.6529 66.3216C65.7651 66.4376 65.9028 66.5254 66.0547 66.5778C66.2067 66.6303 66.3685 66.6459 66.5275 66.6234H71.5822C71.6286 66.6167 71.6757 66.621 71.7201 66.636C71.7645 66.6509 71.8049 66.6761 71.838 66.7096C71.8711 66.7431 71.8962 66.7839 71.911 66.8288C71.9258 66.8737 71.9299 66.9215 71.9232 66.9683V68.5637C71.9232 68.8367 71.8027 68.9804 71.561 68.9948C70.779 69.0665 69.8828 69.1276 68.8727 69.178C67.8627 69.2283 66.8173 69.2536 65.7365 69.2536C65.1663 69.264 64.5966 69.206 64.0399 69.0809C63.6285 68.9913 63.2445 68.8031 62.9202 68.532C62.6293 68.2702 62.4183 67.93 62.3119 67.5513C62.1808 67.0669 62.12 66.5658 62.1312 66.0636L62.1333 54.2474ZM77.2149 68.6279C77.222 68.6777 77.2176 68.7284 77.2019 68.7762C77.1862 68.8239 77.1596 68.8672 77.1244 68.9028C77.0892 68.9383 77.0464 68.9651 76.9991 68.981C76.9519 68.9969 76.902 69.0015 76.8527 68.9943H74.2709C74.2216 69.0015 74.1716 68.9969 74.1244 68.981C74.0772 68.9651 74.0344 68.9383 73.9992 68.9028C73.964 68.8672 73.9374 68.8239 73.9217 68.7762C73.906 68.7284 73.9012 68.6777 73.9082 68.6279V54.2905C73.9082 54.0318 74.0292 53.9025 74.2709 53.9025H76.8527C77.0947 53.9025 77.2152 54.0318 77.2149 54.2905V68.6279ZM87.1987 66.6226C87.7395 66.6226 88.2375 66.6117 88.6925 66.59C89.1476 66.5684 89.6169 66.5216 90.1003 66.4499C90.1425 66.4399 90.1862 66.4406 90.228 66.4518C90.2698 66.4631 90.3085 66.4846 90.3402 66.5144C90.3719 66.5442 90.3959 66.5815 90.4099 66.6229C90.424 66.6643 90.4275 66.7086 90.4205 66.7518V68.3687C90.4205 68.5555 90.3069 68.6849 90.0791 68.7567C89.5224 68.9307 88.9509 69.0533 88.3723 69.1231C87.7571 69.2065 87.1374 69.2497 86.5166 69.2523C85.5193 69.2799 84.5263 69.1114 83.5926 68.7562C82.8345 68.4538 82.1658 67.9596 81.6512 67.3209C81.1294 66.6437 80.759 65.8603 80.5653 65.0246C80.3262 64.0155 80.2114 62.9804 80.2239 61.9428V60.9511C80.2115 59.9141 80.3225 58.8794 80.5547 57.8692C80.7417 57.0348 81.106 56.2514 81.6218 55.5731C82.131 54.9331 82.7965 54.4383 83.5526 54.1377C84.4863 53.7825 85.4794 53.614 86.4766 53.6416C87.6363 53.6501 88.7876 53.8392 89.8902 54.2022C89.9879 54.227 90.0763 54.2794 90.1456 54.3534C90.1917 54.4234 90.2143 54.5067 90.2096 54.5907V56.143C90.2166 56.1862 90.213 56.2304 90.199 56.2718C90.1851 56.3132 90.1613 56.3505 90.1297 56.3804C90.098 56.4102 90.0593 56.4317 90.0175 56.443C89.9757 56.4542 89.932 56.4548 89.8898 56.4448C89.4913 56.3885 89.0574 56.3453 88.5881 56.3152C88.1189 56.2851 87.6426 56.271 87.1591 56.273C86.5742 56.2564 85.9913 56.3515 85.4413 56.5534C84.9907 56.7313 84.6015 57.0386 84.3215 57.4374C84.0151 57.895 83.8079 58.4129 83.7137 58.9572C83.5837 59.6718 83.5227 60.3976 83.5322 61.1242V61.7925C83.5223 62.5194 83.5864 63.2454 83.7235 63.9591C83.8232 64.5023 84.0384 65.0171 84.3538 65.4683C84.6444 65.863 85.04 66.1658 85.4948 66.3414C86.0412 66.5415 86.6198 66.6366 87.2007 66.6217L87.1987 66.6226ZM103.604 53.9021C103.652 53.8975 103.699 53.9073 103.741 53.9303C103.783 53.9534 103.817 53.9885 103.839 54.0313C103.859 54.0771 103.866 54.1279 103.859 54.1777C103.851 54.2274 103.83 54.2739 103.797 54.3116L99.2315 61.1677L104.394 68.6059C104.422 68.6402 104.439 68.6815 104.445 68.7253C104.45 68.7691 104.444 68.8136 104.426 68.8538C104.406 68.9011 104.371 68.9404 104.327 68.9657C104.283 68.991 104.231 69.0009 104.181 68.9939H101.173C101.049 69.0001 100.925 68.9781 100.811 68.9293C100.712 68.8737 100.631 68.7916 100.576 68.692L96.2026 61.9652V68.6271C96.2095 68.6768 96.2053 68.7275 96.1895 68.7752C96.1738 68.8228 96.1472 68.8662 96.112 68.9017C96.0769 68.9373 96.034 68.964 95.9868 68.98C95.9396 68.9959 95.8896 69.0005 95.8403 68.9935H93.2581C93.2089 69.0005 93.1588 68.9959 93.1117 68.98C93.0645 68.9641 93.0216 68.9373 92.9864 68.9017C92.9513 68.8662 92.925 68.8228 92.9093 68.7752C92.8936 68.7275 92.8888 68.6768 92.8959 68.6271V54.2896C92.8959 54.031 93.0167 53.9017 93.2581 53.9017H95.8403C96.0818 53.9017 96.2023 54.031 96.2026 54.2896V60.3689L100.277 54.1596C100.332 54.0791 100.405 54.0134 100.491 53.9683C100.576 53.9232 100.672 53.9 100.768 53.9008L103.604 53.9021Z" fill="#3D3737"/>
</svg>
