<svg width="123" height="123" viewBox="0 0 123 123" fill="none" xmlns="http://www.w3.org/2000/svg">
<rect width="123" height="123" fill="white"/>
<path d="M37.4673 81.7913V78.0453C37.4673 76.6336 36.567 75.6834 35.1179 75.6709C34.3548 75.6585 33.5692 75.8954 33.0205 76.7334C32.609 76.0725 31.958 75.6709 31.0477 75.6709C30.4117 75.6709 29.7857 75.858 29.2994 76.5588V75.8206H28V81.7913H29.3119V78.4817C29.3119 77.4442 29.8855 76.8955 30.7734 76.8955C31.6363 76.8955 32.0727 77.4567 32.0727 78.4692V81.7913H33.3846V78.4817C33.3846 77.4442 33.9832 76.8955 34.8461 76.8955C35.734 76.8955 36.158 77.4567 36.158 78.4692V81.7913H37.4673ZM56.8808 75.8206H54.7584V74.0099H53.4466V75.8206H52.2345V77.0077H53.4466V79.7312C53.4466 81.1179 53.9828 81.9434 55.5191 81.9434C56.0802 81.9434 56.7312 81.7688 57.1427 81.482L56.7686 80.3697C56.382 80.5942 55.9555 80.7064 55.6188 80.7064C54.9704 80.7064 54.7559 80.3073 54.7559 79.7063V77.0077H56.8783V75.8206H56.8808ZM67.9618 75.6709C67.2111 75.6709 66.7247 76.0201 66.3881 76.5463V75.8206H65.1011V81.7913H66.4005V78.4443C66.4005 77.4567 66.8245 76.908 67.675 76.908C67.9368 76.908 68.2112 76.9454 68.488 77.0576L68.8871 75.8331C68.5978 75.7208 68.2237 75.6709 67.9618 75.6709ZM51.2094 76.2969C50.5859 75.8854 49.723 75.6734 48.7727 75.6734C47.2614 75.6734 46.2862 76.3967 46.2862 77.5839C46.2862 78.559 47.0095 79.1576 48.3463 79.3446L48.9573 79.4319C49.6681 79.5317 50.0073 79.7188 50.0073 80.0554C50.0073 80.5168 49.5334 80.7812 48.6455 80.7812C47.7452 80.7812 47.0968 80.4944 46.6603 80.1577L46.0493 81.1703C46.7601 81.694 47.6604 81.9459 48.6356 81.9459C50.3589 81.9459 51.3591 81.1329 51.3591 79.9981C51.3591 78.9481 50.5709 78.3994 49.274 78.2124L48.663 78.1251C48.1019 78.0502 47.6504 77.938 47.6504 77.539C47.6504 77.1025 48.0744 76.8382 48.7877 76.8382C49.5509 76.8382 50.2866 77.125 50.6483 77.3494L51.2094 76.2969ZM86.0111 75.6709C85.2604 75.6709 84.774 76.0201 84.4373 76.5463V75.8206H83.1504V81.7913H84.4498V78.4443C84.4498 77.4567 84.8738 76.908 85.7242 76.908C85.9861 76.908 86.2605 76.9454 86.5373 77.0576L86.9363 75.8331C86.6495 75.7208 86.2729 75.6709 86.0111 75.6709ZM69.2736 78.8059C69.2736 80.6166 70.5356 81.9409 72.4585 81.9409C73.3589 81.9409 73.9574 81.7414 74.6059 81.2276L73.9824 80.1777C73.496 80.5268 72.9823 80.7139 72.4211 80.7139C71.3836 80.7014 70.6229 79.9507 70.6229 78.8034C70.6229 77.6537 71.3861 76.9055 72.4211 76.893C72.9823 76.893 73.496 77.0801 73.9824 77.4292L74.6059 76.3793C73.9574 75.868 73.3564 75.666 72.4585 75.666C70.5331 75.6709 69.2736 76.9953 69.2736 78.8059ZM81.4395 78.8059V75.8206H80.1401V76.5463C79.7286 76.0101 79.1026 75.6709 78.2546 75.6709C76.5811 75.6709 75.2693 76.9828 75.2693 78.8059C75.2693 80.6291 76.5811 81.9409 78.2546 81.9409C79.1051 81.9409 79.7286 81.6042 80.1401 81.0655V81.7888H81.4395V78.8059ZM76.6061 78.8059C76.6061 77.756 77.2919 76.8955 78.4167 76.8955C79.4917 76.8955 80.2149 77.721 80.2149 78.8059C80.2149 79.8908 79.4917 80.7164 78.4167 80.7164C77.2919 80.7189 76.6061 79.8559 76.6061 78.8059ZM60.9286 75.6709C59.1803 75.6709 57.9557 76.9454 57.9557 78.8059C57.9557 80.7039 59.2302 81.9409 61.0159 81.9409C61.9163 81.9409 62.7393 81.7165 63.465 81.1029L62.8291 80.1402C62.3303 80.5393 61.6918 80.7637 61.0932 80.7637C60.2552 80.7637 59.4946 80.3772 59.3075 79.3022H63.7419C63.7544 79.1401 63.7668 78.978 63.7668 78.8034C63.7519 76.9454 62.6021 75.6709 60.9286 75.6709ZM60.9037 76.8332C61.7417 76.8332 62.2779 77.3569 62.4151 78.2822H59.3175C59.4547 77.4193 59.9784 76.8332 60.9037 76.8332ZM93.4931 78.8059V73.4238H92.1937V76.5463C91.7822 76.0101 91.1562 75.6709 90.3083 75.6709C88.6348 75.6709 87.3229 76.9828 87.3229 78.8059C87.3229 80.6291 88.6348 81.9409 90.3083 81.9409C91.1587 81.9409 91.7822 81.6042 92.1937 81.0655V81.7888H93.4931V78.8059ZM95.012 81.2426C95.0644 81.2426 95.1143 81.2526 95.1616 81.2725C95.209 81.2925 95.2489 81.3199 95.2838 81.3548C95.3188 81.3897 95.3462 81.4297 95.3661 81.4745C95.3861 81.5194 95.3961 81.5693 95.3961 81.6217C95.3961 81.6741 95.3861 81.7215 95.3661 81.7688C95.3462 81.8137 95.3188 81.8536 95.2838 81.8886C95.2489 81.9235 95.209 81.9509 95.1616 81.9709C95.1143 81.9908 95.0644 82.0008 95.012 82.0008C94.9571 82.0008 94.9072 81.9908 94.8599 81.9709C94.8125 81.9509 94.7726 81.9235 94.7377 81.8886C94.7027 81.8536 94.6753 81.8137 94.6553 81.7688C94.6354 81.7239 94.6254 81.6741 94.6254 81.6217C94.6254 81.5693 94.6354 81.5194 94.6553 81.4745C94.6753 81.4272 94.7027 81.3873 94.7377 81.3548C94.7726 81.3199 94.8125 81.2925 94.8599 81.2725C94.9072 81.2526 94.9571 81.2426 95.012 81.2426ZM95.012 81.916C95.0519 81.916 95.0918 81.9085 95.1267 81.8935C95.1616 81.8786 95.1941 81.8561 95.219 81.8312C95.2464 81.8038 95.2664 81.7738 95.2813 81.7364C95.2963 81.7015 95.3038 81.6616 95.3038 81.6217C95.3038 81.5818 95.2963 81.5419 95.2813 81.507C95.2664 81.4721 95.2464 81.4396 95.219 81.4122C95.1916 81.3848 95.1616 81.3648 95.1267 81.3498C95.0918 81.3349 95.0544 81.3274 95.012 81.3274C94.9696 81.3274 94.9322 81.3349 94.8948 81.3498C94.8574 81.3648 94.8274 81.3848 94.8 81.4122C94.7726 81.4396 94.7526 81.4696 94.7377 81.507C94.7227 81.5419 94.7152 81.5818 94.7152 81.6217C94.7152 81.6616 94.7227 81.7015 94.7377 81.7364C94.7526 81.7713 94.7726 81.8038 94.8 81.8312C94.8274 81.8586 94.8574 81.8786 94.8948 81.8935C94.9322 81.9085 94.9721 81.916 95.012 81.916ZM95.0344 81.4421C95.0793 81.4421 95.1143 81.4521 95.1392 81.4721C95.1641 81.492 95.1766 81.5194 95.1766 81.5544C95.1766 81.5843 95.1666 81.6067 95.1467 81.6267C95.1267 81.6466 95.0993 81.6566 95.0644 81.6616L95.1791 81.7938H95.0893L94.9821 81.6616H94.9472V81.7938H94.8723V81.4421H95.0344ZM94.9472 81.5095V81.6042H95.0344C95.0544 81.6042 95.0694 81.5992 95.0818 81.5918C95.0943 81.5843 95.0993 81.5718 95.0993 81.5568C95.0993 81.5419 95.0943 81.5294 95.0818 81.5219C95.0694 81.5145 95.0544 81.5095 95.0344 81.5095H94.9472ZM88.6597 78.8059C88.6597 77.756 89.3456 76.8955 90.4704 76.8955C91.5453 76.8955 92.2686 77.721 92.2686 78.8059C92.2686 79.8908 91.5453 80.7164 90.4704 80.7164C89.3481 80.7189 88.6597 79.8559 88.6597 78.8059ZM44.7898 78.8059V75.8206H43.4904V76.5463C43.0789 76.0101 42.4529 75.6709 41.6049 75.6709C39.9314 75.6709 38.6196 76.9828 38.6196 78.8059C38.6196 80.6291 39.9314 81.9409 41.6049 81.9409C42.4554 81.9409 43.0789 81.6042 43.4904 81.0655V81.7888H44.7898V78.8059ZM39.9539 78.8059C39.9539 77.756 40.6397 76.8955 41.7645 76.8955C42.8395 76.8955 43.5627 77.721 43.5627 78.8059C43.5627 79.8908 42.8395 80.7164 41.7645 80.7164C40.6422 80.7189 39.9539 79.8559 39.9539 78.8059Z" fill="#231F20"/>
<path d="M66.7317 44.0186H54.3672V66.2394H66.7317V44.0186Z" fill="#FF5F00"/>
<path d="M55.152 55.1309C55.152 50.6247 57.2638 46.6092 60.5492 44.0224C58.1469 42.1305 55.1127 41 51.8155 41C44.0121 41 37.6846 47.3275 37.6846 55.1309C37.6846 62.9343 44.0121 69.2619 51.8155 69.2619C55.1127 69.2619 58.143 68.1314 60.5492 66.2394C57.2638 63.6527 55.152 59.6371 55.152 55.1309Z" fill="#EB001B"/>
<path d="M83.41 55.1309C83.41 62.9343 77.0825 69.2619 69.2791 69.2619C65.9819 69.2619 62.9516 68.1314 60.5454 66.2394C63.8309 63.6527 65.9426 59.6371 65.9426 55.1309C65.9426 50.6247 63.8309 46.6092 60.5454 44.0224C62.9477 42.1305 65.9819 41 69.2791 41C77.0864 41 83.41 47.3275 83.41 55.1309Z" fill="#F79E1B"/>
<path d="M82.0629 63.8874V63.4321H82.2474V63.3379H81.7803V63.4321H81.9608V63.8874H82.0629ZM82.9696 63.8874V63.3379H82.8283L82.6635 63.7147L82.4986 63.3379H82.3534V63.8874H82.4554V63.4753L82.6085 63.8325H82.7145L82.8676 63.4753V63.8914H82.9696V63.8874Z" fill="#F79E1B"/>
</svg>
