<svg width="48" height="49" viewBox="0 0 48 49" fill="none" xmlns="http://www.w3.org/2000/svg">
<rect width="48" height="48" transform="matrix(1 0 0 -1 0 48.0117)" fill="#F0F0F0"/>
<rect width="48" height="48" transform="matrix(1 0 0 -1 0 48.0117)" fill="#F0F0F0"/>
<path fill-rule="evenodd" clip-rule="evenodd" d="M33.9264 29.001C34.2588 29.4767 34.2923 30.2265 33.9394 30.8076C33.6243 31.3266 31.7386 33.3182 31.125 33.9582C30.593 34.5141 29.875 35.0708 29.1684 35.0708H14.3723C12.3726 35.0708 12.252 34.3928 12.252 32.86V26.642C12.252 25.0765 12.714 24.624 14.0795 24.624H29.1684C29.875 24.624 30.5039 24.9847 31.2262 25.7192C31.8394 26.3425 33.6713 28.6349 33.9264 29.001Z" fill="#33CCCC"/>
<path fill-rule="evenodd" clip-rule="evenodd" d="M33.9264 29.001C34.2588 29.4767 34.2923 30.2265 33.9394 30.8076C33.6243 31.3266 31.7386 33.3182 31.125 33.9582C30.593 34.5141 29.875 35.0708 29.1684 35.0708H14.3723C12.3726 35.0708 12.252 34.3928 12.252 32.86V26.642C12.252 25.0765 12.714 24.624 14.0795 24.624H29.1684C29.875 24.624 30.5039 24.9847 31.2262 25.7192C31.8394 26.3425 33.6713 28.6349 33.9264 29.001Z" fill="url(#paint0_linear)"/>
<path fill-rule="evenodd" clip-rule="evenodd" d="M15.6063 27.0279V26.9869C15.6063 26.787 15.5895 26.5894 15.2619 26.5894H14.0254C13.738 26.5894 13.7199 26.7483 13.7199 26.9953V28.6385C14.3218 27.7778 14.9892 27.3779 15.6063 27.0279ZM23.9016 32.9656V32.8774H23.9024V28.9223C23.9024 27.2637 23.1733 26.4345 21.7151 26.4347C21.311 26.4309 20.9137 26.5395 20.5678 26.7483C20.2206 26.9575 19.8871 27.2498 19.5672 27.625C19.41 27.2172 19.1729 26.9169 18.8559 26.724C18.5388 26.5311 18.1281 26.4347 17.6236 26.4347C17.0396 26.4347 16.3607 26.6392 15.8795 27.0351C15.7719 27.1429 13.7196 28.7583 13.7196 30.4173V32.9494C13.7196 33.0299 13.6807 33.3354 14.0231 33.3354H15.3104C15.7106 33.3354 15.6715 33.0734 15.6715 32.9656V28.8703C15.8888 28.5821 16.3328 27.8702 17.0539 27.8702C17.3307 27.8702 17.53 27.9639 17.6519 28.1512C17.7738 28.3386 17.8349 28.6527 17.8355 29.0936V32.2922H17.8339V32.9495C17.8339 33.03 17.7951 33.3355 18.1373 33.3355H19.4082C19.8086 33.3355 19.7696 33.0735 19.7696 32.9657V32.8775H19.7711V28.8705C20.0039 28.5822 20.4678 27.8704 21.1531 27.8704C21.4351 27.8704 21.6384 27.9641 21.7632 28.1514C21.8879 28.3388 21.9502 28.6529 21.9501 29.0938V32.2924H21.9487V32.9496C21.9487 33.0302 21.9101 33.3357 22.2525 33.3357H23.5402C23.9407 33.3355 23.9016 33.0734 23.9016 32.9656ZM30.9912 31.3576C30.5336 32.589 29.4371 33.2772 28.0785 33.2772C26.1106 33.2772 24.8108 31.9363 24.8108 29.9251C24.8108 27.9381 26.1602 26.4979 28.0172 26.4979C29.8543 26.4979 31.0864 27.7773 31.1646 29.8381C31.1746 30.1015 31.0977 30.3341 30.7687 30.3341H26.593C26.6178 31.4392 27.1506 32.0353 28.0911 32.0353C28.6648 32.0353 29.0046 31.788 29.3006 31.3033C29.4292 31.0923 29.693 31.1041 29.693 31.1041H30.7687C30.9443 31.1039 31.0221 31.2755 30.9912 31.3575V31.3576ZM28.0172 27.7765C27.2367 27.7765 26.6921 28.3227 26.593 29.2172H29.391C29.3167 28.4348 28.8956 27.7765 28.0172 27.7765Z" fill="white"/>
<path fill-rule="evenodd" clip-rule="evenodd" d="M19.9375 13.2317C19.7721 12.9681 19.5575 12.7388 19.3055 12.5563C19.0535 12.3792 18.7767 12.2404 18.4841 12.1443C18.1591 12.0384 17.8234 11.9687 17.4832 11.9363C17.0939 11.8981 16.703 11.8796 16.3119 11.8809H12.8842C12.576 11.8809 12.2529 12.0834 12.2529 12.4651V18.0232C12.6871 18.9496 13.5329 19.933 14.4946 20.403V19.3007C14.4946 18.7191 14.9326 18.5891 15.1138 18.5891H16.1273C17.5233 18.5891 18.5888 18.2959 19.3238 17.7096C20.0588 17.1241 20.4262 16.2544 20.4262 15.1006C20.4283 14.7672 20.3897 14.4348 20.3111 14.1107C20.233 13.8001 20.1069 13.5035 19.9375 13.2317ZM17.9401 16.0862C17.8217 16.2916 17.6452 16.4573 17.4328 16.5626C17.2026 16.6724 16.9539 16.7383 16.6996 16.7568C16.4225 16.7815 16.1365 16.7939 15.8413 16.794H14.8782C14.6426 16.794 14.4946 16.6022 14.4946 16.3192V14.0468C14.4946 13.792 14.6607 13.6851 14.8599 13.6851H15.8413C16.161 13.6851 16.4608 13.6943 16.7408 13.7128C16.9927 13.7243 17.2401 13.784 17.4696 13.8887C17.6741 13.9861 17.8434 14.1445 17.9541 14.3422C18.0707 14.5454 18.129 14.8322 18.1291 15.2027C18.1291 15.5788 18.0661 15.8733 17.9401 16.0862ZM14.4946 20.7622C13.4369 20.3396 12.7279 19.8355 12.2529 19.3357V22.0189C12.2529 22.0189 12.2138 22.4565 12.6397 22.4565H14.1351C14.5453 22.4565 14.4947 22.0189 14.4947 22.0189V20.7622H14.4946ZM35.6875 14.8049H34.3454C34.0727 14.8049 33.893 14.9195 33.7848 15.2195C33.6766 15.5194 32.2541 19.4813 32.2541 19.4813C32.2541 19.4813 30.8933 15.6013 30.7862 15.3008C30.6791 15.0004 30.5033 14.8049 30.1865 14.8049H28.9533C28.5183 14.8049 28.5183 15.1466 28.5722 15.2821C28.616 15.3916 30.3047 20.0204 30.9479 21.7837C31.0996 22.2001 31.1595 22.3253 31.1642 22.4796C31.1689 22.6338 31.0121 22.9576 30.9037 23.1435C30.854 23.2282 30.7968 23.3086 30.733 23.3834C31.9939 23.0058 33.4473 21.6359 34.1988 20.1518C34.942 18.0835 35.922 15.3512 35.9645 15.2115C36.0329 14.9851 36.0322 14.8049 35.6875 14.8049ZM29.7614 23.7769C29.6448 23.7749 29.5285 23.7665 29.413 23.7518C29.2715 23.733 29.0068 23.7595 29.0068 23.9913V25.0275C29.0068 25.423 29.1959 25.4494 29.3 25.4728C29.6132 25.5381 29.9325 25.569 30.2524 25.5649C30.6764 25.5649 31.0453 25.4877 31.3592 25.3335C31.6761 25.1766 31.9585 24.958 32.1898 24.6905C32.4447 24.3926 32.6602 24.0631 32.8308 23.71C33.0182 23.3307 33.198 22.9129 33.3704 22.4564C33.3704 22.4564 33.4443 22.2502 33.566 21.9123C33.1958 22.286 31.4509 23.9406 29.7614 23.7769ZM27.7459 16.035C27.6731 15.8618 27.5736 15.7011 27.4511 15.5586C27.329 15.4219 27.1893 15.3021 27.0355 15.2023C26.8697 15.0944 26.6937 15.003 26.5101 14.9293C26.3226 14.8561 26.1298 14.7974 25.9334 14.7537C25.7101 14.7048 25.4835 14.6723 25.2554 14.6566C25.0091 14.6382 24.7323 14.629 24.4249 14.6289C22.3918 14.6289 21.2341 15.2714 20.9518 16.5566C20.86 16.9554 21.2545 16.9788 21.2545 16.9788H22.5052C22.8318 16.9788 22.8177 16.8736 22.9762 16.5784C23.0332 16.4177 23.1359 16.2771 23.2717 16.1739C23.5117 15.989 23.8715 15.8966 24.351 15.8965C24.8124 15.8965 25.1476 15.9859 25.3566 16.1646C25.5656 16.3432 25.6886 16.6146 25.7256 16.9788C25.7256 17.4011 25.5939 17.6829 25.0834 17.6829C23.8388 17.6377 22.5015 17.7785 21.7482 18.2104C20.995 18.6422 20.5691 19.4865 20.5691 20.3932C20.5691 20.7631 20.6352 21.0869 20.7675 21.3647C20.8957 21.6371 21.0852 21.8762 21.3211 22.0631C21.5715 22.2584 21.8585 22.4016 22.1651 22.4841C22.5136 22.5797 22.8736 22.6265 23.235 22.6232C23.7763 22.6232 24.2545 22.5553 24.6697 22.4195C25.0848 22.284 25.7271 21.8372 25.8089 21.772V22.0102C25.8089 22.2462 25.8808 22.4567 26.1624 22.4567H27.6169C27.9113 22.4567 27.9767 22.2462 27.9767 21.9872V17.5064C27.9793 17.2279 27.9608 16.9495 27.9215 16.6738C27.8903 16.4543 27.8313 16.2396 27.7459 16.035ZM25.7626 20.4282C25.7626 20.4282 25.387 21.2084 24.0466 21.2084C23.6778 21.2084 23.378 21.1251 23.1472 20.9587C22.9164 20.7922 22.801 20.5331 22.8012 20.1814C22.8012 19.7247 22.9888 19.4023 23.3641 19.2142C23.7391 19.0263 24.4897 18.9189 25.0523 18.9321C25.6148 18.9453 25.7626 19.3007 25.7626 19.5461V20.4284V20.4282Z" fill="#333333"/>
<defs>
<linearGradient id="paint0_linear" x1="41.439" y1="27.6404" x2="38.5663" y2="44.9907" gradientUnits="userSpaceOnUse">
<stop offset="0.47231" stop-color="#00CCCC"/>
<stop offset="1" stop-color="#3399FF"/>
</linearGradient>
</defs>
</svg>
