<svg width="123" height="123" viewBox="0 0 123 123" fill="none" xmlns="http://www.w3.org/2000/svg">
<rect width="123" height="123" fill="white"/>
<path fill-rule="evenodd" clip-rule="evenodd" d="M99.8558 60.281C100.417 61.0835 100.473 62.3484 99.8778 63.3287C99.3463 64.2042 96.1652 67.5638 95.13 68.6434C94.2327 69.5812 93.0216 70.5202 91.8295 70.5202H66.8698C63.4965 70.5202 63.293 69.3766 63.293 66.7908V56.3017C63.293 53.6608 64.0724 52.8975 66.3759 52.8975H91.8295C93.0216 52.8975 94.0824 53.506 95.3009 54.745C96.3353 55.7963 99.4255 59.6635 99.8558 60.281Z" fill="#33CCCC"/>
<path fill-rule="evenodd" clip-rule="evenodd" d="M99.8558 60.281C100.417 61.0835 100.473 62.3484 99.8778 63.3287C99.3463 64.2042 96.1652 67.5638 95.13 68.6434C94.2327 69.5812 93.0216 70.5202 91.8295 70.5202H66.8698C63.4965 70.5202 63.293 69.3766 63.293 66.7908V56.3017C63.293 53.6608 64.0724 52.8975 66.3759 52.8975H91.8295C93.0216 52.8975 94.0824 53.506 95.3009 54.745C96.3353 55.7963 99.4255 59.6635 99.8558 60.281Z" fill="url(#paint0_linear)"/>
<path fill-rule="evenodd" clip-rule="evenodd" d="M68.9515 56.951V56.8819C68.9515 56.5447 68.9232 56.2114 68.3707 56.2114H66.2847C65.7999 56.2114 65.7693 56.4795 65.7693 56.896V59.6681C66.7847 58.2161 67.9105 57.5415 68.9515 56.951ZM82.945 66.9675V66.8186H82.9464V60.1468C82.9464 57.3489 81.7164 55.9501 79.2566 55.9504C78.5748 55.9439 77.9048 56.1271 77.3211 56.4795C76.7356 56.8324 76.1729 57.3254 75.6333 57.9584C75.368 57.2705 74.9681 56.7638 74.4333 56.4385C73.8985 56.1131 73.2055 55.9504 72.3545 55.9504C71.3694 55.9504 70.2242 56.2954 69.4125 56.9632C69.2309 57.1451 65.7688 59.87 65.7688 62.6687V66.9401C65.7688 67.076 65.7033 67.5914 66.2808 67.5914H68.4524C69.1275 67.5914 69.0616 67.1493 69.0616 66.9675V60.059C69.4281 59.5728 70.1771 58.372 71.3936 58.372C71.8605 58.372 72.1967 58.53 72.4023 58.8461C72.6079 59.1621 72.7111 59.692 72.712 60.4357V65.8316H72.7094V66.9403C72.7094 67.0761 72.6439 67.5915 73.2211 67.5915H75.365C76.0405 67.5915 75.9746 67.1494 75.9746 66.9676V66.8188H75.9771V60.0593C76.3699 59.5731 77.1524 58.3723 78.3085 58.3723C78.7841 58.3723 79.1272 58.5303 79.3377 58.8464C79.5481 59.1624 79.6532 59.6923 79.6529 60.436V65.8318H79.6507V66.9406C79.6507 67.0764 79.5855 67.5918 80.1632 67.5918H82.3354C83.0109 67.5915 82.945 67.1493 82.945 66.9675ZM94.9045 64.2549C94.1325 66.3322 92.2828 67.4931 89.9911 67.4931C86.6715 67.4931 84.4787 65.231 84.4787 61.8383C84.4787 58.4865 86.755 56.057 89.8877 56.057C92.9866 56.057 95.0651 58.2152 95.197 61.6917C95.2139 62.1359 95.0841 62.5284 94.5291 62.5284H87.4852C87.527 64.3926 88.4258 65.3981 90.0123 65.3981C90.9801 65.3981 91.5534 64.9809 92.0526 64.1632C92.2696 63.8074 92.7146 63.8272 92.7146 63.8272H94.5291C94.8253 63.827 94.9566 64.1165 94.9045 64.2547V64.2549ZM89.8877 58.2139C88.571 58.2139 87.6524 59.1354 87.4852 60.6442H92.2051C92.0798 59.3244 91.3694 58.2139 89.8877 58.2139Z" fill="white"/>
<path fill-rule="evenodd" clip-rule="evenodd" d="M34.9648 52.2787C34.6858 51.8341 34.3239 51.4473 33.8987 51.1394C33.4736 50.8407 33.0067 50.6065 32.5131 50.4444C31.9649 50.2658 31.3986 50.1482 30.8246 50.0936C30.168 50.029 29.5085 49.9978 28.8487 50.0001H23.0665C22.5466 50.0001 22.0016 50.3416 22.0016 50.9856V60.3616C22.7341 61.9243 24.1609 63.5833 25.7831 64.3762V62.5167C25.7831 61.5354 26.522 61.3162 26.8276 61.3162H28.5373C30.8923 61.3162 32.6897 60.8217 33.9296 59.8326C35.1694 58.8449 35.7893 57.3779 35.7893 55.4314C35.7928 54.8689 35.7276 54.3082 35.5951 53.7616C35.4634 53.2375 35.2507 52.7372 34.9648 52.2787ZM31.5954 57.094C31.3957 57.4405 31.0979 57.7201 30.7396 57.8976C30.3513 58.0829 29.9318 58.1941 29.5027 58.2254C29.0354 58.267 28.5528 58.2879 28.055 58.288H26.4303C26.0329 58.288 25.7831 57.9644 25.7831 57.4872V53.6538C25.7831 53.2239 26.0634 53.0436 26.3994 53.0436H28.055C28.5943 53.0436 29.1 53.0591 29.5722 53.0903C29.9972 53.1096 30.4146 53.2104 30.8017 53.3871C31.1467 53.5513 31.4322 53.8186 31.619 54.152C31.8157 54.4948 31.9141 54.9787 31.9143 55.6036C31.9143 56.238 31.808 56.7348 31.5954 57.094ZM25.7831 64.9821C23.9989 64.2692 22.8028 63.4188 22.0016 62.5757V67.102C22.0016 67.102 21.9356 67.8402 22.6541 67.8402H25.1767C25.8687 67.8402 25.7834 67.102 25.7834 67.102V64.9821H25.7831ZM61.5337 54.9325H59.2697C58.8096 54.9325 58.5065 55.1259 58.324 55.632C58.1415 56.138 55.7418 62.8214 55.7418 62.8214C55.7418 62.8214 53.4463 56.276 53.2657 55.7692C53.085 55.2624 52.7884 54.9325 52.254 54.9325H50.1737C49.4398 54.9325 49.4398 55.509 49.5308 55.7376C49.6046 55.9223 52.4534 63.7307 53.5385 66.7053C53.7943 67.4076 53.8954 67.6189 53.9033 67.8791C53.9112 68.1393 53.6467 68.6855 53.4639 68.999C53.38 69.142 53.2836 69.2775 53.1759 69.4037C55.303 68.7668 57.7546 66.4558 59.0224 63.9523C60.2761 60.4632 61.9293 55.8542 62.001 55.6185C62.1163 55.2366 62.1151 54.9325 61.5337 54.9325ZM51.5368 70.0676C51.3403 70.0642 51.1441 70.05 50.9491 70.0252C50.7105 69.9936 50.2639 70.0381 50.2639 70.4292V72.1773C50.2639 72.8444 50.5829 72.8889 50.7585 72.9284C51.2868 73.0386 51.8256 73.0906 52.3652 73.0837C53.0805 73.0837 53.7028 72.9536 54.2322 72.6934C54.7668 72.4288 55.2432 72.06 55.6333 71.6087C56.0634 71.1062 56.4269 70.5503 56.7148 69.9548C57.0308 69.3149 57.3342 68.61 57.6249 67.8401C57.6249 67.8401 57.7496 67.4921 57.9548 66.9221C57.3304 67.5525 54.387 70.3436 51.5368 70.0676ZM48.1369 57.0077C48.014 56.7155 47.8462 56.4444 47.6396 56.2041C47.4336 55.9734 47.1979 55.7713 46.9386 55.6029C46.6588 55.421 46.3619 55.2668 46.0523 55.1424C45.736 55.0189 45.4108 54.9199 45.0794 54.8463C44.7026 54.7638 44.3204 54.709 43.9357 54.6824C43.5202 54.6515 43.0532 54.6359 42.5347 54.6356C39.105 54.6356 37.152 55.7196 36.6759 57.8876C36.521 58.5603 37.1865 58.5998 37.1865 58.5998H39.2964C39.8472 58.5998 39.8235 58.4224 40.0908 57.9243C40.1871 57.6532 40.3603 57.4161 40.5893 57.2421C40.9942 56.9301 41.6011 56.7741 42.4101 56.7741C43.1884 56.7741 43.7537 56.9248 44.1064 57.2262C44.4589 57.5276 44.6664 57.9855 44.7289 58.5998C44.7289 59.3122 44.5067 59.7875 43.6455 59.7875C41.5461 59.7113 39.29 59.9488 38.0193 60.6773C36.7487 61.4058 36.0304 62.8301 36.0304 64.3596C36.0304 64.9835 36.1419 65.5298 36.365 65.9984C36.5812 66.4579 36.9009 66.8612 37.2989 67.1766C37.7213 67.506 38.2053 67.7475 38.7226 67.8868C39.3105 68.048 39.9179 68.1269 40.5275 68.1214C41.4406 68.1214 42.2473 68.0069 42.9477 67.7778C43.6479 67.5492 44.7314 66.7954 44.8694 66.6855V67.0873C44.8694 67.4855 44.9906 67.8406 45.4657 67.8406H47.9192C48.4159 67.8406 48.5263 67.4855 48.5263 67.0484V59.4898C48.5306 59.0199 48.4994 58.5504 48.4331 58.0853C48.3805 57.715 48.2809 57.3529 48.1369 57.0077ZM44.7913 64.4186C44.7913 64.4186 44.1577 65.7347 41.8966 65.7347C41.2744 65.7347 40.7687 65.5943 40.3794 65.3135C39.9899 65.0327 39.7954 64.5956 39.7956 64.0024C39.7956 63.2318 40.1121 62.6879 40.7453 62.3707C41.3777 62.0537 42.6441 61.8726 43.593 61.8948C44.5419 61.917 44.7913 62.5167 44.7913 62.9307V64.4189V64.4186Z" fill="#333333"/>
<defs>
<linearGradient id="paint0_linear" x1="112.529" y1="57.9858" x2="107.683" y2="87.2542" gradientUnits="userSpaceOnUse">
<stop offset="0.47231" stop-color="#00CCCC"/>
<stop offset="1" stop-color="#3399FF"/>
</linearGradient>
</defs>
</svg>
