<svg width="123" height="123" viewBox="0 0 123 123" fill="none" xmlns="http://www.w3.org/2000/svg">
<rect width="123" height="123" fill="white"/>
<path d="M56.8013 72.1971H51.3809L54.7735 51.373H60.194L56.8013 72.1971Z" fill="#005CA9"/>
<path d="M46.8185 51.3737L41.6487 65.6965L41.0359 62.6102L39.2086 53.2456C39.2086 53.2456 38.9858 51.3682 36.6349 51.3682H28.1003L28 51.7191C28 51.7191 30.6128 52.2651 33.6712 54.0979L38.3842 72.1922H44.0275L52.6568 51.3737H46.8185Z" fill="#005CA9"/>
<path d="M89.4689 72.1971H94.4492L90.1039 51.373H85.7419C83.7308 51.373 83.2406 52.9273 83.2406 52.9273L75.1572 72.2026H80.8061L81.937 69.1108H88.8282L89.4689 72.1971ZM83.5024 64.8323L86.3492 57.0387L87.9536 64.8323H83.5024Z" fill="#005CA9"/>
<path d="M75.581 56.3815L76.3554 51.9081C76.3554 51.9081 73.9654 51 71.4808 51C68.7901 51 62.4003 52.1755 62.4003 57.8968C62.4003 63.2783 69.8987 63.3451 69.8987 66.1696C69.8987 68.994 63.1746 68.4926 60.9518 66.7099L60.144 71.3839C60.144 71.3839 62.5674 72.5594 66.2665 72.5594C69.9655 72.5594 75.5476 70.643 75.5476 65.4286C75.5476 60.0137 67.9823 59.5068 67.9823 57.1558C67.9823 54.7994 73.2635 55.1002 75.581 56.3815Z" fill="#005CA9"/>
<path d="M41.0415 62.6102L39.2142 53.2456C39.2142 53.2456 38.9914 51.3682 36.6405 51.3682H28.1003L28 51.7191C28 51.7191 32.1058 52.5715 36.0499 55.758C39.8103 58.8109 41.0415 62.6102 41.0415 62.6102Z" fill="#F7A823"/>
</svg>
