<svg width="17" height="17" viewBox="0 0 17 17" fill="none" xmlns="http://www.w3.org/2000/svg">
<path d="M16.5818 10.8598H12.7799C12.7341 10.8598 12.6425 10.8598 12.5967 10.9057C12.5509 10.9515 12.5051 10.9515 12.4593 10.9973L11.589 11.8679C9.34447 10.6765 7.42061 8.93531 5.95481 6.82749C5.63416 6.36927 5.35933 5.91105 5.08449 5.45283L5.95481 4.58221C6.00061 4.53639 6.04642 4.49057 6.04642 4.44474C6.09223 4.39892 6.09223 4.30728 6.09223 4.26146V0.45822C6.09223 0.183288 5.909 0 5.63416 0H0.458063C0.183226 0 0 0.183288 0 0.45822C0 9.57682 7.42061 17 16.536 17C16.8109 17 16.9941 16.8167 16.9941 16.5418V11.3181C17.0399 11.0431 16.8109 10.8598 16.5818 10.8598ZM12.9173 11.7763H16.078V16.0377C13.9251 15.9919 11.9096 15.4879 10.0774 14.6173L12.9173 11.7763ZM0.961931 0.824798H5.22191V3.98652L2.38192 6.82749C1.5116 5.04043 1.00774 2.97844 0.961931 0.824798ZM2.79418 7.74394L4.4432 6.09434C4.67223 6.50674 4.94707 6.91914 5.22191 7.33154C6.68771 9.43935 8.65737 11.2264 10.9019 12.5094L9.25285 14.159C6.50448 12.7385 4.21417 10.4474 2.79418 7.74394Z" fill="#3AC87B"/>
</svg>
