<svg width="10" height="10" viewBox="0 0 10 10" fill="none" xmlns="http://www.w3.org/2000/svg">
<path d="M9.81023 9.89661C10.034 9.7387 10.0642 9.45912 9.87764 9.26968L5.6639 5.00003L9.87764 0.730376C10.0638 0.541351 10.0333 0.260801 9.81023 0.103442C9.58696 -0.0541943 9.25435 -0.0286391 9.06807 0.160108L4.57335 4.71489C4.4918 4.79739 4.45103 4.89878 4.45103 5.00003C4.45103 5.10141 4.4918 5.20266 4.57335 5.28516L9.06807 9.83995C9.25435 10.0287 9.58679 10.0542 9.81023 9.89661Z" fill="#FF472E"/>
<path d="M0.189769 0.103387C-0.0339969 0.261301 -0.0642488 0.540879 0.12236 0.730321L4.3361 4.99997L0.12236 9.26962C-0.0637556 9.45865 -0.0333393 9.7392 0.189769 9.89656C0.413042 10.0542 0.745649 10.0286 0.931929 9.83989L5.42665 5.28511C5.5082 5.20261 5.54897 5.10122 5.54897 4.99997C5.54897 4.89858 5.5082 4.79734 5.42665 4.71484L0.931929 0.160052C0.745649 -0.028695 0.413206 -0.0542497 0.189769 0.103387Z" fill="#FF472E"/>
</svg>
