<svg width="18" height="18" viewBox="0 0 18 18" fill="none" xmlns="http://www.w3.org/2000/svg">
<path d="M11.7796 12.8276L13.1741 6.25335C13.231 5.97507 13.1962 5.77586 13.0698 5.65569C12.9496 5.53553 12.7883 5.51339 12.5859 5.58929L4.38951 8.74833C4.2061 8.81789 4.07961 8.89695 4.01004 8.98549C3.9468 9.07403 3.94048 9.15941 3.99107 9.24163C4.04167 9.31752 4.14286 9.3776 4.29464 9.42188L6.39118 10.0765L11.2578 7.01228C11.3906 6.92373 11.4918 6.90476 11.5614 6.95536C11.6057 6.98698 11.593 7.03441 11.5234 7.09766L7.5865 10.6551L7.43471 12.8181C7.58017 12.8181 7.72247 12.7485 7.86161 12.6094L8.88616 11.6228L11.0112 13.1881C11.4159 13.4157 11.6721 13.2956 11.7796 12.8276ZM16.8265 5.62723C17.2755 6.67708 17.5 7.77753 17.5 8.92857C17.5 10.0796 17.2755 11.1801 16.8265 12.2299C16.3774 13.2798 15.7734 14.1842 15.0145 14.9431C14.2556 15.702 13.3512 16.306 12.3013 16.755C11.2515 17.2041 10.151 17.4286 9 17.4286C7.84896 17.4286 6.74851 17.2041 5.69866 16.755C4.64881 16.306 3.74442 15.702 2.98549 14.9431C2.22656 14.1842 1.62258 13.2798 1.17355 12.2299C0.724516 11.1801 0.5 10.0796 0.5 8.92857C0.5 7.77753 0.724516 6.67708 1.17355 5.62723C1.62258 4.57738 2.22656 3.67299 2.98549 2.91406C3.74442 2.15513 4.64881 1.55115 5.69866 1.10212C6.74851 0.653087 7.84896 0.42857 9 0.42857C10.151 0.42857 11.2515 0.653087 12.3013 1.10212C13.3512 1.55115 14.2556 2.15513 15.0145 2.91406C15.7734 3.67299 16.3774 4.57738 16.8265 5.62723Z" fill="black"/>
</svg>
