<svg width="20" height="18" viewBox="0 0 20 18" fill="none" xmlns="http://www.w3.org/2000/svg">
<path d="M8.69971 7.09961V10.0996C8.69971 10.5996 9.09971 10.9996 9.49971 11.0996C8.99971 11.1996 8.69971 11.5996 8.69971 12.0996V12.1996C8.69971 12.7996 9.09971 13.1996 9.69971 13.1996C10.2997 13.1996 10.6997 12.7996 10.6997 12.1996V12.0996C10.6997 11.5996 10.2997 11.1996 9.89971 11.0996C10.3997 10.9996 10.6997 10.5996 10.6997 10.0996V7.09961C10.6997 6.49961 10.2997 6.09961 9.69971 6.09961C9.09971 6.09961 8.69971 6.59961 8.69971 7.09961Z" fill="#AAAAAA"/>
<path d="M19.1 14.3L11.5 1C11.1 0.4 10.5 0 9.7 0C8.9 0 8.3 0.4 7.9 1L0.3 14.4C-0.1 15 -0.1 15.8 0.3 16.4C0.7 17 1.3 17.4 2.1 17.4H17.3C18 17.4 18.7 17 19.1 16.4C19.5 15.8 19.5 15 19.1 14.3ZM2.1 15.3L9.7 2L8.8 1.5L9.8 2L17.4 15.4L2.1 15.3Z" fill="#AAAAAA"/>
</svg>
