<svg width="90" height="82" viewBox="0 0 90 82" fill="none" xmlns="http://www.w3.org/2000/svg">
<path d="M55 2.49805C54 4.49805 50.5 8.99805 45 9.99805V76.998C54.9615 77.7096 64.8702 76.3643 69.5197 75.3545C70.401 75.1631 71 74.3724 71 73.4705V33.8913C71 33.6316 70.9482 33.3741 70.8539 33.1322C67.458 24.4216 69.5208 14.6071 71 10.498L59 4.49805L55 2.49805Z" stroke="#CBCBCB" stroke-width="2"/>
<path d="M35 2.49805C36 4.49805 39.5 8.99805 45 9.99805V76.998C35.0385 77.7096 25.1298 76.3643 20.4803 75.3545C19.599 75.1631 19 74.3724 19 73.4705V33.8913C19 33.6316 19.0518 33.3741 19.1461 33.1322C22.542 24.4216 20.4792 14.6071 19 10.498L31 4.49805L35 2.49805Z" stroke="#CBCBCB" stroke-width="2"/>
<path d="M78.8446 80.7675L87.118 79.7333C88.1732 79.6014 88.9423 78.6706 88.849 77.6114C87.0406 57.0927 78.6606 19.6529 71.9967 11.0724C71.5611 10.5115 70.7559 10.7362 70.5613 11.4192C68.1798 19.7766 69.049 28.6919 70.8351 33.1084C70.94 33.3678 71.0002 33.6427 71.0002 33.9225L71 50.998L76.6354 79.1751C76.8409 80.2027 77.8048 80.8974 78.8446 80.7675Z" stroke="#CBCBCB" stroke-width="2"/>
<path d="M11.1554 80.7675L2.88198 79.7333C1.82683 79.6014 1.05768 78.6706 1.15103 77.6114C2.9594 57.0927 11.3394 19.6529 18.0033 11.0724C18.4389 10.5115 19.2441 10.7362 19.4387 11.4192C21.8202 19.7766 20.951 28.6919 19.1649 33.1084C19.06 33.3678 18.9998 33.6427 18.9998 33.9225L19 50.998L13.3646 79.1751C13.1591 80.2027 12.1952 80.8974 11.1554 80.7675Z" stroke="#CBCBCB" stroke-width="2"/>
<path d="M61.5 22.998L53.5 37.498" stroke="#CBCBCB" stroke-width="2" stroke-linecap="round"/>
<path d="M28.5 22.998L36.5 37.498" stroke="#CBCBCB" stroke-width="2" stroke-linecap="round"/>
<path d="M61 49.498L64 64.998" stroke="#CBCBCB" stroke-width="2" stroke-linecap="round"/>
<path d="M29 49.498L26 64.998" stroke="#CBCBCB" stroke-width="2" stroke-linecap="round"/>
<path d="M35.5 2.0006C41.3516 0.668978 48.6333 0.664358 54.5 1.9994" stroke="#CBCBCB" stroke-width="2"/>
</svg>
