<svg width="103" height="101" viewBox="0 0 103 101" fill="none" xmlns="http://www.w3.org/2000/svg">
<path d="M20.6123 52L2.1123 33C6.71541 12.2316 12.8735 4.96107 32.1123 2C34.8182 15.7505 39.0542 19.8091 51.1123 21C63.0742 18.8823 67.7794 15.3593 70.1123 2C88.9849 4.45507 95.4289 11.733 101.112 33L82.1123 52M20.6123 52V33M20.6123 52L22.8986 65.432C24.0329 72.0961 24.0329 78.9039 22.8986 85.568L20.6123 99H82.1123L79.826 85.568C78.6917 78.9039 78.6917 72.0961 79.826 65.432L82.1123 52M82.1123 52V33" stroke="#CBCBCB" stroke-width="2.5"/>
</svg>
