<svg width="102" height="106" viewBox="0 0 102 106" fill="none" xmlns="http://www.w3.org/2000/svg">
<path fill-rule="evenodd" clip-rule="evenodd" d="M30.3207 10.2134C31.4101 8.2165 34.161 7.92762 35.6414 9.65471L42.7239 17.9176L49.6891 24.8827C49.9872 25.1654 50.2025 25.3364 50.3661 25.4361C50.4453 25.4843 50.4988 25.5074 50.5305 25.5183C50.5386 25.521 50.5453 25.523 50.5505 25.5244C50.5553 25.5256 50.5589 25.5264 50.5614 25.5269C50.5645 25.5275 50.5665 25.5278 50.5677 25.5279C50.5685 25.528 50.5689 25.528 50.5689 25.528C50.569 25.528 50.5696 25.528 50.5717 25.5278L50.5745 25.5274C50.5777 25.5268 50.583 25.5258 50.5905 25.5236C50.6121 25.5176 50.6569 25.5018 50.7287 25.4608C50.8816 25.3734 51.1038 25.203 51.4198 24.8856L52.4048 25.8664L51.4221 24.8837L58.3883 17.9176L65.4707 9.65471C66.9511 7.92762 69.7021 8.2165 70.7914 10.2134L76.0011 19.7637C76.0919 19.9303 76.2667 20.0767 76.4867 20.1435C82.5397 21.9791 87.2386 24.7588 90.8251 28.5408C94.4087 32.3197 96.8183 37.0321 98.3977 42.6373C101.538 53.7836 101.448 68.6816 100.623 87.3123C100.576 88.3656 99.9519 89.2768 99.0561 89.7238V96.7675C99.0561 98.5624 97.601 100.017 95.8061 100.017H82.0561V101.767C82.0561 103.562 80.601 105.017 78.8061 105.017H51.3061H49.8061H22.3061C20.5111 105.017 19.0561 103.562 19.0561 101.767V100.017H5.30605C3.51113 100.017 2.05605 98.5624 2.05605 96.7675V89.7238C1.16029 89.2768 0.535832 88.3656 0.489201 87.3123C-0.335652 68.6816 -0.42623 53.7836 2.7145 42.6373C4.29391 37.0321 6.70343 32.3197 10.2871 28.5408C13.8736 24.7588 18.5725 21.9791 24.6255 20.1435C24.8455 20.0767 25.0202 19.9303 25.1111 19.7637L30.3207 10.2134ZM49.8061 102.517H51.3061H78.8061C79.2203 102.517 79.5561 102.182 79.5561 101.767V98.7675V88.7675V56.7675H82.0561V87.5175H97.8061C97.9657 87.5175 98.1174 87.3829 98.1254 87.2018C98.9533 68.5031 99.0052 54.0111 95.9914 43.3154C94.4935 37.9996 92.2515 33.678 89.0111 30.261C85.7736 26.8471 81.4758 24.2689 75.7612 22.5359C74.9526 22.2907 74.2302 21.7379 73.8064 20.9609L68.5967 11.4106C68.3454 10.9498 67.7105 10.8831 67.3689 11.2817L60.2552 19.581L60.2239 19.6174L60.19 19.6514L53.1899 26.6514L53.1897 26.6513C52.4496 27.3942 51.5746 28.0655 50.4797 28.0264C49.4304 27.9889 48.6018 27.3003 47.9431 26.6723L48.7956 25.7781L47.9222 26.6514L40.9222 19.6514L40.8882 19.6174L40.857 19.581L33.7433 11.2817C33.4017 10.8831 32.7668 10.9498 32.5154 11.4106L27.3058 20.9609C26.882 21.7379 26.1595 22.2907 25.351 22.5359C19.6364 24.2689 15.3386 26.8471 12.1011 30.261C8.86063 33.678 6.61865 37.9996 5.1208 43.3154C2.10702 54.0111 2.1589 68.5031 2.98675 87.2018C2.99478 87.3829 3.14646 87.5175 3.30605 87.5175H19.0561V56.7675H21.5561V88.7675V98.7675V101.767C21.5561 102.182 21.8918 102.517 22.3061 102.517H49.8061ZM4.55605 90.0175V96.7675C4.55605 97.1817 4.89184 97.5175 5.30605 97.5175H19.0561V90.0175H4.55605ZM96.5561 96.7675V90.0175H82.0561V97.5175H95.8061C96.2203 97.5175 96.5561 97.1817 96.5561 96.7675Z" fill="#CBCBCB"/>
<path d="M31.8057 10.2394C42.7775 -0.732422 58.3057 -0.760616 69.3057 10.2394" stroke="#CBCBCB" stroke-width="2.5"/>
<path d="M25.8057 20.7676C32.1881 23.418 37.9508 24.6847 50.8057 26.7676" stroke="#CBCBCB" stroke-width="2.5"/>
<path d="M75.8057 20.7676C69.4232 23.418 63.6605 24.6847 50.8057 26.7676" stroke="#CBCBCB" stroke-width="2.5"/>
<path d="M47.8057 26.2676V43.7676" stroke="#CBCBCB" stroke-width="2"/>
<path d="M53.8057 26.2676V49.2676" stroke="#CBCBCB" stroke-width="2"/>
</svg>
