<svg width="101" height="100" viewBox="0 0 101 100" fill="none" xmlns="http://www.w3.org/2000/svg">
<path d="M18.6205 52.8914V98.7498C18.6205 99.4402 19.1801 100 19.8703 100H80.372C81.0622 100 81.6218 99.4402 81.6218 98.7498V52.8718L99.7881 32.8262C100.021 32.5692 100.137 32.2268 100.108 31.8813C97.4411 0.31927 69.135 0 68.7604 0C68.4009 0.0274707 68.1105 0.13308 67.8761 0.369328C67.6424 0.604355 67.5118 0.923015 67.513 1.25449C67.5484 11.6146 60.2377 19.4523 50.516 19.4853C40.4976 19.4511 32.6768 11.4431 32.711 1.25449C32.7134 0.564065 32.1557 0.00244193 31.4655 0C31.4649 0 31.4642 0 31.4636 0C31.0853 0 2.78291 0.321102 0.116765 31.8813C0.087473 32.2268 0.203419 32.5692 0.436531 32.8262L18.6205 52.8914ZM30.245 2.55233C30.8522 13.5137 39.5206 21.9485 50.516 21.9857C55.9966 21.9668 60.9987 19.7893 64.601 15.853C67.8322 12.3221 69.7178 7.64356 69.9808 2.56393C72.1991 2.74524 77.1487 3.44788 82.2491 6.16137C91.2703 10.9608 96.4226 19.5024 97.5686 31.5522L81.6218 49.1489V33.9464C81.6218 33.256 81.0622 32.6962 80.372 32.6962C79.6819 32.6962 79.1223 33.256 79.1223 33.9464V97.4996H21.12V33.9464C21.12 33.256 20.5605 32.6962 19.8703 32.6962C19.1801 32.6962 18.6205 33.256 18.6205 33.9464V49.1684L2.65598 31.5522C5.08291 6.05698 25.0219 2.93265 30.245 2.55233Z" fill="#CBCBCB"/>
</svg>
