<svg width="81" height="100" viewBox="0 0 81 100" fill="none" xmlns="http://www.w3.org/2000/svg">
<path fill-rule="evenodd" clip-rule="evenodd" d="M29.4638 0L29.9437 0.193685C33.8044 1.75199 36.3629 2.2496 40.5143 2.2496C42.6202 2.2496 45.3951 1.74184 47.7106 1.20764C48.8541 0.943847 49.8597 0.679818 50.5791 0.481835C50.9385 0.382924 51.2257 0.300706 51.422 0.243525C51.5201 0.214939 51.5955 0.192627 51.6458 0.177633L51.702 0.160765L51.7155 0.156697L51.7185 0.155797L52.1559 0.0225537L79.5032 11.0868C80.7169 11.5779 81.3127 12.9791 80.8353 14.2199L75.8056 27.2929C75.3344 28.5175 73.991 29.1329 72.7819 28.6781L65.5183 25.9456V58.1186C65.5183 59.4544 64.4577 60.5373 63.1495 60.5373H17.8791C16.5708 60.5373 15.5103 59.4544 15.5103 58.1186V25.9124L7.72042 28.6964C6.49115 29.1357 5.14512 28.4793 4.70708 27.2269L0.139296 14.1674C-0.286081 12.9512 0.289525 11.5848 1.50134 11.1036L29.4638 0ZM50.3866 3.31235C49.7778 3.47186 49.0651 3.65042 48.2907 3.82907C45.9465 4.36987 42.9309 4.93711 40.5143 4.93711C36.8327 4.93711 34.2275 4.55838 31.1045 3.49085C31.6414 6.42999 32.4005 8.32692 33.5274 9.656C34.8857 11.2581 36.9583 12.2425 40.532 12.9771C43.8242 12.3942 45.8887 11.6351 47.3724 10.0924C48.6409 8.77341 49.6214 6.73797 50.3866 3.31235ZM28.3995 3.30621C28.9734 6.80911 29.8749 9.45405 31.5374 11.415C33.4811 13.7075 36.2769 14.8494 40.0662 15.6228C40.3487 15.6804 40.6441 15.6845 40.9282 15.6346C44.3614 15.0309 47.1496 14.1597 49.2503 11.9754C51.0947 10.0577 52.2595 7.28472 53.0863 3.28979L78.2896 13.4866L73.4501 26.0653L66.074 23.2905C64.5275 22.7087 62.8863 23.8773 62.8863 25.5601V57.8498H18.1423C18.1423 46.7917 18.1423 36.5918 18.1423 25.5336C18.1423 23.8675 16.5311 22.7003 14.9909 23.2507L7.09778 26.0715L2.70405 13.5096L28.3995 3.30621ZM15.5103 65.4811C15.5103 64.1453 16.5708 63.0624 17.8791 63.0624H63.1495C64.4577 63.0624 65.5183 64.1453 65.5183 65.4811V97.5812C65.5183 98.9171 64.4577 100 63.1495 100H46.8766C45.5234 100 44.4578 98.8477 44.5067 97.4843C44.6872 92.4599 44.5829 89.1517 43.9185 87.0791C43.6006 86.0875 43.1853 85.4857 42.6973 85.1066C42.2127 84.7301 41.525 84.4713 40.4759 84.4122C39.3699 84.4083 38.6891 84.6657 38.2291 85.0367C37.7548 85.4192 37.3522 86.0539 37.0537 87.1132C36.4337 89.3137 36.4203 92.7121 36.5377 97.5168C36.5707 98.8713 35.5062 100 34.1688 100H17.8791C16.5708 100 15.5103 98.9171 15.5103 97.5812V65.4811ZM18.1423 65.7499V97.3125H33.8999C33.7918 92.7649 33.7833 89 34.5243 86.3701C34.9137 84.9883 35.5453 83.7765 36.5977 82.9277C37.6603 82.0707 38.9904 81.7134 40.524 81.725L40.5529 81.7252L40.5818 81.7267C42.0054 81.8013 43.2623 82.1686 44.291 82.9678C45.3209 83.7679 45.9884 84.897 46.4199 86.243C47.239 88.798 47.3121 92.5009 47.1465 97.3125H62.8863V65.7499H18.1423Z" fill="#CBCBCB"/>
</svg>
