<svg width="87" height="79" viewBox="0 0 87 79" fill="none" xmlns="http://www.w3.org/2000/svg">
    <path d="M43.6638 13.4167C38.8049 13.4167 29.9855 10.5364 29.344 2.00149C29.3026 1.45076 28.862 0.996821 28.3139 1.06521C21.855 1.87121 10.5058 10.0326 7.5 19.0499C4.71718 27.3984 2.03011 61.2396 1.22232 70.332C1.11667 71.5211 2.04239 72.6333 3.23238 72.7285L11.8022 73.4141C12.7807 73.4924 13.6716 72.8524 13.8878 71.8949C15.6975 63.8794 18.1711 49.2363 20.5 38.1595M19.5 32.5499C19.5 32.5499 22.1175 44.5499 21.6175 55.0499C21.2116 63.5732 20.0694 72.7571 19.6537 75.9129C19.5744 76.5153 20.0428 77.0524 20.6505 77.0524H43.6638" stroke="#CBCBCB" stroke-width="2"/>
    <path d="M43 13.4167C47.859 13.4167 56.6783 10.5364 57.3198 2.00149C57.3612 1.45076 57.8019 0.996821 58.3499 1.06521C64.8088 1.87121 76.158 10.0326 79.1638 19.0499C81.9466 27.3984 84.6337 61.2396 85.4415 70.332C85.5471 71.5211 84.6214 72.6333 83.4314 72.7285L74.8617 73.4141C73.8831 73.4924 72.9923 72.8524 72.7761 71.8949C70.9663 63.8794 68.4927 49.2363 66.1638 38.1595M67.1638 32.5499C67.1638 32.5499 64.5463 44.5499 65.0463 55.0499C65.4522 63.5732 66.5944 72.7571 67.0101 75.9129C67.0894 76.5153 66.621 77.0524 66.0134 77.0524H43" stroke="#CBCBCB" stroke-width="2"/>
</svg>

