<svg width="13" height="14" viewBox="0 0 13 14" fill="none" xmlns="http://www.w3.org/2000/svg">
<path d="M7.5 10.6607V9.05357C7.5 8.97545 7.47489 8.91127 7.42467 8.86105C7.37444 8.81083 7.31027 8.78571 7.23214 8.78571H5.625C5.54688 8.78571 5.4827 8.81083 5.43248 8.86105C5.38225 8.91127 5.35714 8.97545 5.35714 9.05357V10.6607C5.35714 10.7388 5.38225 10.803 5.43248 10.8532C5.4827 10.9035 5.54688 10.9286 5.625 10.9286H7.23214C7.31027 10.9286 7.37444 10.9035 7.42467 10.8532C7.47489 10.803 7.5 10.7388 7.5 10.6607ZM9.64286 5.03571C9.64286 4.54464 9.48661 4.08984 9.17411 3.67132C8.86719 3.25279 8.48214 2.92913 8.01897 2.70033C7.5558 2.47154 7.08147 2.35714 6.59598 2.35714C5.23996 2.35714 4.2048 2.95145 3.49051 4.14007C3.40681 4.27399 3.42913 4.39118 3.55748 4.49163L4.66239 5.32868C4.70145 5.36216 4.75446 5.37891 4.82143 5.37891C4.91071 5.37891 4.98047 5.34542 5.03069 5.27846C5.32645 4.899 5.56641 4.6423 5.75056 4.50837C5.94029 4.37444 6.18025 4.30748 6.47042 4.30748C6.73828 4.30748 6.97545 4.38002 7.18192 4.52511C7.39397 4.6702 7.5 4.83482 7.5 5.01897C7.5 5.23103 7.4442 5.40123 7.33259 5.52958C7.22098 5.65792 7.03125 5.78348 6.76339 5.90625C6.41183 6.0625 6.08817 6.30525 5.79241 6.63449C5.50223 6.95815 5.35714 7.30692 5.35714 7.6808V7.98214C5.35714 8.06027 5.38225 8.12444 5.43248 8.17466C5.4827 8.22489 5.54688 8.25 5.625 8.25H7.23214C7.31027 8.25 7.37444 8.22489 7.42467 8.17466C7.47489 8.12444 7.5 8.06027 7.5 7.98214C7.5 7.87612 7.55859 7.7394 7.67578 7.57199C7.79855 7.399 7.95201 7.25949 8.13616 7.15346C8.31473 7.05301 8.45145 6.97489 8.54632 6.91908C8.64118 6.8577 8.76953 6.76004 8.93136 6.62612C9.09319 6.48661 9.21596 6.35268 9.29967 6.22433C9.38895 6.0904 9.46708 5.9202 9.53404 5.71373C9.60659 5.50725 9.64286 5.28125 9.64286 5.03571ZM11.995 3.4202C12.5698 4.40234 12.8571 5.47656 12.8571 6.64286C12.8571 7.80915 12.5698 8.88616 11.995 9.87388C11.4202 10.856 10.639 11.6345 9.65123 12.2093C8.66909 12.784 7.59487 13.0714 6.42857 13.0714C5.26228 13.0714 4.18527 12.784 3.19754 12.2093C2.2154 11.6345 1.43694 10.856 0.862165 9.87388C0.287388 8.88616 0 7.80915 0 6.64286C0 5.47656 0.287388 4.40234 0.862165 3.4202C1.43694 2.43248 2.2154 1.65123 3.19754 1.07645C4.18527 0.501674 5.26228 0.214285 6.42857 0.214285C7.59487 0.214285 8.66909 0.501674 9.65123 1.07645C10.639 1.65123 11.4202 2.43248 11.995 3.4202Z" fill="#B2B2B2"/>
</svg>
