<svg width="14" height="12" viewBox="0 0 14 12" fill="none" xmlns="http://www.w3.org/2000/svg">
<path d="M10.7143 7.58929V9.91071C10.7143 10.4862 10.5087 10.9795 10.0977 11.3906C9.69141 11.7969 9.20052 12 8.625 12H2.58929C2.01376 12 1.52046 11.7969 1.10938 11.3906C0.703125 10.9795 0.5 10.4862 0.5 9.91071V3.875C0.5 3.29948 0.703125 2.80859 1.10938 2.40234C1.52046 1.99126 2.01376 1.78571 2.58929 1.78571H7.69643C7.76414 1.78571 7.81975 1.80748 7.86328 1.851C7.90681 1.89453 7.92857 1.95015 7.92857 2.01786V2.48214C7.92857 2.54985 7.90681 2.60547 7.86328 2.64899C7.81975 2.69252 7.76414 2.71429 7.69643 2.71429H2.58929C2.27009 2.71429 1.99684 2.82794 1.76953 3.05524C1.54222 3.28255 1.42857 3.5558 1.42857 3.875V9.91071C1.42857 10.2299 1.54222 10.5032 1.76953 10.7305C1.99684 10.9578 2.27009 11.0714 2.58929 11.0714H8.625C8.9442 11.0714 9.21745 10.9578 9.44476 10.7305C9.67206 10.5032 9.78571 10.2299 9.78571 9.91071V7.58929C9.78571 7.52158 9.80748 7.46596 9.85101 7.42243C9.89453 7.37891 9.95015 7.35714 10.0179 7.35714H10.4821C10.5499 7.35714 10.6055 7.37891 10.649 7.42243C10.6925 7.46596 10.7143 7.52158 10.7143 7.58929ZM13.5 1.32143V5.03571C13.5 5.16146 13.4541 5.27028 13.3622 5.36216C13.2703 5.45405 13.1615 5.5 13.0357 5.5C12.91 5.5 12.8012 5.45405 12.7093 5.36216L11.4325 4.08538L6.70257 8.81529C6.6542 8.86365 6.59859 8.88783 6.53571 8.88783C6.47284 8.88783 6.41723 8.86365 6.36886 8.81529L5.54185 7.98828C5.49349 7.93992 5.46931 7.8843 5.46931 7.82143C5.46931 7.75856 5.49349 7.70294 5.54185 7.65458L10.2718 2.92466L8.99498 1.64788C8.90309 1.55599 8.85714 1.44717 8.85714 1.32143C8.85714 1.19568 8.90309 1.08687 8.99498 0.994977C9.08687 0.903087 9.19568 0.857142 9.32143 0.857142H13.0357C13.1615 0.857142 13.2703 0.903087 13.3622 0.994977C13.4541 1.08687 13.5 1.19568 13.5 1.32143Z" fill="#B2B2B2"/>
</svg>
