<svg width="141" height="50" viewBox="0 0 141 50" fill="none" xmlns="http://www.w3.org/2000/svg">
<path d="M0 25C0 12.4258 9.16527 1.99149 21.182 0.00857438V4.7936C11.7798 6.71673 4.70711 15.0327 4.70711 25C4.70711 34.9673 11.7798 43.2833 21.182 45.2064V49.9914C9.16527 48.0085 0 37.5742 0 25Z" fill="black"/>
<path d="M45.9728 25C45.9728 34.9858 38.8738 43.3141 29.4456 45.217V50C41.488 48.0388 50.6799 37.5924 50.6799 25C50.6799 12.4076 41.488 1.96123 29.4456 0V4.78297C38.8738 6.68591 45.9728 15.0142 45.9728 25Z" fill="black"/>
<path d="M17.2594 10.5439H35.5126V16.2427H25.6276V21.7324H33.159V27.4311H25.6276V41.1814H17.2594V10.5439Z" fill="black"/>
<path d="M68.2217 25.0195H63.2485V30H62.3477V19.3359H68.9541V20.105H63.2485V24.2505H68.2217V25.0195Z" fill="black"/>
<path d="M74.0518 22.8223C73.8662 22.7881 73.6685 22.771 73.4585 22.771C72.9116 22.771 72.4478 22.9248 72.0669 23.2324C71.6909 23.5352 71.4224 23.9771 71.2612 24.5581V30H70.3896V22.0752H71.2466L71.2612 23.335C71.7251 22.3975 72.4697 21.9287 73.4951 21.9287C73.7393 21.9287 73.9321 21.9604 74.0737 22.0239L74.0518 22.8223Z" fill="black"/>
<path d="M80.1528 30C80.0649 29.751 80.0088 29.3823 79.9844 28.894C79.6768 29.2944 79.2837 29.6045 78.8052 29.8242C78.3315 30.0391 77.8286 30.1465 77.2964 30.1465C76.5347 30.1465 75.917 29.9341 75.4434 29.5093C74.9746 29.0845 74.7402 28.5474 74.7402 27.8979C74.7402 27.1265 75.0601 26.5161 75.6997 26.0669C76.3442 25.6177 77.2402 25.3931 78.3877 25.3931H79.9771V24.4922C79.9771 23.9258 79.8013 23.4814 79.4497 23.1592C79.103 22.832 78.5952 22.6685 77.9263 22.6685C77.3159 22.6685 76.8105 22.8247 76.4102 23.1372C76.0098 23.4497 75.8096 23.8257 75.8096 24.2651L74.9307 24.2578C74.9307 23.6279 75.2236 23.0835 75.8096 22.6245C76.3955 22.1606 77.1157 21.9287 77.9702 21.9287C78.854 21.9287 79.5498 22.1509 80.0576 22.5952C80.5703 23.0347 80.834 23.6499 80.8486 24.4409V28.1909C80.8486 28.9575 80.9292 29.5312 81.0903 29.9121V30H80.1528ZM77.3989 29.3701C77.9849 29.3701 78.5073 29.2285 78.9663 28.9453C79.4302 28.6621 79.7671 28.2837 79.9771 27.8101V26.0669H78.4097C77.5356 26.0767 76.8521 26.2378 76.3589 26.5503C75.8657 26.8579 75.6191 27.2827 75.6191 27.8247C75.6191 28.269 75.7827 28.6377 76.1099 28.9307C76.4419 29.2236 76.8716 29.3701 77.3989 29.3701Z" fill="black"/>
<path d="M84.5547 20.0464V22.0752H86.1953V22.793H84.5547V28.0737C84.5547 28.5132 84.6328 28.8403 84.7891 29.0552C84.9502 29.27 85.2163 29.3774 85.5874 29.3774C85.7339 29.3774 85.9707 29.353 86.2979 29.3042L86.3345 30.022C86.105 30.105 85.7925 30.1465 85.397 30.1465C84.7964 30.1465 84.3594 29.9731 84.0859 29.6265C83.8125 29.2749 83.6758 28.7598 83.6758 28.0811V22.793H82.2183V22.0752H83.6758V20.0464H84.5547Z" fill="black"/>
<path d="M91.0806 30.1465C90.4067 30.1465 89.7964 29.9805 89.2495 29.6484C88.7075 29.3164 88.2852 28.855 87.9824 28.2642C87.6797 27.6685 87.5283 27.002 87.5283 26.2646V25.9497C87.5283 25.188 87.6748 24.502 87.9678 23.8916C88.2656 23.2812 88.6782 22.8027 89.2056 22.4561C89.7329 22.1045 90.3042 21.9287 90.9194 21.9287C91.8813 21.9287 92.6431 22.2583 93.2046 22.9175C93.771 23.5718 94.0542 24.4678 94.0542 25.6055V26.0962H88.3999V26.2646C88.3999 27.1631 88.6562 27.9126 89.1689 28.5132C89.6865 29.1089 90.3359 29.4067 91.1172 29.4067C91.5859 29.4067 91.9985 29.3213 92.355 29.1504C92.7163 28.9795 93.0435 28.7061 93.3364 28.3301L93.8857 28.7476C93.2412 29.6802 92.3062 30.1465 91.0806 30.1465ZM90.9194 22.6758C90.2603 22.6758 89.7036 22.9175 89.2495 23.4009C88.8003 23.8843 88.5269 24.5337 88.4292 25.3491H93.1826V25.2539C93.1582 24.4922 92.9409 23.8721 92.5308 23.3936C92.1206 22.915 91.5835 22.6758 90.9194 22.6758Z" fill="black"/>
<path d="M96.7422 30H95.8633V18.75H96.7422V30Z" fill="black"/>
<path d="M100.111 30H99.2324V18.75H100.111V30Z" fill="black"/>
<path d="M103.48 30H102.602V22.0752H103.48V30ZM102.448 19.7827C102.448 19.6167 102.501 19.4775 102.609 19.3652C102.716 19.248 102.863 19.1895 103.048 19.1895C103.234 19.1895 103.38 19.248 103.488 19.3652C103.6 19.4775 103.656 19.6167 103.656 19.7827C103.656 19.9487 103.6 20.0879 103.488 20.2002C103.38 20.3125 103.234 20.3687 103.048 20.3687C102.863 20.3687 102.716 20.3125 102.609 20.2002C102.501 20.0879 102.448 19.9487 102.448 19.7827Z" fill="black"/>
<path d="M117.272 26.6748C117.15 27.7979 116.747 28.6572 116.063 29.2529C115.385 29.8486 114.479 30.1465 113.346 30.1465C112.555 30.1465 111.854 29.9487 111.244 29.5532C110.639 29.1577 110.17 28.5986 109.838 27.876C109.506 27.1484 109.337 26.3184 109.333 25.3857V24.0015C109.333 23.0542 109.499 22.2144 109.831 21.4819C110.163 20.7495 110.639 20.1855 111.259 19.79C111.884 19.3896 112.602 19.1895 113.412 19.1895C114.555 19.1895 115.456 19.4995 116.115 20.1196C116.779 20.7349 117.165 21.5869 117.272 22.6758H116.364C116.139 20.8643 115.155 19.9585 113.412 19.9585C112.445 19.9585 111.674 20.3198 111.098 21.0425C110.526 21.7651 110.241 22.7637 110.241 24.0381V25.3418C110.241 26.5723 110.519 27.5537 111.076 28.2861C111.637 29.0186 112.394 29.3848 113.346 29.3848C114.289 29.3848 114.999 29.1602 115.478 28.7109C115.956 28.2568 116.251 27.5781 116.364 26.6748H117.272Z" fill="black"/>
<path d="M124.259 30C124.171 29.751 124.115 29.3823 124.091 28.894C123.783 29.2944 123.39 29.6045 122.912 29.8242C122.438 30.0391 121.935 30.1465 121.403 30.1465C120.641 30.1465 120.023 29.9341 119.55 29.5093C119.081 29.0845 118.847 28.5474 118.847 27.8979C118.847 27.1265 119.167 26.5161 119.806 26.0669C120.451 25.6177 121.347 25.3931 122.494 25.3931H124.083V24.4922C124.083 23.9258 123.908 23.4814 123.556 23.1592C123.209 22.832 122.702 22.6685 122.033 22.6685C121.422 22.6685 120.917 22.8247 120.517 23.1372C120.116 23.4497 119.916 23.8257 119.916 24.2651L119.037 24.2578C119.037 23.6279 119.33 23.0835 119.916 22.6245C120.502 22.1606 121.222 21.9287 122.077 21.9287C122.96 21.9287 123.656 22.1509 124.164 22.5952C124.677 23.0347 124.94 23.6499 124.955 24.4409V28.1909C124.955 28.9575 125.036 29.5312 125.197 29.9121V30H124.259ZM121.505 29.3701C122.091 29.3701 122.614 29.2285 123.073 28.9453C123.537 28.6621 123.874 28.2837 124.083 27.8101V26.0669H122.516C121.642 26.0767 120.958 26.2378 120.465 26.5503C119.972 26.8579 119.726 27.2827 119.726 27.8247C119.726 28.269 119.889 28.6377 120.216 28.9307C120.548 29.2236 120.978 29.3701 121.505 29.3701Z" fill="black"/>
<path d="M132.045 27.9858C132.045 27.5513 131.869 27.2021 131.518 26.9385C131.171 26.6748 130.646 26.4697 129.943 26.3232C129.24 26.1719 128.693 26.001 128.302 25.8105C127.917 25.6152 127.628 25.3784 127.438 25.1001C127.252 24.8218 127.16 24.4849 127.16 24.0894C127.16 23.4644 127.421 22.9492 127.943 22.5439C128.466 22.1338 129.135 21.9287 129.95 21.9287C130.834 21.9287 131.542 22.1484 132.074 22.5879C132.611 23.0225 132.88 23.5913 132.88 24.2944H132.001C132.001 23.8306 131.806 23.4448 131.415 23.1372C131.029 22.8296 130.541 22.6758 129.95 22.6758C129.374 22.6758 128.91 22.8052 128.559 23.064C128.212 23.3179 128.039 23.6499 128.039 24.0601C128.039 24.4556 128.183 24.7632 128.471 24.9829C128.764 25.1978 129.293 25.3955 130.06 25.5762C130.832 25.7568 131.408 25.9497 131.789 26.1548C132.174 26.3599 132.46 26.6064 132.646 26.8945C132.831 27.1826 132.924 27.5317 132.924 27.9419C132.924 28.6108 132.653 29.1455 132.111 29.5459C131.574 29.9463 130.871 30.1465 130.001 30.1465C129.079 30.1465 128.329 29.9243 127.753 29.48C127.182 29.0308 126.896 28.4644 126.896 27.7808H127.775C127.809 28.2935 128.024 28.6938 128.419 28.9819C128.82 29.2651 129.347 29.4067 130.001 29.4067C130.612 29.4067 131.105 29.2725 131.481 29.0039C131.857 28.7354 132.045 28.396 132.045 27.9858Z" fill="black"/>
<path d="M139.904 30C139.816 29.751 139.76 29.3823 139.735 28.894C139.428 29.2944 139.035 29.6045 138.556 29.8242C138.083 30.0391 137.58 30.1465 137.047 30.1465C136.286 30.1465 135.668 29.9341 135.194 29.5093C134.726 29.0845 134.491 28.5474 134.491 27.8979C134.491 27.1265 134.811 26.5161 135.451 26.0669C136.095 25.6177 136.991 25.3931 138.139 25.3931H139.728V24.4922C139.728 23.9258 139.552 23.4814 139.201 23.1592C138.854 22.832 138.346 22.6685 137.677 22.6685C137.067 22.6685 136.562 22.8247 136.161 23.1372C135.761 23.4497 135.561 23.8257 135.561 24.2651L134.682 24.2578C134.682 23.6279 134.975 23.0835 135.561 22.6245C136.146 22.1606 136.867 21.9287 137.721 21.9287C138.605 21.9287 139.301 22.1509 139.809 22.5952C140.321 23.0347 140.585 23.6499 140.6 24.4409V28.1909C140.6 28.9575 140.68 29.5312 140.841 29.9121V30H139.904ZM137.15 29.3701C137.736 29.3701 138.258 29.2285 138.717 28.9453C139.181 28.6621 139.518 28.2837 139.728 27.8101V26.0669H138.161C137.287 26.0767 136.603 26.2378 136.11 26.5503C135.617 26.8579 135.37 27.2827 135.37 27.8247C135.37 28.269 135.534 28.6377 135.861 28.9307C136.193 29.2236 136.623 29.3701 137.15 29.3701Z" fill="black"/>
</svg>
