<svg width="55" height="48" viewBox="0 0 55 48" fill="none" xmlns="http://www.w3.org/2000/svg">
<path d="M36.2336 0.993164H18.7664C8.3727 0.993164 0 9.51023 0 19.7596C0 30.0089 8.51706 38.526 18.7664 38.526H41.7192C49.9475 38.526 52.1129 45.7438 52.1129 46.0325C52.2572 46.61 52.8346 47.043 53.5564 47.043H53.7008C54.4226 46.8987 55 46.3212 55 45.5995V19.6152C55 9.51022 46.6273 0.993164 36.2336 0.993164ZM52.1129 40.4026C49.9475 37.9485 46.6273 35.7832 41.7192 35.7832H18.7664C9.96063 35.7832 2.88714 28.5653 2.88714 19.9039C2.88714 11.2425 10.105 4.02466 18.7664 4.02466H36.2336C45.0394 4.02466 52.1129 11.2425 52.1129 19.9039V40.4026Z" fill="#F0F0F0"/>
<path d="M15.1573 14.8517H40.4198C40.9972 14.8517 41.5746 14.4186 41.5746 13.6968C41.5746 12.9751 41.1416 12.542 40.4198 12.542H15.1573C14.5799 12.542 14.0024 12.9751 14.0024 13.6968C14.0024 14.4186 14.5799 14.8517 15.1573 14.8517Z" fill="#F0F0F0"/>
<path d="M40.5643 19.1816H15.3018C14.7244 19.1816 14.147 19.6147 14.147 20.3365C14.147 21.0583 14.58 21.4914 15.3018 21.4914H40.5643C41.1417 21.4914 41.7191 21.0583 41.7191 20.3365C41.7191 19.6147 41.1417 19.1816 40.5643 19.1816Z" fill="#F0F0F0"/>
<path d="M28.5827 25.3906H15.3018C14.7244 25.3906 14.147 25.8237 14.147 26.5455C14.147 27.2673 14.58 27.7003 15.3018 27.7003H28.5827C29.1601 27.7003 29.7375 27.2673 29.7375 26.5455C29.7375 25.8237 29.1601 25.3906 28.5827 25.3906Z" fill="#F0F0F0"/>
</svg>
