<svg width="21" height="27" viewBox="0 0 21 27" fill="none" xmlns="http://www.w3.org/2000/svg">
<path d="M9.89592 23C9.9737 23 9.97369 23 10.0515 23C10.1293 23 10.1293 23 10.207 23C10.2848 23 10.2848 23 10.3626 23C10.4404 23 10.4404 23 10.5181 23C10.5959 23 10.5959 22.9024 10.6737 22.9024C10.6737 22.9024 10.7515 22.9024 10.7515 22.8049L13.4737 19.4878C13.7848 19.0976 13.7848 18.5122 13.4737 18.122C13.1626 17.7317 12.6959 17.7317 12.3848 18.122L10.9848 19.878L10.9848 0.97561C10.9848 0.390244 10.6737 -1.32591e-07 10.207 -1.5299e-07C9.74036 -1.73389e-07 9.42925 0.390244 9.42925 0.97561L9.42925 19.878L8.02925 18.122C7.71814 17.7317 7.25147 17.7317 6.94036 18.122C6.7848 18.3171 6.70703 18.5122 6.70703 18.8049C6.70703 19.0976 6.7848 19.2927 6.94036 19.4878L9.66258 22.8049C9.66258 22.8049 9.74036 22.8049 9.74036 22.9024C9.81814 22.9024 9.81814 23 9.89592 23Z" fill="#3AC87B"/>
<path d="M20.1754 13.0246H16.5467L12.3375 8.27804C11.2247 7.02321 9.43453 7.02321 8.32174 8.27804L4.11249 13.0246H0.483822C0.193529 13.0246 0 13.2428 0 13.5701V15.4797C0 15.807 0.193529 16.0252 0.483822 16.0252H0.628968L3.5319 26.2821C3.58028 26.5003 3.77381 26.664 4.01572 26.664H16.6919C16.8854 26.664 17.0789 26.5003 17.1757 26.2821L20.0786 16.0252H20.2238C20.5141 16.0252 20.7076 15.807 20.7076 15.4797V13.5701C20.6592 13.2973 20.4173 13.0246 20.1754 13.0246ZM8.95071 9.04184C9.67644 8.22348 10.886 8.22348 11.6117 9.04184L15.1436 13.0246H5.41881L8.95071 9.04184ZM0.919262 14.1157H19.6432V14.9341H0.919262V14.1157ZM16.3048 25.5728H4.30602L1.59661 16.0252H19.0142L16.3048 25.5728Z" fill="#D3D3D3"/>
</svg>
