<svg width="16" height="14" viewBox="0 0 16 14" fill="none" xmlns="http://www.w3.org/2000/svg">
<path d="M15.5888 4.11997H12.785L9.53271 0.681722C8.6729 -0.227241 7.28972 -0.227241 6.42991 0.681722L3.17757 4.11997H0.373832C0.149533 4.11997 0 4.27805 0 4.51517V5.89838C0 6.1355 0.149533 6.29358 0.373832 6.29358H0.485981L2.72897 13.7234C2.76635 13.8814 2.91589 14 3.1028 14H12.8972C13.0467 14 13.1963 13.8814 13.271 13.7234L15.514 6.29358H15.6262C15.8505 6.29358 16 6.1355 16 5.89838V4.51517C15.9626 4.31757 15.7757 4.11997 15.5888 4.11997ZM6.91589 1.235C7.47664 0.642202 8.41121 0.642202 8.97196 1.235L11.7009 4.11997H4.18692L6.91589 1.235ZM0.71028 4.91038H15.1776V5.50318H0.71028V4.91038ZM12.5981 13.2096H3.3271L1.23364 6.29358H14.6916L12.5981 13.2096Z" fill="#3D3737"/>
</svg>
