<svg width="70" height="41" viewBox="0 0 70 41" fill="none" xmlns="http://www.w3.org/2000/svg">
<path d="M68.6438 0.044785C67.8773 -0.150643 67.1004 0.311711 66.905 1.07722L65.2577 7.53207C46.058 -4.49296 23.6848 19.9384 4.50715 7.65218L2.81503 1.07436C2.61865 0.309805 1.8398 -0.150644 1.07429 0.0457378C0.308782 0.242119 -0.151666 1.02193 0.0456689 1.78648L9.81708 39.7596C9.97914 40.3926 10.5492 40.834 11.2022 40.834H58.5998C59.2537 40.834 59.8238 40.3907 59.9849 39.7577L69.6772 1.78362C69.8717 1.01907 69.4103 0.240213 68.6438 0.044785ZM57.4882 37.9741H12.309L5.41947 11.2023C24.1949 21.7421 45.8779 -1.06391 64.5951 10.126L57.4882 37.9741Z" fill="#F0F0F0"/>
</svg>
