<svg width="14" height="14" viewBox="0 0 14 14" fill="none" xmlns="http://www.w3.org/2000/svg">
<path d="M13.2001 13.8547C13.5011 13.6336 13.5418 13.2422 13.2908 12.977L7.62101 6.99976L13.2908 1.02249C13.5412 0.757861 13.5003 0.365106 13.2001 0.144813C12.8996 -0.075869 12.4521 -0.0400932 12.2015 0.224142L6.15363 6.60058C6.0439 6.71608 5.98904 6.85801 5.98904 6.99976C5.98904 7.14169 6.0439 7.28344 6.15363 7.39893L12.2015 13.7754C12.4521 14.0396 12.8994 14.0754 13.2001 13.8547Z" fill="#3D3737"/>
<path d="M0.255342 0.144735C-0.0457441 0.365806 -0.0864493 0.757201 0.16464 1.02241L5.83439 6.99968L0.16464 12.977C-0.0857857 13.2416 -0.0448593 13.6343 0.255342 13.8546C0.555764 14.0753 1.0033 14.0395 1.25395 13.7753L7.30177 7.39885C7.4115 7.28336 7.46636 7.14142 7.46636 6.99968C7.46636 6.85774 7.4115 6.716 7.30177 6.60051L1.25395 0.224064C1.0033 -0.0401714 0.555985 -0.0759466 0.255342 0.144735Z" fill="#3D3737"/>
</svg>
