<svg width="50" height="50" viewBox="0 0 50 50" fill="none" xmlns="http://www.w3.org/2000/svg">
<circle cx="25" cy="25" r="25" fill="white"/>
<path d="M31.7343 31.8553C32.0476 31.6342 32.0899 31.2428 31.8287 30.9776L25.9295 25L31.8287 19.0225C32.0893 18.7579 32.0467 18.3651 31.7343 18.1448C31.4217 17.9241 30.9561 17.9599 30.6953 18.2242L24.4027 24.6009C24.2885 24.7163 24.2314 24.8583 24.2314 25C24.2314 25.142 24.2885 25.2837 24.4027 25.3992L30.6953 31.7759C30.9561 32.0402 31.4215 32.0759 31.7343 31.8553Z" fill="#9E9E9E"/>
<path d="M18.2657 18.1447C17.9524 18.3658 17.9101 18.7572 18.1713 19.0224L24.0705 25L18.1713 30.9775C17.9107 31.2421 17.9533 31.6349 18.2657 31.8552C18.5783 32.0759 19.0439 32.0401 19.3047 31.7758L25.5973 25.3991C25.7115 25.2837 25.7686 25.1417 25.7686 25C25.7686 24.858 25.7115 24.7163 25.5973 24.6008L19.3047 18.2241C19.0439 17.9598 18.5785 17.9241 18.2657 18.1447Z" fill="#9E9E9E"/>
</svg>
