<svg width="24" height="15" viewBox="0 0 24 15" fill="none" xmlns="http://www.w3.org/2000/svg">
<path d="M23.721 11.8408L23.721 11.8407L22.3771 4.26467L22.377 4.26459C22.3332 4.01825 22.1211 3.8368 21.8708 3.8368H16.5391V1.36953C16.5391 1.0848 16.3109 0.85 16.025 0.85H3.49398C3.20805 0.85 2.97988 1.0848 2.97988 1.36953V2.94977C2.97988 3.2345 3.20805 3.4693 3.49398 3.4693C3.7799 3.4693 4.00807 3.2345 4.00807 2.94977V1.88906H15.5106V11.4136H9.75785C9.52707 10.4423 8.66468 9.71539 7.63325 9.71539C6.60205 9.71539 5.73968 10.4423 5.5089 11.4136H4.00807V10.4501C4.00807 10.1654 3.7799 9.93059 3.49398 9.93059C3.20805 9.93059 2.97988 10.1654 2.97988 10.4501V11.9331C2.97988 12.2178 3.20805 12.4526 3.49398 12.4526H5.50921C5.74043 13.4236 6.60254 14.15 7.6335 14.15C8.6647 14.15 9.52681 13.4234 9.75803 12.4526H15.5691C15.8003 13.4236 16.6624 14.15 17.6936 14.15C18.7248 14.15 19.5872 13.4231 19.818 12.4518H23.2147C23.3678 12.4518 23.5124 12.3829 23.6096 12.2647C23.7071 12.1469 23.7477 11.9918 23.721 11.8408ZM7.63325 13.1109C6.99679 13.1109 6.47467 12.5843 6.47467 11.9326C6.47467 11.2811 6.99677 10.7545 7.63325 10.7545C8.27 10.7545 8.79208 11.2811 8.79208 11.9326C8.79208 12.5843 8.27021 13.1109 7.63325 13.1109ZM17.6934 13.1109C17.0669 13.1109 16.5532 12.6007 16.537 11.9627C16.5377 11.9572 16.5391 11.9461 16.5391 11.9331V11.8901C16.5617 11.2583 17.0716 10.7547 17.6934 10.7547C18.3299 10.7547 18.8519 11.2814 18.8519 11.9328C18.8519 12.5843 18.3299 13.1109 17.6934 13.1109ZM22.6002 11.4128H19.8177C19.5867 10.442 18.7243 9.71539 17.6934 9.71539C17.2698 9.71539 16.8741 9.83841 16.5391 10.0504V4.87611H21.4407L22.6002 11.4128Z" fill="#9E9E9E" stroke="#9E9E9E" stroke-width="0.3"/>
<path d="M5.3505 5.22012C5.3505 4.93538 5.12233 4.70059 4.83641 4.70059H1.36409C1.07817 4.70059 0.85 4.93538 0.85 5.22012C0.85 5.50485 1.07817 5.73964 1.36409 5.73964H4.83641C5.12233 5.73964 5.3505 5.50485 5.3505 5.22012Z" fill="#9E9E9E" stroke="#9E9E9E" stroke-width="0.3"/>
<path d="M5.35094 8.08047C5.35094 7.79574 5.12277 7.56094 4.83685 7.56094H2.27816C1.99223 7.56094 1.76406 7.79574 1.76406 8.08047C1.76406 8.3652 1.99223 8.6 2.27816 8.6H4.8366C5.1227 8.6 5.35094 8.36527 5.35094 8.08047Z" fill="#9E9E9E" stroke="#9E9E9E" stroke-width="0.3"/>
</svg>
