<svg width="87" height="95" viewBox="0 0 87 95" fill="none" xmlns="http://www.w3.org/2000/svg">
<line x1="36.665" y1="42.3153" x2="58.1812" y2="42.3153" stroke="black" stroke-dasharray="5 5"/>
<path d="M28.6943 2.17969V9.44141H31.8203V2.17969H32.481V9.44141H35.5962V2.17969H36.2568V10H28.0283V2.17969H28.6943ZM41.8911 4.18848H42.5356V10H41.8911V5.2251L38.7544 10H38.1152V4.18848H38.7544V8.96875L41.8911 4.18848ZM48.9326 7.15332C48.9326 8.05924 48.7321 8.77897 48.3311 9.3125C47.93 9.84245 47.3929 10.1074 46.7197 10.1074C45.9248 10.1074 45.3161 9.82812 44.8936 9.26953V12.2344H44.2544V4.18848H44.8506L44.8828 5.01025C45.3018 4.39079 45.9087 4.08105 46.7036 4.08105C47.3983 4.08105 47.9425 4.34424 48.3364 4.87061C48.7339 5.39697 48.9326 6.12744 48.9326 7.06201V7.15332ZM48.2881 7.04053C48.2881 6.29932 48.1359 5.71387 47.8315 5.28418C47.5272 4.85449 47.1029 4.63965 46.5586 4.63965C46.1647 4.63965 45.8263 4.73454 45.5435 4.92432C45.2606 5.1141 45.0439 5.38981 44.8936 5.75146V8.53906C45.0475 8.87207 45.2677 9.1263 45.5542 9.30176C45.8407 9.47721 46.179 9.56494 46.5693 9.56494C47.11 9.56494 47.5308 9.3501 47.8315 8.92041C48.1359 8.48714 48.2881 7.86051 48.2881 7.04053ZM54.1802 4.18848H54.8247V10H54.1802V5.2251L51.0435 10H50.4043V4.18848H51.0435V8.96875L54.1802 4.18848ZM61.0122 10H60.3677V7.33594H57.2363V10H56.5918V4.18848H57.2363V6.79346H60.3677V4.18848H61.0122V10ZM66.4048 10C66.3403 9.81738 66.2992 9.54704 66.2812 9.18896C66.0557 9.48258 65.7674 9.70996 65.4165 9.87109C65.0692 10.0286 64.7004 10.1074 64.3101 10.1074C63.7515 10.1074 63.2985 9.95166 62.9512 9.64014C62.6074 9.32861 62.4355 8.93473 62.4355 8.4585C62.4355 7.89274 62.6701 7.44515 63.1392 7.11572C63.6118 6.7863 64.2689 6.62158 65.1104 6.62158H66.2759V5.96094C66.2759 5.54557 66.147 5.21973 65.8892 4.9834C65.6349 4.74349 65.2625 4.62354 64.772 4.62354C64.3244 4.62354 63.9538 4.73812 63.6602 4.96729C63.3665 5.19645 63.2197 5.47217 63.2197 5.79443L62.5752 5.78906C62.5752 5.32715 62.79 4.9279 63.2197 4.59131C63.6494 4.25114 64.1776 4.08105 64.8042 4.08105C65.4523 4.08105 65.9626 4.24398 66.335 4.56982C66.7109 4.89209 66.9043 5.34326 66.915 5.92334V8.67334C66.915 9.23551 66.9741 9.65625 67.0923 9.93555V10H66.4048ZM64.3853 9.53809C64.8149 9.53809 65.1981 9.43424 65.5347 9.22656C65.8748 9.01888 66.1219 8.74137 66.2759 8.39404V7.11572H65.1265C64.4855 7.12288 63.9842 7.24105 63.6226 7.47021C63.2609 7.6958 63.0801 8.00732 63.0801 8.40479C63.0801 8.73063 63.2 9.00098 63.4399 9.21582C63.6834 9.43066 63.9985 9.53809 64.3853 9.53809Z" fill="#3D3737"/>
<path d="M9.4414 63.8007L9.4414 62.9681L11.896 62.9735L11.896 63.6342L10 63.6342L10 69.5316L11.896 69.5316L11.896 70.1923L9.44141 70.1923L9.44141 69.6713C9.02604 69.2738 8.4209 68.9533 7.62598 68.7098C6.82747 68.4628 5.95377 68.3142 5.00488 68.264L2.17969 68.1244L2.17969 63.8007L9.4414 63.8007ZM9.44141 68.9032L9.4414 64.4613L2.74365 64.4613L2.74365 67.4906L4.9834 67.598C5.91439 67.6446 6.77197 67.7824 7.55615 68.0116C8.34033 68.2372 8.96875 68.5344 9.44141 68.9032ZM4.18847 57.2211L10 57.2211L10 57.8656L4.7417 57.8656L4.7417 60.245L6.91699 60.347C7.72265 60.39 8.33854 60.4706 8.76465 60.5887C9.18717 60.7069 9.4987 60.8824 9.69922 61.1151C9.89974 61.3479 10 61.6576 10 62.0443L10 62.2914L9.43066 62.2914L9.41992 62.0927C9.41276 61.7238 9.23372 61.4589 8.88281 61.2977C8.5319 61.1366 7.90527 61.031 7.00293 60.9808L4.18848 60.8627L4.18847 57.2211ZM4.18847 51.6727L4.18847 51.0282L10 51.0282L10 51.6727L5.2251 51.6727L10 54.8094L10 55.4486L4.18847 55.4486L4.18847 54.8094L8.96875 54.8094L4.18847 51.6727ZM10 44.8407L10 45.4852L7.33594 45.4852L7.33594 48.6166L10 48.6166L10 49.2611L4.18847 49.2611L4.18847 48.6166L6.79346 48.6166L6.79345 45.4852L4.18847 45.4852L4.18847 44.8407L10 44.8407ZM10 39.4481C9.81738 39.5126 9.54704 39.5538 9.18896 39.5717C9.48258 39.7972 9.70996 40.0855 9.87109 40.4364C10.0286 40.7837 10.1074 41.1525 10.1074 41.5428C10.1074 42.1014 9.95166 42.5544 9.64013 42.9017C9.32861 43.2455 8.93473 43.4174 8.45849 43.4174C7.89274 43.4174 7.44515 43.1828 7.11572 42.7137C6.78629 42.2411 6.62158 41.584 6.62158 40.7426L6.62158 39.577L5.96094 39.577C5.54557 39.577 5.21972 39.7059 4.9834 39.9637C4.74349 40.218 4.62353 40.5904 4.62353 41.0809C4.62353 41.5285 4.73812 41.8991 4.96728 42.1927C5.19645 42.4864 5.47217 42.6332 5.79443 42.6332L5.78906 43.2777C5.32715 43.2777 4.92789 43.0629 4.59131 42.6332C4.25114 42.2035 4.08105 41.6753 4.08105 41.0487C4.08105 40.4006 4.24398 39.8903 4.56982 39.5179C4.89209 39.142 5.34326 38.9486 5.92334 38.9379L8.67334 38.9379C9.23551 38.9379 9.65625 38.8788 9.93554 38.7606L10 38.7606L10 39.4481ZM9.53808 41.4677C9.53808 41.038 9.43424 40.6548 9.22656 40.3182C9.01888 39.9781 8.74137 39.731 8.39404 39.577L7.11572 39.577L7.11572 40.7264C7.12288 41.3674 7.24105 41.8687 7.47021 42.2303C7.6958 42.592 8.00732 42.7728 8.40478 42.7728C8.73063 42.7728 9.00097 42.6529 9.21582 42.413C9.43066 42.1695 9.53808 41.8544 9.53808 41.4677Z" fill="#3D3737"/>
<line x1="16.9233" y1="15.8153" x2="16.9233" y2="91.8732" stroke="black" stroke-dasharray="5 5"/>
<path fill-rule="evenodd" clip-rule="evenodd" d="M43.807 20.1674C42.565 19.2781 41.4649 17.9228 41.0569 16.0267C38.4477 15.9963 32.6409 17.8261 29.9268 26.1168C30.6037 26.8125 31.2732 27.3159 32.1019 27.7176C32.8431 28.0768 33.7397 28.3684 34.9277 28.6257L34.3488 25.0183C34.2613 24.473 34.6324 23.96 35.1777 23.8725C35.723 23.785 36.236 24.1561 36.3235 24.7014L37.1171 29.6463C38.0475 32.6705 38.4233 34.9449 38.4233 41.2946C38.4233 41.3114 38.4229 41.3282 38.4221 41.3449C38.295 43.8671 37.5737 46.5586 36.6102 49.5532C36.2223 50.7588 35.7999 52.0003 35.3554 53.3068L35.3553 53.307L35.3553 53.3071C34.6738 55.3101 33.9402 57.466 33.1993 59.8797C30.83 67.598 28.5187 77.564 28.4262 91.2524C34.2523 92.1515 41.7604 92.6044 47.9233 92.6044C54.0863 92.6044 61.5944 92.1515 67.4205 91.2524C67.328 77.564 65.0167 67.598 62.6474 59.8797C61.9065 57.466 61.1729 55.3101 60.4914 53.3071L60.4914 53.307C60.0468 52.0004 59.6244 50.7589 59.2365 49.5532C58.2729 46.5586 57.5517 43.8671 57.4246 41.3449C57.4238 41.3282 57.4233 41.3114 57.4233 41.2946C57.4233 34.9449 57.7992 32.6705 58.7296 29.6463L58.7402 29.5805L58.8 29.2075L59.003 27.9428L59.5232 24.7014C59.6107 24.1561 60.1237 23.785 60.669 23.8725C61.2143 23.96 61.5854 24.473 61.4979 25.0183L60.9777 28.2597L60.919 28.6257C62.107 28.3684 63.0036 28.0768 63.7448 27.7176C64.5735 27.3159 65.243 26.8125 65.9199 26.1168C63.2058 17.8261 57.399 15.9963 54.7898 16.0267C54.3818 17.9228 53.2816 19.2781 52.0397 20.1674C50.6566 21.1579 49.0547 21.6044 47.9233 21.6044C46.792 21.6044 45.1901 21.1579 43.807 20.1674ZM47.9233 19.6044C48.6165 19.6044 49.8146 19.3009 50.8753 18.5413C51.9046 17.8043 52.7616 16.672 52.9283 15.0049C52.9725 14.5631 53.3027 14.2033 53.7391 14.1215C56.9359 13.5221 64.8352 15.5466 68.0055 26.0832C68.1056 26.4158 68.0259 26.7765 67.795 27.036C66.8516 28.0965 65.8903 28.9002 64.6171 29.5173C63.4966 30.0604 62.1754 30.4389 60.4855 30.752C59.7457 33.2756 59.4243 35.4506 59.4233 41.2691C59.5399 43.5061 60.1874 45.9788 61.1403 48.9406C61.5052 50.0746 61.9198 51.2942 62.3619 52.5945L62.362 52.5949C63.0557 54.6352 63.8169 56.8742 64.5594 59.2928C67.0212 67.3124 69.4233 77.7326 69.4233 92.1044C69.4233 92.5932 69.0699 93.0104 68.5877 93.0908C62.5181 94.1024 54.4604 94.6044 47.9233 94.6044C41.3863 94.6044 33.3285 94.1024 27.2589 93.0908C26.7768 93.0104 26.4233 92.5932 26.4233 92.1044C26.4233 77.7326 28.8255 67.3124 31.2873 59.2928C32.0298 56.8741 32.7911 54.635 33.4847 52.5946L33.4848 52.5945C33.9268 51.2942 34.3415 50.0746 34.7064 48.9406C35.6593 45.9788 36.3068 43.5061 36.4233 41.2691C36.4224 35.4506 36.101 33.2756 35.3612 30.752C33.6713 30.4389 32.3501 30.0604 31.2296 29.5173C29.9564 28.9002 28.995 28.0965 28.0516 27.036C27.8208 26.7765 27.7411 26.4158 27.8412 26.0832C31.0114 15.5466 38.9108 13.5221 42.1076 14.1215C42.544 14.2033 42.8742 14.5631 42.9184 15.0049C43.0851 16.672 43.9421 17.8043 44.9714 18.5413C46.0321 19.3009 47.2302 19.6044 47.9233 19.6044Z" fill="#CBCBCB"/>
</svg>
