<svg width="89" height="117" viewBox="0 0 89 117" fill="none" xmlns="http://www.w3.org/2000/svg">
<line x1="26.0001" y1="59.5" x2="74.0001" y2="59.5" stroke="black" stroke-dasharray="5 5"/>
<path d="M31.271 0.179688V7.44141H34.397V0.179688H35.0576V7.44141H38.1729V0.179688H38.8335V8H30.605V0.179688H31.271ZM44.4678 2.18848H45.1123V8H44.4678V3.2251L41.3311 8H40.6919V2.18848H41.3311V6.96875L44.4678 2.18848ZM51.5093 5.15332C51.5093 6.05924 51.3088 6.77897 50.9077 7.3125C50.5067 7.84245 49.9696 8.10742 49.2964 8.10742C48.5015 8.10742 47.8927 7.82812 47.4702 7.26953V10.2344H46.8311V2.18848H47.4272L47.4595 3.01025C47.8784 2.39079 48.4854 2.08105 49.2803 2.08105C49.9749 2.08105 50.5192 2.34424 50.9131 2.87061C51.3105 3.39697 51.5093 4.12744 51.5093 5.06201V5.15332ZM50.8647 5.04053C50.8647 4.29932 50.7126 3.71387 50.4082 3.28418C50.1038 2.85449 49.6795 2.63965 49.1353 2.63965C48.7414 2.63965 48.403 2.73454 48.1201 2.92432C47.8372 3.1141 47.6206 3.38981 47.4702 3.75146V6.53906C47.6242 6.87207 47.8444 7.1263 48.1309 7.30176C48.4173 7.47721 48.7557 7.56494 49.146 7.56494C49.6867 7.56494 50.1074 7.3501 50.4082 6.92041C50.7126 6.48714 50.8647 5.86051 50.8647 5.04053ZM56.7568 2.18848H57.4014V8H56.7568V3.2251L53.6201 8H52.981V2.18848H53.6201V6.96875L56.7568 2.18848ZM63.5889 8H62.9443V5.33594H59.813V8H59.1685V2.18848H59.813V4.79346H62.9443V2.18848H63.5889V8ZM68.9814 8C68.917 7.81738 68.8758 7.54704 68.8579 7.18896C68.6323 7.48258 68.3441 7.70996 67.9932 7.87109C67.6458 8.02865 67.277 8.10742 66.8867 8.10742C66.3281 8.10742 65.8752 7.95166 65.5278 7.64014C65.1841 7.32861 65.0122 6.93473 65.0122 6.4585C65.0122 5.89274 65.2467 5.44515 65.7158 5.11572C66.1885 4.7863 66.8455 4.62158 67.687 4.62158H68.8525V3.96094C68.8525 3.54557 68.7236 3.21973 68.4658 2.9834C68.2116 2.74349 67.8392 2.62354 67.3486 2.62354C66.901 2.62354 66.5304 2.73812 66.2368 2.96729C65.9432 3.19645 65.7964 3.47217 65.7964 3.79443L65.1519 3.78906C65.1519 3.32715 65.3667 2.9279 65.7964 2.59131C66.2261 2.25114 66.7542 2.08105 67.3809 2.08105C68.029 2.08105 68.5392 2.24398 68.9116 2.56982C69.2876 2.89209 69.481 3.34326 69.4917 3.92334V6.67334C69.4917 7.23551 69.5508 7.65625 69.6689 7.93555V8H68.9814ZM66.9619 7.53809C67.3916 7.53809 67.7747 7.43424 68.1113 7.22656C68.4515 7.01888 68.6986 6.74137 68.8525 6.39404V5.11572H67.7031C67.0622 5.12288 66.5609 5.24105 66.1992 5.47021C65.8376 5.6958 65.6567 6.00732 65.6567 6.40479C65.6567 6.73063 65.7767 7.00098 66.0166 7.21582C66.2601 7.43066 66.5752 7.53809 66.9619 7.53809Z" fill="#3D3737"/>
<path d="M7.4414 75.9854L7.4414 75.1528L9.89599 75.1582L9.89599 75.8188L8 75.8188L8 81.7163L9.89599 81.7163L9.896 82.377L7.44141 82.377L7.44141 81.856C7.02604 81.4585 6.4209 81.138 5.62598 80.8945C4.82747 80.6475 3.95377 80.4989 3.00488 80.4487L0.179686 80.3091L0.179686 75.9854L7.4414 75.9854ZM7.44141 81.0879L7.4414 76.646L0.743651 76.646L0.743651 79.6753L2.9834 79.7827C3.91439 79.8293 4.77197 79.9671 5.55615 80.1963C6.34033 80.4219 6.96875 80.7191 7.44141 81.0879ZM2.18847 69.4058L8 69.4058L8 70.0503L2.7417 70.0503L2.7417 72.4297L4.91699 72.5317C5.72265 72.5747 6.33854 72.6553 6.76465 72.7734C7.18717 72.8916 7.4987 73.0671 7.69922 73.2998C7.89974 73.5326 8 73.8423 8 74.229L8 74.4761L7.43066 74.4761L7.41992 74.2773C7.41276 73.9085 7.23372 73.6436 6.88281 73.4824C6.5319 73.3213 5.90527 73.2157 5.00293 73.1655L2.18848 73.0474L2.18847 69.4058ZM2.18847 63.8574L2.18847 63.2129L8 63.2129L8 63.8574L3.2251 63.8574L8 66.9941L8 67.6333L2.18847 67.6333L2.18847 66.9941L6.96875 66.9941L2.18847 63.8574ZM8 57.0254L8 57.6699L5.33594 57.6699L5.33594 60.8013L8 60.8013L8 61.4458L2.18847 61.4458L2.18847 60.8013L4.79346 60.8013L4.79345 57.6699L2.18847 57.6699L2.18847 57.0254L8 57.0254ZM8 51.6328C7.81738 51.6973 7.54704 51.7384 7.18896 51.7563C7.48258 51.9819 7.70996 52.2702 7.87109 52.6211C8.02864 52.9684 8.10742 53.3372 8.10742 53.7275C8.10742 54.2861 7.95166 54.7391 7.64013 55.0864C7.32861 55.4302 6.93473 55.6021 6.45849 55.6021C5.89274 55.6021 5.44515 55.3675 5.11572 54.8984C4.78629 54.4258 4.62158 53.7687 4.62158 52.9272L4.62158 51.7617L3.96094 51.7617C3.54557 51.7617 3.21972 51.8906 2.9834 52.1484C2.74349 52.4027 2.62353 52.7751 2.62353 53.2656C2.62353 53.7132 2.73812 54.0838 2.96728 54.3774C3.19645 54.6711 3.47217 54.8179 3.79443 54.8179L3.78906 55.4624C3.32715 55.4624 2.92789 55.2476 2.59131 54.8179C2.25114 54.3882 2.08105 53.86 2.08105 53.2334C2.08105 52.5853 2.24398 52.075 2.56982 51.7026C2.89209 51.3267 3.34326 51.1333 3.92334 51.1226L6.67334 51.1226C7.23551 51.1226 7.65625 51.0635 7.93554 50.9453L8 50.9453L8 51.6328ZM7.53808 53.6523C7.53808 53.2227 7.43424 52.8395 7.22656 52.5029C7.01888 52.1628 6.74137 51.9157 6.39404 51.7617L5.11572 51.7617L5.11572 52.9111C5.12288 53.5521 5.24105 54.0534 5.47021 54.415C5.6958 54.7767 6.00732 54.9575 6.40478 54.9575C6.73063 54.9575 7.00097 54.8376 7.21582 54.5977C7.43066 54.3542 7.53808 54.0391 7.53808 53.6523Z" fill="#3D3737"/>
<path d="M48.4493 36.2168L43.0841 30.8515L38.0723 25.0045C37.1613 23.9417 35.4683 24.1194 34.798 25.3483L31.2232 31.9016C30.9658 32.3734 30.519 32.7218 30.0056 32.8807C12.1481 38.4084 11.1114 54.8342 12.3738 83.3456C12.4022 83.9882 12.9323 84.5032 13.5756 84.5032V84.5032H26.6053M50.3654 116H28.6053C27.5007 116 26.6053 115.105 26.6053 114V92.1678V84.5032M26.6053 59.9767V84.5032" stroke="#CBCBCB" stroke-width="2"/>
<path d="M48.4488 36.2168C49.4701 37.1903 50.0461 37.3068 51.1314 36.2168" stroke="#CBCBCB" stroke-width="2"/>
<path d="M51.1319 36.2168L56.4971 30.8515L61.5089 25.0045C62.4199 23.9417 64.1128 24.1194 64.7832 25.3483L68.358 31.9016C68.6153 32.3734 69.0622 32.7218 69.5755 32.8807C87.4331 38.4084 88.4697 54.8342 87.2074 83.3456C87.179 83.9882 86.6489 84.5032 86.0056 84.5032V84.5032H72.9759M49.2158 116H70.9759C72.0804 116 72.9759 115.105 72.9759 114V92.1678V84.5032M72.9759 59.9767V84.5032" stroke="#CBCBCB" stroke-width="2"/>
<path d="M35.4193 24.3151C43.8286 15.9057 55.7303 15.8841 64.1612 24.3151" stroke="#CBCBCB" stroke-width="2"/>
<path d="M30.8206 32.3845C35.7125 34.416 40.1293 35.3868 49.9819 36.9832" stroke="#CBCBCB" stroke-width="2"/>
<path d="M69.1434 32.3845C64.2515 34.416 59.8347 35.3868 49.982 36.9832" stroke="#CBCBCB" stroke-width="2"/>
<line x1="13.5001" y1="26" x2="13.5001" y2="104" stroke="black" stroke-dasharray="5 5"/>
</svg>
