<svg width="90" height="91" viewBox="0 0 90 91" fill="none" xmlns="http://www.w3.org/2000/svg">
<path fill-rule="evenodd" clip-rule="evenodd" d="M33.3469 14.0265C33.3464 14.0202 33.3455 14.0143 33.3443 14.0089C29.9884 14.3949 24.8999 16.668 20.2579 20.7442C15.7163 24.7323 11.6961 30.3659 10.1755 37.4458L20.4122 47.3296L24.7728 43.9753L26.3825 42.737V44.7679V88.0024H48.6638H70.9452V44.7679V42.737L72.5549 43.9753L76.9155 47.3296L87.1522 37.4458C85.6316 30.3659 81.6114 24.7323 77.0698 20.7442C72.4277 16.668 67.3393 14.3949 63.9834 14.0089C63.9822 14.0143 63.9813 14.0202 63.9808 14.0265C63.631 18.6811 61.0319 21.7947 57.9309 23.7105C54.8607 25.6073 51.2542 26.3668 48.6638 26.3668C46.0735 26.3668 42.467 25.6073 39.3968 23.7105C36.2958 21.7947 33.6967 18.6811 33.3469 14.0265ZM48.6638 24.3668C50.9324 24.3668 54.165 23.6862 56.8797 22.0091C59.5634 20.351 61.6948 17.757 61.9864 13.8766C62.0602 12.895 62.8852 11.8794 64.1194 12.0117C67.9991 12.4276 73.5017 14.9494 78.3894 19.2414C83.3008 23.5541 87.6915 29.74 89.2236 37.592L89.3277 38.1254L88.9367 38.5029L77.6841 49.3675L77.0635 49.9667L76.3798 49.4408L72.9452 46.7988V88.0024C72.9452 89.107 72.0498 90.0024 70.9452 90.0024H48.6638H26.3825C25.2779 90.0024 24.3825 89.107 24.3825 88.0024V46.7988L20.9479 49.4408L20.2642 49.9667L19.6436 49.3675L8.39098 38.5029L8 38.1254L8.10408 37.592C9.63617 29.74 14.0269 23.5541 18.9383 19.2414C23.826 14.9494 29.3286 12.4276 33.2083 12.0117C34.4425 11.8794 35.2675 12.895 35.3412 13.8766C35.6329 17.757 37.7642 20.351 40.448 22.0091C43.1626 23.6862 46.3953 24.3668 48.6638 24.3668Z" fill="#CBCBCB"/>
<line x1="25" y1="38.5" x2="73" y2="38.5" stroke="black" stroke-dasharray="5 5"/>
<path d="M30.271 0.179688V7.44141H33.397V0.179688H34.0576V7.44141H37.1729V0.179688H37.8335V8H29.605V0.179688H30.271ZM43.4678 2.18848H44.1123V8H43.4678V3.2251L40.3311 8H39.6919V2.18848H40.3311V6.96875L43.4678 2.18848ZM50.5093 5.15332C50.5093 6.05924 50.3088 6.77897 49.9077 7.3125C49.5067 7.84245 48.9696 8.10742 48.2964 8.10742C47.5015 8.10742 46.8927 7.82812 46.4702 7.26953V10.2344H45.8311V2.18848H46.4272L46.4595 3.01025C46.8784 2.39079 47.4854 2.08105 48.2803 2.08105C48.9749 2.08105 49.5192 2.34424 49.9131 2.87061C50.3105 3.39697 50.5093 4.12744 50.5093 5.06201V5.15332ZM49.8647 5.04053C49.8647 4.29932 49.7126 3.71387 49.4082 3.28418C49.1038 2.85449 48.6795 2.63965 48.1353 2.63965C47.7414 2.63965 47.403 2.73454 47.1201 2.92432C46.8372 3.1141 46.6206 3.38981 46.4702 3.75146V6.53906C46.6242 6.87207 46.8444 7.1263 47.1309 7.30176C47.4173 7.47721 47.7557 7.56494 48.146 7.56494C48.6867 7.56494 49.1074 7.3501 49.4082 6.92041C49.7126 6.48714 49.8647 5.86051 49.8647 5.04053ZM55.7568 2.18848H56.4014V8H55.7568V3.2251L52.6201 8H51.981V2.18848H52.6201V6.96875L55.7568 2.18848ZM62.5889 8H61.9443V5.33594H58.813V8H58.1685V2.18848H58.813V4.79346H61.9443V2.18848H62.5889V8ZM67.9814 8C67.917 7.81738 67.8758 7.54704 67.8579 7.18896C67.6323 7.48258 67.3441 7.70996 66.9932 7.87109C66.6458 8.02865 66.277 8.10742 65.8867 8.10742C65.3281 8.10742 64.8752 7.95166 64.5278 7.64014C64.1841 7.32861 64.0122 6.93473 64.0122 6.4585C64.0122 5.89274 64.2467 5.44515 64.7158 5.11572C65.1885 4.7863 65.8455 4.62158 66.687 4.62158H67.8525V3.96094C67.8525 3.54557 67.7236 3.21973 67.4658 2.9834C67.2116 2.74349 66.8392 2.62354 66.3486 2.62354C65.901 2.62354 65.5304 2.73812 65.2368 2.96729C64.9432 3.19645 64.7964 3.47217 64.7964 3.79443L64.1519 3.78906C64.1519 3.32715 64.3667 2.9279 64.7964 2.59131C65.2261 2.25114 65.7542 2.08105 66.3809 2.08105C67.029 2.08105 67.5392 2.24398 67.9116 2.56982C68.2876 2.89209 68.481 3.34326 68.4917 3.92334V6.67334C68.4917 7.23551 68.5508 7.65625 68.6689 7.93555V8H67.9814ZM65.9619 7.53809C66.3916 7.53809 66.7747 7.43424 67.1113 7.22656C67.4515 7.01888 67.6986 6.74137 67.8525 6.39404V5.11572H66.7031C66.0622 5.12288 65.5609 5.24105 65.1992 5.47021C64.8376 5.6958 64.6567 6.00732 64.6567 6.40479C64.6567 6.73063 64.7767 7.00098 65.0166 7.21582C65.2601 7.43066 65.5752 7.53809 65.9619 7.53809Z" fill="#3D3737"/>
<path d="M7.4414 59.9854L7.4414 59.1528L9.89599 59.1582L9.89599 59.8188L8 59.8188L8 65.7163L9.89599 65.7163L9.896 66.377L7.44141 66.377L7.44141 65.856C7.02604 65.4585 6.4209 65.138 5.62598 64.8945C4.82747 64.6475 3.95377 64.4989 3.00488 64.4487L0.179686 64.3091L0.179686 59.9854L7.4414 59.9854ZM7.44141 65.0879L7.4414 60.646L0.743651 60.646L0.743651 63.6753L2.9834 63.7827C3.91439 63.8293 4.77197 63.9671 5.55615 64.1963C6.34033 64.4219 6.96875 64.7191 7.44141 65.0879ZM2.18847 53.4058L8 53.4058L8 54.0503L2.7417 54.0503L2.7417 56.4297L4.91699 56.5317C5.72265 56.5747 6.33854 56.6553 6.76465 56.7734C7.18717 56.8916 7.4987 57.0671 7.69922 57.2998C7.89974 57.5326 8 57.8423 8 58.229L8 58.4761L7.43066 58.4761L7.41992 58.2773C7.41276 57.9085 7.23372 57.6436 6.88281 57.4824C6.5319 57.3213 5.90527 57.2157 5.00293 57.1655L2.18848 57.0474L2.18847 53.4058ZM2.18847 47.8574L2.18847 47.2129L8 47.2129L8 47.8574L3.2251 47.8574L8 50.9941L8 51.6333L2.18847 51.6333L2.18847 50.9941L6.96875 50.9941L2.18847 47.8574ZM8 41.0254L8 41.6699L5.33594 41.6699L5.33594 44.8013L8 44.8013L8 45.4458L2.18847 45.4458L2.18847 44.8013L4.79346 44.8013L4.79345 41.6699L2.18847 41.6699L2.18847 41.0254L8 41.0254ZM8 35.6328C7.81738 35.6973 7.54704 35.7384 7.18896 35.7563C7.48258 35.9819 7.70996 36.2702 7.87109 36.6211C8.02864 36.9684 8.10742 37.3372 8.10742 37.7275C8.10742 38.2861 7.95166 38.7391 7.64013 39.0864C7.32861 39.4302 6.93473 39.6021 6.45849 39.6021C5.89274 39.6021 5.44515 39.3675 5.11572 38.8984C4.78629 38.4258 4.62158 37.7687 4.62158 36.9272L4.62158 35.7617L3.96094 35.7617C3.54557 35.7617 3.21972 35.8906 2.9834 36.1484C2.74349 36.4027 2.62353 36.7751 2.62353 37.2656C2.62353 37.7132 2.73812 38.0838 2.96728 38.3774C3.19645 38.6711 3.47217 38.8179 3.79443 38.8179L3.78906 39.4624C3.32715 39.4624 2.92789 39.2476 2.59131 38.8179C2.25114 38.3882 2.08105 37.86 2.08105 37.2334C2.08105 36.5853 2.24398 36.075 2.56982 35.7026C2.89209 35.3267 3.34326 35.1333 3.92334 35.1226L6.67334 35.1226C7.23551 35.1226 7.65625 35.0635 7.93554 34.9453L8 34.9453L8 35.6328ZM7.53808 37.6523C7.53808 37.2227 7.43424 36.8395 7.22656 36.5029C7.01888 36.1628 6.74137 35.9157 6.39404 35.7617L5.11572 35.7617L5.11572 36.9111C5.12288 37.5521 5.24105 38.0534 5.47021 38.415C5.6958 38.7767 6.00732 38.9575 6.40478 38.9575C6.73063 38.9575 7.00097 38.8376 7.21582 38.5977C7.43066 38.3542 7.53808 38.0391 7.53808 37.6523Z" fill="#3D3737"/>
<line x1="18.5" y1="12" x2="18.5" y2="90" stroke="black" stroke-dasharray="5 5"/>
</svg>
