<svg width="90" height="103" viewBox="0 0 90 103" fill="none" xmlns="http://www.w3.org/2000/svg">
<path d="M64.3145 20H19.6855C19.1987 20 18.7906 20.3629 18.738 20.8414L9.00562 96.3203C8.95489 96.7826 9.25227 97.2128 9.70647 97.333L30.9413 102.968C31.1963 103.036 31.4718 102.994 31.6966 102.854C31.9214 102.714 32.0768 102.487 32.1252 102.228L42 59.3538L51.8748 102.228C51.9232 102.487 52.0786 102.714 52.3034 102.854C52.457 102.95 52.6338 103 52.8121 103C52.8944 103 52.9777 102.989 53.0587 102.968L74.2935 97.333C74.7477 97.2128 75.0451 96.7826 74.9944 96.3203L65.262 20.8414C65.2094 20.3629 64.8013 20 64.3145 20ZM65.5708 46.4282C57.5187 45.8175 56.0736 33.0368 55.8155 30.3331H64.3852L65.5708 46.4282ZM63.4591 21.8864L64.1784 28.4467H19.8216L20.5409 21.8864H63.4591ZM19.6148 30.3331H28.1845C27.9264 33.0368 26.4813 45.8175 18.4292 46.4282L19.6148 30.3331ZM30.4382 100.881L10.9886 95.7202L11.8982 87.4235L32.0588 92.2109L30.4382 100.881ZM42 53.2249C41.5407 53.2249 41.1465 53.5496 41.0627 53.9968L32.4059 90.3538L12.1055 85.5333L18.221 48.3279C28.0776 47.8185 29.7918 33.3382 30.0861 30.3331H53.9139C54.2082 33.3382 55.9224 47.8185 65.779 48.3279L71.8921 85.5104L51.5899 90.3313L42.9373 53.9968C42.8535 53.5496 42.4593 53.2249 42 53.2249ZM53.5618 100.881L51.937 92.1884L72.0993 87.4007L73.0114 95.7202L53.5618 100.881Z" fill="#CBCBCB"/>
<line x1="20" y1="15.5" x2="65" y2="15.5" stroke="black" stroke-dasharray="5 5"/>
<path d="M23.771 0.179688V7.44141H26.897V0.179688H27.5576V7.44141H30.6729V0.179688H31.3335V8H23.105V0.179688H23.771ZM36.9678 2.18848H37.6123V8H36.9678V3.2251L33.8311 8H33.1919V2.18848H33.8311V6.96875L36.9678 2.18848ZM44.0093 5.15332C44.0093 6.05924 43.8088 6.77897 43.4077 7.3125C43.0067 7.84245 42.4696 8.10742 41.7964 8.10742C41.0015 8.10742 40.3927 7.82812 39.9702 7.26953V10.2344H39.3311V2.18848H39.9272L39.9595 3.01025C40.3784 2.39079 40.9854 2.08105 41.7803 2.08105C42.4749 2.08105 43.0192 2.34424 43.4131 2.87061C43.8105 3.39697 44.0093 4.12744 44.0093 5.06201V5.15332ZM43.3647 5.04053C43.3647 4.29932 43.2126 3.71387 42.9082 3.28418C42.6038 2.85449 42.1795 2.63965 41.6353 2.63965C41.2414 2.63965 40.903 2.73454 40.6201 2.92432C40.3372 3.1141 40.1206 3.38981 39.9702 3.75146V6.53906C40.1242 6.87207 40.3444 7.1263 40.6309 7.30176C40.9173 7.47721 41.2557 7.56494 41.646 7.56494C42.1867 7.56494 42.6074 7.3501 42.9082 6.92041C43.2126 6.48714 43.3647 5.86051 43.3647 5.04053ZM49.2568 2.18848H49.9014V8H49.2568V3.2251L46.1201 8H45.481V2.18848H46.1201V6.96875L49.2568 2.18848ZM56.0889 8H55.4443V5.33594H52.313V8H51.6685V2.18848H52.313V4.79346H55.4443V2.18848H56.0889V8ZM61.4814 8C61.417 7.81738 61.3758 7.54704 61.3579 7.18896C61.1323 7.48258 60.8441 7.70996 60.4932 7.87109C60.1458 8.02865 59.777 8.10742 59.3867 8.10742C58.8281 8.10742 58.3752 7.95166 58.0278 7.64014C57.6841 7.32861 57.5122 6.93473 57.5122 6.4585C57.5122 5.89274 57.7467 5.44515 58.2158 5.11572C58.6885 4.7863 59.3455 4.62158 60.187 4.62158H61.3525V3.96094C61.3525 3.54557 61.2236 3.21973 60.9658 2.9834C60.7116 2.74349 60.3392 2.62354 59.8486 2.62354C59.401 2.62354 59.0304 2.73812 58.7368 2.96729C58.4432 3.19645 58.2964 3.47217 58.2964 3.79443L57.6519 3.78906C57.6519 3.32715 57.8667 2.9279 58.2964 2.59131C58.7261 2.25114 59.2542 2.08105 59.8809 2.08105C60.529 2.08105 61.0392 2.24398 61.4116 2.56982C61.7876 2.89209 61.981 3.34326 61.9917 3.92334V6.67334C61.9917 7.23551 62.0508 7.65625 62.1689 7.93555V8H61.4814ZM59.4619 7.53809C59.8916 7.53809 60.2747 7.43424 60.6113 7.22656C60.9515 7.01888 61.1986 6.74137 61.3525 6.39404V5.11572H60.2031C59.5622 5.12288 59.0609 5.24105 58.6992 5.47021C58.3376 5.6958 58.1567 6.00732 58.1567 6.40479C58.1567 6.73063 58.2767 7.00098 58.5166 7.21582C58.7601 7.43066 59.0752 7.53809 59.4619 7.53809Z" fill="#3D3737"/>
<path d="M8 55.8965L0.179687 55.8965L0.179687 53.5869C0.179687 52.749 0.353353 52.1134 0.700683 51.6802C1.04443 51.2469 1.5529 51.0303 2.22607 51.0303C2.6307 51.0303 2.9834 51.1413 3.28418 51.3633C3.58138 51.5817 3.79443 51.8825 3.92334 52.2656C4.0236 51.8109 4.2474 51.4456 4.59473 51.1699C4.94206 50.8906 5.3431 50.751 5.79785 50.751C6.48893 50.751 7.02962 50.9748 7.41992 51.4224C7.80664 51.8664 8 52.4858 8 53.2808L8 55.8965ZM4.24023 55.2358L7.44141 55.2358L7.44141 53.2539C7.44141 52.6882 7.29818 52.2406 7.01172 51.9111C6.72168 51.5781 6.32064 51.4116 5.80859 51.4116C5.3252 51.4116 4.94385 51.571 4.66455 51.8896C4.38167 52.2048 4.24023 52.6416 4.24023 53.2002L4.24023 55.2358ZM3.68701 55.2358L3.68701 53.4312C3.67627 52.8797 3.54736 52.4536 3.30029 52.1528C3.04964 51.8485 2.6862 51.6963 2.20996 51.6963C1.70866 51.6963 1.33984 51.8538 1.10352 52.1689C0.863607 52.4805 0.743652 52.9531 0.743652 53.5869L0.743652 55.2358L3.68701 55.2358ZM4.29932 48.5918L4.29932 46.916C4.29932 46.4863 4.37809 46.1104 4.53564 45.7881C4.68962 45.4622 4.90446 45.217 5.18018 45.0522C5.45589 44.884 5.77637 44.7998 6.1416 44.7998C6.70378 44.7998 7.15495 44.9932 7.49512 45.3799C7.83171 45.763 8 46.2822 8 46.9375L8 49.231L2.18848 49.231L2.18848 48.5918L4.29932 48.5918ZM4.84717 48.5918L7.45752 48.5918L7.45752 46.9268C7.45752 46.4648 7.34115 46.1032 7.1084 45.8418C6.87565 45.5768 6.55697 45.4443 6.15234 45.4443C5.76562 45.4443 5.4541 45.5732 5.21777 45.8311C4.97786 46.0853 4.85433 46.4344 4.84717 46.8784L4.84717 48.5918ZM8 42.8286L8 43.4731L2.18848 43.4731L2.18848 42.8286L8 42.8286ZM7.56494 38.8916C7.56494 38.444 7.43962 38.0698 7.18896 37.769C6.93473 37.4647 6.6071 37.3 6.20605 37.2749L6.20605 36.6572C6.56055 36.6751 6.8846 36.7861 7.17822 36.9902C7.46826 37.1943 7.69564 37.4665 7.86035 37.8066C8.02506 38.1432 8.10742 38.5049 8.10742 38.8916C8.10742 39.6543 7.84245 40.2594 7.3125 40.707C6.78255 41.151 6.06999 41.373 5.1748 41.373L4.98144 41.373C4.40853 41.373 3.90185 41.2728 3.46143 41.0723C3.021 40.8717 2.68083 40.5853 2.44092 40.2129C2.20101 39.8369 2.08105 39.3983 2.08105 38.897C2.08105 38.2596 2.27083 37.735 2.65039 37.3232C3.02995 36.9079 3.52946 36.6859 4.14892 36.6572L4.14892 37.2749C3.69417 37.3035 3.32715 37.4683 3.04785 37.769C2.76855 38.0662 2.62891 38.4422 2.62891 38.897C2.62891 39.4771 2.83838 39.9282 3.25732 40.2505C3.67627 40.5692 4.26351 40.7285 5.01904 40.7285L5.20703 40.7285C5.94824 40.7285 6.52653 40.5692 6.94189 40.2505C7.35726 39.9282 7.56494 39.4753 7.56494 38.8916ZM5.0083 35.7227C4.44971 35.7227 3.94661 35.6152 3.49902 35.4004C3.05143 35.182 2.7041 34.8758 2.45703 34.4819C2.20638 34.0845 2.08105 33.6351 2.08105 33.1338C2.08105 32.3604 2.35319 31.7337 2.89746 31.2539C3.43815 30.7741 4.15609 30.5342 5.05127 30.5342L5.18555 30.5342C5.74772 30.5342 6.25439 30.6434 6.70557 30.8618C7.15316 31.0767 7.4987 31.381 7.74219 31.7749C7.98568 32.1688 8.10742 32.6182 8.10742 33.123C8.10742 33.8929 7.83708 34.5195 7.29639 35.0029C6.75211 35.4827 6.03239 35.7227 5.13721 35.7227L5.0083 35.7227ZM5.18555 35.0781C5.88021 35.0781 6.45133 34.8991 6.89892 34.541C7.34294 34.1794 7.56494 33.7067 7.56494 33.123C7.56494 32.543 7.34294 32.0739 6.89892 31.7158C6.45133 31.3542 5.8623 31.1733 5.13183 31.1733L5.0083 31.1733C4.56429 31.1733 4.15788 31.2557 3.78906 31.4204C3.42025 31.5851 3.13558 31.8161 2.93506 32.1133C2.73096 32.4105 2.62891 32.7507 2.62891 33.1338C2.62891 33.7067 2.85449 34.174 3.30566 34.5356C3.75325 34.8973 4.34049 35.0781 5.06738 35.0781L5.18555 35.0781ZM2.73633 25.147L2.73633 27.2632L8 27.2632L8 27.9077L2.73633 27.9077L2.73633 29.9434L2.18848 29.9434L2.18848 25.147L2.73633 25.147ZM8 20.5063C7.81738 20.5708 7.54704 20.612 7.18896 20.6299C7.48258 20.8555 7.70996 21.1437 7.87109 21.4946C8.02864 21.842 8.10742 22.2108 8.10742 22.6011C8.10742 23.1597 7.95166 23.6126 7.64014 23.96C7.32861 24.3037 6.93473 24.4756 6.45849 24.4756C5.89274 24.4756 5.44515 24.241 5.11572 23.772C4.78629 23.2993 4.62158 22.6423 4.62158 21.8008L4.62158 20.6353L3.96094 20.6353C3.54557 20.6353 3.21972 20.7642 2.9834 21.022C2.74349 21.2762 2.62353 21.6486 2.62353 22.1392C2.62353 22.5868 2.73812 22.9574 2.96728 23.251C3.19645 23.5446 3.47217 23.6914 3.79443 23.6914L3.78906 24.3359C3.32715 24.3359 2.9279 24.1211 2.59131 23.6914C2.25114 23.2617 2.08105 22.7336 2.08105 22.1069C2.08105 21.4588 2.24398 20.9486 2.56982 20.5762C2.89209 20.2002 3.34326 20.0068 3.92334 19.9961L6.67334 19.9961C7.23551 19.9961 7.65625 19.937 7.93555 19.8188L8 19.8188L8 20.5063ZM7.53808 22.5259C7.53808 22.0962 7.43424 21.7131 7.22656 21.3765C7.01888 21.0363 6.74137 20.7892 6.39404 20.6353L5.11572 20.6353L5.11572 21.7847C5.12288 22.4256 5.24105 22.9269 5.47021 23.2886C5.6958 23.6502 6.00732 23.8311 6.40478 23.8311C6.73063 23.8311 7.00098 23.7111 7.21582 23.4712C7.43066 23.2277 7.53808 22.9126 7.53808 22.5259Z" fill="#3D3737"/>
<path d="M82.5586 50.5146L82.5586 51.3472L80.104 51.3418L80.104 50.6812L82 50.6812L82 44.7837L80.104 44.7837L80.104 44.123L82.5586 44.123L82.5586 44.644C82.974 45.0415 83.5791 45.362 84.374 45.6055C85.1725 45.8525 86.0462 46.0011 86.9951 46.0513L89.8203 46.1909L89.8203 50.5146L82.5586 50.5146ZM82.5586 45.4121L82.5586 49.854L89.2563 49.854L89.2563 46.8247L87.0166 46.7173C86.0856 46.6707 85.228 46.5329 84.4438 46.3037C83.6597 46.0781 83.0312 45.7809 82.5586 45.4121ZM87.8115 57.0942L82 57.0942L82 56.4497L87.2583 56.4497L87.2583 54.0703L85.083 53.9683C84.2773 53.9253 83.6615 53.8447 83.2354 53.7266C82.8128 53.6084 82.5013 53.4329 82.3008 53.2002C82.1003 52.9674 82 52.6577 82 52.271L82 52.0239L82.5693 52.0239L82.5801 52.2227C82.5872 52.5915 82.7663 52.8564 83.1172 53.0176C83.4681 53.1787 84.0947 53.2843 84.9971 53.3345L87.8115 53.4526L87.8115 57.0942ZM87.8115 62.6426L87.8115 63.2871L82 63.2871L82 62.6426L86.7749 62.6426L82 59.5059L82 58.8667L87.8115 58.8667L87.8115 59.5059L83.0312 59.5059L87.8115 62.6426ZM82 69.4746L82 68.8301L84.6641 68.8301L84.6641 65.6987L82 65.6987L82 65.0542L87.8115 65.0542L87.8115 65.6987L85.2065 65.6987L85.2065 68.8301L87.8115 68.8301L87.8115 69.4746L82 69.4746ZM82 74.8672C82.1826 74.8027 82.453 74.7616 82.811 74.7437C82.5174 74.5181 82.29 74.2298 82.1289 73.8789C81.9714 73.5316 81.8926 73.1628 81.8926 72.7725C81.8926 72.2139 82.0483 71.7609 82.3599 71.4136C82.6714 71.0698 83.0653 70.8979 83.5415 70.8979C84.1073 70.8979 84.5548 71.1325 84.8843 71.6016C85.2137 72.0742 85.3784 72.7313 85.3784 73.5728L85.3784 74.7383L86.0391 74.7383C86.4544 74.7383 86.7803 74.6094 87.0166 74.3516C87.2565 74.0973 87.3765 73.7249 87.3765 73.2344C87.3765 72.7868 87.2619 72.4162 87.0327 72.1226C86.8035 71.8289 86.5278 71.6821 86.2056 71.6821L86.2109 71.0376C86.6728 71.0376 87.0721 71.2524 87.4087 71.6821C87.7489 72.1118 87.9189 72.64 87.9189 73.2666C87.9189 73.9147 87.756 74.425 87.4302 74.7974C87.1079 75.1733 86.6567 75.3667 86.0767 75.3774L83.3267 75.3774C82.7645 75.3774 82.3437 75.4365 82.0645 75.5547L82 75.5547L82 74.8672ZM82.4619 72.8477C82.4619 73.2773 82.5658 73.6605 82.7734 73.9971C82.9811 74.3372 83.2586 74.5843 83.606 74.7383L84.8843 74.7383L84.8843 73.5889C84.8771 72.9479 84.7589 72.4466 84.5298 72.085C84.3042 71.7233 83.9927 71.5425 83.5952 71.5425C83.2694 71.5425 82.999 71.6624 82.7842 71.9023C82.5693 72.1458 82.4619 72.4609 82.4619 72.8477Z" fill="#3D3737"/>
<line x1="42.5" y1="20" x2="42.5" y2="55" stroke="black" stroke-dasharray="5 5"/>
<line x1="75.5" y1="20" x2="75.5" y2="103" stroke="black" stroke-dasharray="5 5"/>
</svg>
