<svg width="51" height="50" viewBox="0 0 51 50" fill="none" xmlns="http://www.w3.org/2000/svg">
<path d="M0 25C0 12.4258 9.16527 1.99149 21.182 0.00857438V4.7936C11.7798 6.71673 4.70711 15.0327 4.70711 25C4.70711 34.9673 11.7798 43.2833 21.182 45.2064V49.9914C9.16527 48.0085 0 37.5742 0 25Z" fill="#E1E1E1"/>
<path d="M45.9728 25C45.9728 34.9858 38.8738 43.3141 29.4456 45.217V50C41.488 48.0388 50.6799 37.5924 50.6799 25C50.6799 12.4076 41.488 1.96123 29.4456 0V4.78297C38.8738 6.68591 45.9728 15.0142 45.9728 25Z" fill="#E1E1E1"/>
<path d="M17.2594 10.5439H35.5126V16.2427H25.6276V21.7324H33.159V27.4311H25.6276V41.1814H17.2594V10.5439Z" fill="#E1E1E1"/>
</svg>
