<svg width="88" height="68" viewBox="0 0 88 68" fill="none" xmlns="http://www.w3.org/2000/svg">
<path d="M25.7814 0.75H25.7812C18.2705 0.75 13.25 7.298 13.25 14.8125C13.25 16.6365 13.2546 18.6231 14.0499 20.6372C10.3482 21.1733 7.14011 23.8198 4.84887 27.5889C2.27394 31.8247 0.75 37.5816 0.75 43.9062C0.75 50.2311 2.27406 55.9567 4.84887 60.1924C7.42163 64.4246 11.1537 67.25 15.4375 67.25H72.5625C76.8463 67.25 80.5784 64.4246 83.1511 60.1924C85.7259 55.9567 87.25 50.2311 87.25 43.9062C87.25 37.5816 85.7261 31.8247 83.1511 27.5889C81.649 25.1178 79.7521 23.136 77.5841 21.907C77.5712 21.8876 77.5577 21.8685 77.5436 21.8498L77.5422 21.848C76.1836 20.0738 75.9062 17.4657 75.9062 14.8125C75.9062 8.66077 79.6135 3.72772 85.1411 3.28076C85.4709 3.26413 85.7808 3.11778 86.0032 2.87352C86.2266 2.62816 86.3434 2.30412 86.3279 1.97267C86.3123 1.64122 86.1657 1.32952 85.9204 1.10614C85.6766 0.884144 85.355 0.767442 85.0257 0.78125L84.9376 0.78125L84.9375 0.78125L25.7814 0.75ZM71.9538 23.0892L71.9538 23.0893L71.9615 23.0876C72.0237 23.0735 72.0847 23.0546 72.144 23.0312H72.5625C75.7236 23.0312 78.7187 25.1186 81.0051 28.8799C83.2889 32.6367 84.75 37.9827 84.75 43.9062C84.75 49.8295 83.289 55.1444 81.0051 58.9014C78.7187 62.6627 75.7236 64.75 72.5625 64.75H72.1718C72.1 64.7238 72.026 64.7042 71.9506 64.6914C69.1066 64.1392 66.4112 61.7818 64.4075 58.0688C62.4062 54.3602 61.1562 49.3982 61.1562 43.9062C61.1562 38.414 62.4064 33.4208 64.4075 29.7125C66.4119 25.9981 69.1086 23.6403 71.9538 23.0892ZM25.7812 3.25L78.8419 3.2808C75.4751 5.8346 73.4062 10.0706 73.4062 14.8125C73.4062 16.6839 73.5221 18.7485 74.1767 20.6703C73.6484 20.5795 73.1117 20.5312 72.5625 20.5312H16.7701C15.7676 18.736 15.75 16.983 15.75 14.8125C15.75 8.36025 19.7683 3.25008 25.7811 3.25C25.7812 3.25 25.7812 3.25 25.7812 3.25ZM15.4375 23.0312H66.5778C64.8734 24.4171 63.3819 26.2906 62.1862 28.5063C59.9508 32.6488 58.6562 38.0429 58.6562 43.9062C58.6562 49.7698 59.9509 55.1326 62.1862 59.275C63.3819 61.4906 64.8734 63.3642 66.5778 64.75H15.4375C12.2764 64.75 9.28134 62.6627 6.99488 58.9014C4.711 55.1444 3.25 49.8295 3.25 43.9062C3.25 37.9827 4.71112 32.6367 6.99488 28.8799C9.28134 25.1186 12.2764 23.0312 15.4375 23.0312ZM72.9375 28.6875C71.6926 28.6875 70.5531 29.2679 69.6407 30.1309C68.7304 30.9919 67.9789 32.1525 67.3656 33.5229C66.139 36.2635 65.4375 39.903 65.4375 43.9062C65.4375 47.9093 66.1385 51.5563 67.3657 54.2899C67.9799 55.6582 68.7312 56.7937 69.6411 57.6507C70.5533 58.51 71.6939 59.0938 72.9375 59.0938C74.1811 59.0938 75.3217 58.51 76.2339 57.6507C77.1438 56.7937 77.8951 55.6582 78.5093 54.2899C79.7365 51.5563 80.4375 47.9093 80.4375 43.9062C80.4375 39.903 79.736 36.2635 78.5094 33.5229C77.8961 32.1525 77.1446 30.9919 76.2343 30.1309C75.3219 29.2679 74.1824 28.6875 72.9375 28.6875ZM72.9375 31.1875C73.4186 31.1875 73.9348 31.3822 74.5157 31.9316C75.0987 32.483 75.6897 33.3786 76.2093 34.5396C77.2461 36.8562 77.9375 40.1986 77.9375 43.9062C77.9375 47.6137 77.2457 50.9331 76.2094 53.2414C75.6897 54.399 75.0981 55.301 74.5161 55.8493C73.9348 56.3968 73.4196 56.5938 72.9375 56.5938C72.4554 56.5938 71.9402 56.3968 71.3589 55.8493C70.7769 55.301 70.1853 54.399 69.6656 53.2414C68.6293 50.9331 67.9375 47.6137 67.9375 43.9062C67.9375 40.1986 68.6289 36.8562 69.6657 34.5396C70.1853 33.3786 70.7763 32.483 71.3593 31.9316C71.9402 31.3822 72.4564 31.1875 72.9375 31.1875Z" fill="#F0F0F0" stroke="#E1E1E1" stroke-width="0.5"/>
</svg>
