<svg width="94" height="95" viewBox="0 0 94 95" fill="none" xmlns="http://www.w3.org/2000/svg">
<line x1="28.5767" y1="42.3153" x2="76.5767" y2="42.3153" stroke="black" stroke-dasharray="5 5"/>
<path d="M33.8477 2.17969V9.44141H36.9736V2.17969H37.6343V9.44141H40.7495V2.17969H41.4102V10H33.1816V2.17969H33.8477ZM47.0444 4.18848H47.689V10H47.0444V5.2251L43.9077 10H43.2686V4.18848H43.9077V8.96875L47.0444 4.18848ZM54.0859 7.15332C54.0859 8.05924 53.8854 8.77897 53.4844 9.3125C53.0833 9.84245 52.5462 10.1074 51.873 10.1074C51.0781 10.1074 50.4694 9.82812 50.0469 9.26953V12.2344H49.4077V4.18848H50.0039L50.0361 5.01025C50.4551 4.39079 51.062 4.08105 51.8569 4.08105C52.5516 4.08105 53.0959 4.34424 53.4897 4.87061C53.8872 5.39697 54.0859 6.12744 54.0859 7.06201V7.15332ZM53.4414 7.04053C53.4414 6.29932 53.2892 5.71387 52.9849 5.28418C52.6805 4.85449 52.2562 4.63965 51.7119 4.63965C51.318 4.63965 50.9797 4.73454 50.6968 4.92432C50.4139 5.1141 50.1973 5.38981 50.0469 5.75146V8.53906C50.2008 8.87207 50.4211 9.1263 50.7075 9.30176C50.994 9.47721 51.3324 9.56494 51.7227 9.56494C52.2633 9.56494 52.6841 9.3501 52.9849 8.92041C53.2892 8.48714 53.4414 7.86051 53.4414 7.04053ZM59.3335 4.18848H59.978V10H59.3335V5.2251L56.1968 10H55.5576V4.18848H56.1968V8.96875L59.3335 4.18848ZM66.1655 10H65.521V7.33594H62.3896V10H61.7451V4.18848H62.3896V6.79346H65.521V4.18848H66.1655V10ZM71.5581 10C71.4937 9.81738 71.4525 9.54704 71.4346 9.18896C71.209 9.48258 70.9207 9.70996 70.5698 9.87109C70.2225 10.0286 69.8537 10.1074 69.4634 10.1074C68.9048 10.1074 68.4518 9.95166 68.1045 9.64014C67.7607 9.32861 67.5889 8.93473 67.5889 8.4585C67.5889 7.89274 67.8234 7.44515 68.2925 7.11572C68.7651 6.7863 69.4222 6.62158 70.2637 6.62158H71.4292V5.96094C71.4292 5.54557 71.3003 5.21973 71.0425 4.9834C70.7882 4.74349 70.4159 4.62354 69.9253 4.62354C69.4777 4.62354 69.1071 4.73812 68.8135 4.96729C68.5199 5.19645 68.373 5.47217 68.373 5.79443L67.7285 5.78906C67.7285 5.32715 67.9434 4.9279 68.373 4.59131C68.8027 4.25114 69.3309 4.08105 69.9575 4.08105C70.6056 4.08105 71.1159 4.24398 71.4883 4.56982C71.8643 4.89209 72.0576 5.34326 72.0684 5.92334V8.67334C72.0684 9.23551 72.1274 9.65625 72.2456 9.93555V10H71.5581ZM69.5386 9.53809C69.9683 9.53809 70.3514 9.43424 70.688 9.22656C71.0282 9.01888 71.2752 8.74137 71.4292 8.39404V7.11572H70.2798C69.6388 7.12288 69.1375 7.24105 68.7759 7.47021C68.4142 7.6958 68.2334 8.00732 68.2334 8.40479C68.2334 8.73063 68.3534 9.00098 68.5933 9.21582C68.8368 9.43066 69.1519 9.53809 69.5386 9.53809Z" fill="#3D3737"/>
<path d="M9.4414 63.8007L9.4414 62.9681L11.896 62.9735L11.896 63.6342L10 63.6342L10 69.5316L11.896 69.5316L11.896 70.1923L9.44141 70.1923L9.44141 69.6713C9.02604 69.2738 8.4209 68.9533 7.62598 68.7098C6.82747 68.4628 5.95377 68.3142 5.00488 68.264L2.17969 68.1244L2.17969 63.8007L9.4414 63.8007ZM9.44141 68.9032L9.4414 64.4613L2.74365 64.4613L2.74365 67.4906L4.9834 67.598C5.91439 67.6446 6.77197 67.7824 7.55615 68.0116C8.34033 68.2372 8.96875 68.5344 9.44141 68.9032ZM4.18847 57.2211L10 57.2211L10 57.8656L4.7417 57.8656L4.7417 60.245L6.91699 60.347C7.72265 60.39 8.33854 60.4706 8.76465 60.5887C9.18717 60.7069 9.4987 60.8824 9.69922 61.1151C9.89974 61.3479 10 61.6576 10 62.0443L10 62.2914L9.43066 62.2914L9.41992 62.0927C9.41276 61.7238 9.23372 61.4589 8.88281 61.2977C8.5319 61.1366 7.90527 61.031 7.00293 60.9808L4.18848 60.8627L4.18847 57.2211ZM4.18847 51.6727L4.18847 51.0282L10 51.0282L10 51.6727L5.2251 51.6727L10 54.8094L10 55.4486L4.18847 55.4486L4.18847 54.8094L8.96875 54.8094L4.18847 51.6727ZM10 44.8407L10 45.4852L7.33594 45.4852L7.33594 48.6166L10 48.6166L10 49.2611L4.18847 49.2611L4.18847 48.6166L6.79346 48.6166L6.79345 45.4852L4.18847 45.4852L4.18847 44.8407L10 44.8407ZM10 39.4481C9.81738 39.5126 9.54704 39.5538 9.18896 39.5717C9.48258 39.7972 9.70996 40.0855 9.87109 40.4364C10.0286 40.7837 10.1074 41.1525 10.1074 41.5428C10.1074 42.1014 9.95166 42.5544 9.64013 42.9017C9.32861 43.2455 8.93473 43.4174 8.45849 43.4174C7.89274 43.4174 7.44515 43.1828 7.11572 42.7137C6.78629 42.2411 6.62158 41.584 6.62158 40.7426L6.62158 39.577L5.96094 39.577C5.54557 39.577 5.21972 39.7059 4.9834 39.9637C4.74349 40.218 4.62353 40.5904 4.62353 41.0809C4.62353 41.5285 4.73812 41.8991 4.96728 42.1927C5.19645 42.4864 5.47217 42.6332 5.79443 42.6332L5.78906 43.2777C5.32715 43.2777 4.92789 43.0629 4.59131 42.6332C4.25114 42.2035 4.08105 41.6753 4.08105 41.0487C4.08105 40.4006 4.24398 39.8903 4.56982 39.5179C4.89209 39.142 5.34326 38.9486 5.92334 38.9379L8.67334 38.9379C9.23551 38.9379 9.65625 38.8788 9.93554 38.7606L10 38.7606L10 39.4481ZM9.53808 41.4677C9.53808 41.038 9.43424 40.6548 9.22656 40.3182C9.01888 39.9781 8.74137 39.731 8.39404 39.577L7.11572 39.577L7.11572 40.7264C7.12288 41.3674 7.24105 41.8687 7.47021 42.2303C7.6958 42.592 8.00732 42.7728 8.40478 42.7728C8.73063 42.7728 9.00097 42.6529 9.21582 42.413C9.43066 42.1695 9.53808 41.8544 9.53808 41.4677Z" fill="#3D3737"/>
<line x1="22.0767" y1="15.8153" x2="22.0767" y2="93.8153" stroke="black" stroke-dasharray="5 5"/>
<path d="M92.3267 40.3153L92.9635 41.0863C93.3243 40.7883 93.4301 40.28 93.2184 39.8627L92.3267 40.3153ZM80.8267 49.8153L80.1195 50.5224C80.4841 50.887 81.0661 50.9146 81.4635 50.5863L80.8267 49.8153ZM76.3267 45.3153L77.0338 44.6082C76.8252 44.3997 76.5352 44.2938 76.2414 44.3189C75.9475 44.3441 75.6798 44.4977 75.5097 44.7386L76.3267 45.3153ZM68.1945 20.8065C75.2934 21.7531 84.8042 27.7038 91.4349 40.7679L93.2184 39.8627C86.3649 26.3598 76.3599 19.8776 68.4588 18.8241L68.1945 20.8065ZM91.6898 39.5443L80.1898 49.0443L81.4635 50.5863L92.9635 41.0863L91.6898 39.5443ZM81.5338 49.1082L77.0338 44.6082L75.6195 46.0224L80.1195 50.5224L81.5338 49.1082ZM75.5097 44.7386C73.8351 47.111 73.0795 50.9879 72.8129 55.3005C72.5429 59.6688 72.766 64.6937 73.2058 69.5308C74.0837 79.1886 75.8413 88.2568 76.3651 90.09L78.2882 89.5406C77.812 87.8738 76.0696 78.942 75.1975 69.3498C74.7623 64.5619 74.5479 59.6493 74.8091 55.4239C75.0738 51.1427 75.8182 47.7697 77.1436 45.892L75.5097 44.7386ZM76.3651 90.09C76.3553 90.0557 76.3498 90.0036 76.3608 89.9464C76.3711 89.8925 76.3899 89.8657 76.3882 89.8682C76.3744 89.8882 76.2921 89.9829 76.0465 90.122C75.5594 90.3981 74.7396 90.6791 73.6138 90.9433C71.3895 91.4654 68.2918 91.8513 65.1138 92.1317C61.9472 92.4111 58.7451 92.5822 56.3316 92.6834C55.1257 92.7339 54.1183 92.767 53.413 92.7874C53.0603 92.7976 52.7833 92.8046 52.5947 92.8091C52.5004 92.8114 52.4282 92.813 52.3798 92.814C52.3556 92.8145 52.3373 92.8149 52.3252 92.8151C52.3191 92.8153 52.3146 92.8154 52.3116 92.8154C52.3102 92.8154 52.3091 92.8155 52.3084 92.8155C52.308 92.8155 52.3078 92.8155 52.3076 92.8155C52.3075 92.8155 52.3074 92.8155 52.3267 93.8153C52.3459 94.8151 52.3461 94.8151 52.3463 94.8151C52.3465 94.8151 52.3469 94.8151 52.3473 94.8151C52.3482 94.8151 52.3495 94.8151 52.3512 94.815C52.3545 94.815 52.3594 94.8149 52.3658 94.8147C52.3787 94.8145 52.3977 94.8141 52.4226 94.8135C52.4725 94.8125 52.5463 94.8108 52.6421 94.8086C52.8339 94.804 53.1145 94.7969 53.4708 94.7866C54.1834 94.766 55.1995 94.7326 56.4154 94.6816C58.8457 94.5797 62.0811 94.407 65.2896 94.1239C68.4865 93.8419 71.7014 93.4465 74.0708 92.8904C75.2418 92.6156 76.2892 92.2833 77.0326 91.8621C77.4022 91.6526 77.776 91.3776 78.0332 91.0058C78.3164 90.5962 78.4432 90.0831 78.2882 89.5406L76.3651 90.09Z" fill="#CBCBCB"/>
<path d="M12.8267 40.3153L12.1898 41.0863C11.829 40.7883 11.7232 40.28 11.935 39.8627L12.8267 40.3153ZM24.3267 49.8153L25.0338 50.5224C24.6692 50.887 24.0873 50.9146 23.6898 50.5863L24.3267 49.8153ZM28.8267 45.3153L28.1196 44.6082C28.3281 44.3997 28.6181 44.2938 28.9119 44.3189C29.2058 44.3441 29.4736 44.4977 29.6436 44.7386L28.8267 45.3153ZM36.9588 20.8065C29.8599 21.7531 20.3491 27.7038 13.7184 40.7679L11.935 39.8627C18.7884 26.3598 28.7934 19.8776 36.6945 18.8241L36.9588 20.8065ZM13.4636 39.5443L24.9635 49.0443L23.6898 50.5863L12.1898 41.0863L13.4636 39.5443ZM23.6196 49.1082L28.1196 44.6082L29.5338 46.0224L25.0338 50.5224L23.6196 49.1082ZM29.6436 44.7386C31.3182 47.111 32.0738 50.9879 32.3404 55.3005C32.6104 59.6688 32.3873 64.6937 31.9476 69.5308C31.0696 79.1886 29.312 88.2568 28.7882 90.09L26.8651 89.5406C27.3414 87.8738 29.0838 78.942 29.9558 69.3498C30.391 64.5619 30.6054 59.6493 30.3442 55.4239C30.0795 51.1427 29.3351 47.7697 28.0097 45.892L29.6436 44.7386ZM28.7882 90.09C28.798 90.0557 28.8035 90.0036 28.7925 89.9464C28.7822 89.8925 28.7634 89.8657 28.7651 89.8682C28.779 89.8882 28.8612 89.9829 29.1068 90.122C29.5939 90.3981 30.4137 90.6791 31.5395 90.9433C33.7639 91.4654 36.8615 91.8513 40.0396 92.1317C43.2061 92.4111 46.4082 92.5822 48.8217 92.6834C50.0276 92.7339 51.035 92.767 51.7403 92.7874C52.093 92.7976 52.3701 92.8046 52.5587 92.8091C52.6529 92.8114 52.7251 92.813 52.7735 92.814C52.7977 92.8145 52.816 92.8149 52.8281 92.8151C52.8342 92.8153 52.8387 92.8154 52.8417 92.8154C52.8432 92.8154 52.8443 92.8155 52.845 92.8155C52.8453 92.8155 52.8455 92.8155 52.8457 92.8155C52.8459 92.8155 52.8459 92.8155 52.8267 93.8153C52.8074 94.8151 52.8073 94.8151 52.807 94.8151C52.8068 94.8151 52.8064 94.8151 52.806 94.8151C52.8051 94.8151 52.8038 94.8151 52.8022 94.815C52.7988 94.815 52.7939 94.8149 52.7875 94.8147C52.7747 94.8145 52.7557 94.8141 52.7307 94.8135C52.6808 94.8125 52.6071 94.8108 52.5112 94.8086C52.3194 94.804 52.0388 94.7969 51.6825 94.7866C50.9699 94.766 49.9538 94.7326 48.7379 94.6816C46.3076 94.5797 43.0722 94.407 39.8638 94.1239C36.6668 93.8419 33.452 93.4465 31.0826 92.8904C29.9115 92.6156 28.8641 92.2833 28.1208 91.8621C27.7511 91.6526 27.3773 91.3776 27.1202 91.0058C26.8369 90.5962 26.7101 90.0831 26.8651 89.5406L28.7882 90.09Z" fill="#CBCBCB"/>
<path d="M57.7634 30.6128L52.8267 26.8153L63.8267 13.8153L68.8267 19.8153L60.5509 30.2689C59.872 31.1264 58.6303 31.2796 57.7634 30.6128Z" stroke="#CBCBCB" stroke-width="2" stroke-linejoin="round"/>
<path d="M47.39 30.6128L52.3267 26.8153L41.3267 13.8153L36.3267 19.8153L44.6024 30.2689C45.2813 31.1264 46.5231 31.2796 47.39 30.6128Z" stroke="#CBCBCB" stroke-width="2" stroke-linejoin="round"/>
<path d="M41.3267 13.8153H63.8265L57.8266 20.3153H46.8266L41.3267 13.8153Z" stroke="#CBCBCB" stroke-width="2" stroke-linejoin="round"/>
<circle cx="52.5767" cy="33.3153" r="1" fill="#C4C4C4"/>
<circle cx="52.5767" cy="37.3153" r="1" fill="#C4C4C4"/>
</svg>
