<svg width="22" height="16" viewBox="0 0 22 16" fill="none" xmlns="http://www.w3.org/2000/svg">
<path d="M21.8135 10.3104L18.8957 13.1986C18.834 13.2595 18.7607 13.3077 18.6802 13.3404L18.6699 13.3435C18.5157 13.4053 18.3433 13.4053 18.189 13.3435L18.1788 13.3404C18.0982 13.3077 18.025 13.2595 17.9633 13.1986L15.0459 10.3104C14.9251 10.1874 14.8581 10.0223 14.8594 9.85071C14.8606 9.67917 14.93 9.51501 15.0526 9.39371C15.1751 9.27241 15.341 9.20371 15.5143 9.20248C15.6876 9.20124 15.8544 9.26756 15.9787 9.3871L17.7696 11.1603V1.30592H6.22287C6.04791 1.30592 5.88012 1.23712 5.75641 1.11467C5.6327 0.992216 5.5632 0.826133 5.5632 0.652958C5.5632 0.479783 5.6327 0.3137 5.75641 0.191247C5.88012 0.0687935 6.04791 0 6.22287 0H18.4292C18.6042 0 18.772 0.0687935 18.8957 0.191247C19.0194 0.3137 19.0889 0.479783 19.0889 0.652958V11.1606L20.8807 9.3871C21.005 9.26756 21.1718 9.20124 21.3451 9.20248C21.5184 9.20371 21.6842 9.27241 21.8068 9.39371C21.9293 9.51501 21.9987 9.67917 22 9.85071C22.0012 10.0223 21.9342 10.1874 21.8135 10.3104ZM15.7906 14.694H4.24387V4.83968L6.03517 6.61307C6.15947 6.73261 6.3263 6.79893 6.49961 6.7977C6.67291 6.79646 6.83876 6.72777 6.96131 6.60647C7.08386 6.48517 7.15325 6.321 7.1545 6.14946C7.15575 5.97792 7.08875 5.81278 6.96798 5.68975L4.05059 2.80158C3.98884 2.74069 3.91553 2.69249 3.83488 2.65976L3.82467 2.65663C3.67041 2.59487 3.49795 2.59487 3.34369 2.65663L3.33349 2.65976C3.25292 2.69252 3.17969 2.74072 3.118 2.80158L0.199983 5.68957C0.137277 5.74988 0.0873074 5.82192 0.0529787 5.90151C0.01865 5.9811 0.000647198 6.06665 1.71317e-05 6.15319C-0.000612934 6.23972 0.0161422 6.32552 0.0493085 6.40559C0.0824747 6.48566 0.13139 6.55841 0.193212 6.6196C0.255033 6.6808 0.328527 6.72921 0.409421 6.76204C0.490314 6.79487 0.576994 6.81146 0.66442 6.81083C0.751847 6.81021 0.838276 6.79239 0.918683 6.75841C0.99909 6.72443 1.07187 6.67497 1.1328 6.6129L2.92454 4.83938V15.347C2.92454 15.5202 2.99404 15.6863 3.11775 15.8088C3.24146 15.9312 3.40925 16 3.5842 16H15.7906C15.9655 16 16.1333 15.9312 16.257 15.8088C16.3807 15.6863 16.4502 15.5202 16.4502 15.347C16.4502 15.1739 16.3807 15.0078 16.257 14.8853C16.1333 14.7629 15.9655 14.6941 15.7906 14.6941V14.694Z" fill="#9E9E9E"/>
</svg>
